G75*
G70*
%OFA0B0*%
%FSLAX24Y24*%
%IPPOS*%
%LPD*%
%AMOC8*
5,1,8,0,0,1.08239X$1,22.5*
%
%ADD10R,0.0701X0.0610*%
%ADD11R,0.0512X0.0591*%
%ADD12R,0.0800X0.0260*%
%ADD13R,0.0945X0.0945*%
%ADD14R,0.0591X0.0512*%
%ADD15R,0.0315X0.0315*%
%ADD16R,0.0315X0.0354*%
D10*
X010234Y004080D03*
X011234Y004080D03*
X011234Y007836D03*
X010234Y007836D03*
D11*
X010392Y009871D03*
X011140Y009871D03*
X011140Y011121D03*
X010392Y011121D03*
X010392Y012621D03*
X011140Y012621D03*
X011140Y013871D03*
X010392Y013871D03*
X018409Y013379D03*
X019157Y013379D03*
X019176Y014471D03*
X018428Y014471D03*
X018369Y012158D03*
X019117Y012158D03*
X019117Y010899D03*
X018369Y010899D03*
X023064Y014668D03*
X023812Y014668D03*
X021824Y017828D03*
X021076Y017828D03*
X021066Y019353D03*
X021814Y019353D03*
D12*
X015821Y019121D03*
X015821Y018621D03*
X015821Y018121D03*
X015821Y017621D03*
X015821Y017121D03*
X015821Y016621D03*
X015821Y016121D03*
X015821Y015621D03*
X013211Y015621D03*
X013211Y016121D03*
X013211Y016621D03*
X013211Y017121D03*
X013211Y017621D03*
X013211Y018121D03*
X013211Y018621D03*
X013211Y019121D03*
X020514Y013652D03*
X020514Y013152D03*
X020514Y012652D03*
X020514Y012152D03*
X020514Y011652D03*
X020514Y011152D03*
X020514Y010652D03*
X020514Y010152D03*
X024374Y010152D03*
X024374Y010652D03*
X024374Y011152D03*
X024374Y011652D03*
X024374Y012152D03*
X024374Y012652D03*
X024374Y013152D03*
X024374Y013652D03*
D13*
X023334Y008965D03*
X021365Y008965D03*
D14*
X025712Y011292D03*
X025712Y012040D03*
X017395Y019353D03*
X017395Y020101D03*
X009141Y021372D03*
X009141Y022120D03*
D15*
X016666Y019944D03*
X016666Y019353D03*
D16*
X022789Y018822D03*
X023537Y018822D03*
X023163Y019649D03*
X023172Y017946D03*
X022798Y017119D03*
X023546Y017119D03*
M02*
