G75*
G70*
%OFA0B0*%
%FSLAX24Y24*%
%IPPOS*%
%LPD*%
%AMOC8*
5,1,8,0,0,1.08239X$1,22.5*
%
%ADD10C,0.1340*%
%ADD11OC8,0.0635*%
%ADD12R,0.0781X0.0690*%
%ADD13C,0.0940*%
%ADD14C,0.1360*%
%ADD15C,0.0698*%
%ADD16C,0.0674*%
%ADD17R,0.0592X0.0671*%
%ADD18R,0.0880X0.0340*%
%ADD19R,0.1025X0.1025*%
%ADD20R,0.0671X0.0592*%
%ADD21R,0.0395X0.0395*%
%ADD22R,0.0395X0.0434*%
%ADD23C,0.0790*%
%ADD24C,0.1261*%
D10*
X003141Y001216D03*
X028952Y003058D03*
X029015Y022776D03*
X010141Y026121D03*
D11*
X011301Y022410D03*
X012301Y022410D03*
X013301Y022410D03*
X014301Y022410D03*
X015301Y022410D03*
X016301Y022410D03*
X017301Y022410D03*
X018301Y022410D03*
X020051Y022410D03*
X021051Y022410D03*
X022051Y022410D03*
X023051Y022410D03*
X024051Y022410D03*
X025051Y022410D03*
X026051Y022410D03*
X027051Y022410D03*
X027051Y003410D03*
X026051Y003410D03*
X025051Y003410D03*
X024051Y003410D03*
X023051Y003410D03*
X022051Y003410D03*
X020051Y003410D03*
X019051Y003410D03*
X018051Y003410D03*
X017051Y003410D03*
X016051Y003410D03*
X015051Y003410D03*
D12*
X011234Y004080D03*
X010234Y004080D03*
X010234Y007836D03*
X011234Y007836D03*
D13*
X024825Y007671D02*
X024825Y006811D01*
X027187Y006811D02*
X027187Y007671D01*
X026436Y009131D02*
X025576Y009131D01*
D14*
X004141Y004371D03*
X004141Y025371D03*
D15*
X002342Y026469D03*
X008239Y020371D03*
X008239Y014871D03*
X008239Y009371D03*
X002342Y003273D03*
D16*
X006641Y005371D03*
X006641Y006371D03*
X006641Y007371D03*
X006641Y008371D03*
X007641Y007871D03*
X007641Y006871D03*
X007641Y005871D03*
X007641Y004871D03*
X007641Y010371D03*
X007641Y011371D03*
X007641Y012371D03*
X007641Y013371D03*
X006641Y013871D03*
X006641Y012871D03*
X006641Y011871D03*
X006641Y010871D03*
X007641Y015871D03*
X007641Y016871D03*
X007641Y017871D03*
X007641Y018871D03*
X006641Y019371D03*
X006641Y018371D03*
X006641Y017371D03*
X006641Y016371D03*
X007641Y021371D03*
X007641Y022371D03*
X007641Y023371D03*
X007641Y024371D03*
X006641Y024871D03*
X006641Y023871D03*
X006641Y022871D03*
X006641Y021871D03*
D17*
X010392Y013871D03*
X011140Y013871D03*
X011140Y012621D03*
X010392Y012621D03*
X010392Y011121D03*
X011140Y011121D03*
X011140Y009871D03*
X010392Y009871D03*
X018369Y010899D03*
X019117Y010899D03*
X019117Y012158D03*
X018369Y012158D03*
X018409Y013379D03*
X019157Y013379D03*
X019176Y014471D03*
X018428Y014471D03*
X021076Y017828D03*
X021824Y017828D03*
X021814Y019353D03*
X021066Y019353D03*
X023064Y014668D03*
X023812Y014668D03*
D18*
X024374Y013652D03*
X024374Y013152D03*
X024374Y012652D03*
X024374Y012152D03*
X024374Y011652D03*
X024374Y011152D03*
X024374Y010652D03*
X024374Y010152D03*
X020514Y010152D03*
X020514Y010652D03*
X020514Y011152D03*
X020514Y011652D03*
X020514Y012152D03*
X020514Y012652D03*
X020514Y013152D03*
X020514Y013652D03*
X015821Y015621D03*
X015821Y016121D03*
X015821Y016621D03*
X015821Y017121D03*
X015821Y017621D03*
X015821Y018121D03*
X015821Y018621D03*
X015821Y019121D03*
X013211Y019121D03*
X013211Y018621D03*
X013211Y018121D03*
X013211Y017621D03*
X013211Y017121D03*
X013211Y016621D03*
X013211Y016121D03*
X013211Y015621D03*
D19*
X021365Y008965D03*
X023334Y008965D03*
D20*
X025712Y011292D03*
X025712Y012040D03*
X017395Y019353D03*
X017395Y020101D03*
X009141Y021372D03*
X009141Y022120D03*
D21*
X016666Y019944D03*
X016666Y019353D03*
D22*
X022789Y018822D03*
X023537Y018822D03*
X023163Y019649D03*
X023172Y017946D03*
X022798Y017119D03*
X023546Y017119D03*
D23*
X027823Y016788D02*
X028533Y016788D01*
X028533Y014788D02*
X027823Y014788D01*
X027819Y012591D02*
X028529Y012591D01*
X028529Y010623D02*
X027819Y010623D01*
X027823Y018788D02*
X028533Y018788D01*
X028533Y020788D02*
X027823Y020788D01*
D24*
X008241Y020357D03*
X008241Y014865D03*
X008241Y009373D03*
X002346Y003271D03*
X002346Y026469D03*
M02*
