G75*
G70*
%OFA0B0*%
%FSLAX24Y24*%
%IPPOS*%
%LPD*%
%AMOC8*
5,1,8,0,0,1.08239X$1,22.5*
%
%ADD10C,0.0000*%
%ADD11OC8,0.0555*%
%ADD12R,0.0701X0.0610*%
%ADD13C,0.0860*%
%ADD14C,0.0594*%
%ADD15R,0.0512X0.0591*%
%ADD16R,0.0800X0.0260*%
%ADD17R,0.0945X0.0945*%
%ADD18R,0.0591X0.0512*%
%ADD19R,0.0315X0.0315*%
%ADD20R,0.0315X0.0354*%
%ADD21C,0.0710*%
%ADD22C,0.0160*%
%ADD23C,0.0240*%
%ADD24C,0.0320*%
%ADD25C,0.0120*%
%ADD26C,0.0400*%
%ADD27C,0.0436*%
%ADD28C,0.1181*%
D10*
X002511Y001216D02*
X002513Y001266D01*
X002519Y001316D01*
X002529Y001365D01*
X002543Y001413D01*
X002560Y001460D01*
X002581Y001505D01*
X002606Y001549D01*
X002634Y001590D01*
X002666Y001629D01*
X002700Y001666D01*
X002737Y001700D01*
X002777Y001730D01*
X002819Y001757D01*
X002863Y001781D01*
X002909Y001802D01*
X002956Y001818D01*
X003004Y001831D01*
X003054Y001840D01*
X003103Y001845D01*
X003154Y001846D01*
X003204Y001843D01*
X003253Y001836D01*
X003302Y001825D01*
X003350Y001810D01*
X003396Y001792D01*
X003441Y001770D01*
X003484Y001744D01*
X003525Y001715D01*
X003564Y001683D01*
X003600Y001648D01*
X003632Y001610D01*
X003662Y001570D01*
X003689Y001527D01*
X003712Y001483D01*
X003731Y001437D01*
X003747Y001389D01*
X003759Y001340D01*
X003767Y001291D01*
X003771Y001241D01*
X003771Y001191D01*
X003767Y001141D01*
X003759Y001092D01*
X003747Y001043D01*
X003731Y000995D01*
X003712Y000949D01*
X003689Y000905D01*
X003662Y000862D01*
X003632Y000822D01*
X003600Y000784D01*
X003564Y000749D01*
X003525Y000717D01*
X003484Y000688D01*
X003441Y000662D01*
X003396Y000640D01*
X003350Y000622D01*
X003302Y000607D01*
X003253Y000596D01*
X003204Y000589D01*
X003154Y000586D01*
X003103Y000587D01*
X003054Y000592D01*
X003004Y000601D01*
X002956Y000614D01*
X002909Y000630D01*
X002863Y000651D01*
X002819Y000675D01*
X002777Y000702D01*
X002737Y000732D01*
X002700Y000766D01*
X002666Y000803D01*
X002634Y000842D01*
X002606Y000883D01*
X002581Y000927D01*
X002560Y000972D01*
X002543Y001019D01*
X002529Y001067D01*
X002519Y001116D01*
X002513Y001166D01*
X002511Y001216D01*
X002033Y003273D02*
X002035Y003308D01*
X002041Y003342D01*
X002050Y003375D01*
X002064Y003407D01*
X002080Y003437D01*
X002100Y003466D01*
X002124Y003491D01*
X002149Y003515D01*
X002178Y003535D01*
X002208Y003551D01*
X002240Y003565D01*
X002273Y003574D01*
X002307Y003580D01*
X002342Y003582D01*
X002377Y003580D01*
X002411Y003574D01*
X002444Y003565D01*
X002476Y003551D01*
X002506Y003535D01*
X002535Y003515D01*
X002560Y003491D01*
X002584Y003466D01*
X002604Y003437D01*
X002620Y003407D01*
X002634Y003375D01*
X002643Y003342D01*
X002649Y003308D01*
X002651Y003273D01*
X002649Y003238D01*
X002643Y003204D01*
X002634Y003171D01*
X002620Y003139D01*
X002604Y003109D01*
X002584Y003080D01*
X002560Y003055D01*
X002535Y003031D01*
X002506Y003011D01*
X002476Y002995D01*
X002444Y002981D01*
X002411Y002972D01*
X002377Y002966D01*
X002342Y002964D01*
X002307Y002966D01*
X002273Y002972D01*
X002240Y002981D01*
X002208Y002995D01*
X002178Y003011D01*
X002149Y003031D01*
X002124Y003055D01*
X002100Y003080D01*
X002080Y003109D01*
X002064Y003139D01*
X002050Y003171D01*
X002041Y003204D01*
X002035Y003238D01*
X002033Y003273D01*
X003501Y004371D02*
X003503Y004421D01*
X003509Y004471D01*
X003519Y004520D01*
X003532Y004569D01*
X003550Y004616D01*
X003571Y004662D01*
X003595Y004705D01*
X003623Y004747D01*
X003654Y004787D01*
X003688Y004824D01*
X003725Y004858D01*
X003765Y004889D01*
X003807Y004917D01*
X003850Y004941D01*
X003896Y004962D01*
X003943Y004980D01*
X003992Y004993D01*
X004041Y005003D01*
X004091Y005009D01*
X004141Y005011D01*
X004191Y005009D01*
X004241Y005003D01*
X004290Y004993D01*
X004339Y004980D01*
X004386Y004962D01*
X004432Y004941D01*
X004475Y004917D01*
X004517Y004889D01*
X004557Y004858D01*
X004594Y004824D01*
X004628Y004787D01*
X004659Y004747D01*
X004687Y004705D01*
X004711Y004662D01*
X004732Y004616D01*
X004750Y004569D01*
X004763Y004520D01*
X004773Y004471D01*
X004779Y004421D01*
X004781Y004371D01*
X004779Y004321D01*
X004773Y004271D01*
X004763Y004222D01*
X004750Y004173D01*
X004732Y004126D01*
X004711Y004080D01*
X004687Y004037D01*
X004659Y003995D01*
X004628Y003955D01*
X004594Y003918D01*
X004557Y003884D01*
X004517Y003853D01*
X004475Y003825D01*
X004432Y003801D01*
X004386Y003780D01*
X004339Y003762D01*
X004290Y003749D01*
X004241Y003739D01*
X004191Y003733D01*
X004141Y003731D01*
X004091Y003733D01*
X004041Y003739D01*
X003992Y003749D01*
X003943Y003762D01*
X003896Y003780D01*
X003850Y003801D01*
X003807Y003825D01*
X003765Y003853D01*
X003725Y003884D01*
X003688Y003918D01*
X003654Y003955D01*
X003623Y003995D01*
X003595Y004037D01*
X003571Y004080D01*
X003550Y004126D01*
X003532Y004173D01*
X003519Y004222D01*
X003509Y004271D01*
X003503Y004321D01*
X003501Y004371D01*
X007930Y009371D02*
X007932Y009406D01*
X007938Y009440D01*
X007947Y009473D01*
X007961Y009505D01*
X007977Y009535D01*
X007997Y009564D01*
X008021Y009589D01*
X008046Y009613D01*
X008075Y009633D01*
X008105Y009649D01*
X008137Y009663D01*
X008170Y009672D01*
X008204Y009678D01*
X008239Y009680D01*
X008274Y009678D01*
X008308Y009672D01*
X008341Y009663D01*
X008373Y009649D01*
X008403Y009633D01*
X008432Y009613D01*
X008457Y009589D01*
X008481Y009564D01*
X008501Y009535D01*
X008517Y009505D01*
X008531Y009473D01*
X008540Y009440D01*
X008546Y009406D01*
X008548Y009371D01*
X008546Y009336D01*
X008540Y009302D01*
X008531Y009269D01*
X008517Y009237D01*
X008501Y009207D01*
X008481Y009178D01*
X008457Y009153D01*
X008432Y009129D01*
X008403Y009109D01*
X008373Y009093D01*
X008341Y009079D01*
X008308Y009070D01*
X008274Y009064D01*
X008239Y009062D01*
X008204Y009064D01*
X008170Y009070D01*
X008137Y009079D01*
X008105Y009093D01*
X008075Y009109D01*
X008046Y009129D01*
X008021Y009153D01*
X007997Y009178D01*
X007977Y009207D01*
X007961Y009237D01*
X007947Y009269D01*
X007938Y009302D01*
X007932Y009336D01*
X007930Y009371D01*
X007930Y014871D02*
X007932Y014906D01*
X007938Y014940D01*
X007947Y014973D01*
X007961Y015005D01*
X007977Y015035D01*
X007997Y015064D01*
X008021Y015089D01*
X008046Y015113D01*
X008075Y015133D01*
X008105Y015149D01*
X008137Y015163D01*
X008170Y015172D01*
X008204Y015178D01*
X008239Y015180D01*
X008274Y015178D01*
X008308Y015172D01*
X008341Y015163D01*
X008373Y015149D01*
X008403Y015133D01*
X008432Y015113D01*
X008457Y015089D01*
X008481Y015064D01*
X008501Y015035D01*
X008517Y015005D01*
X008531Y014973D01*
X008540Y014940D01*
X008546Y014906D01*
X008548Y014871D01*
X008546Y014836D01*
X008540Y014802D01*
X008531Y014769D01*
X008517Y014737D01*
X008501Y014707D01*
X008481Y014678D01*
X008457Y014653D01*
X008432Y014629D01*
X008403Y014609D01*
X008373Y014593D01*
X008341Y014579D01*
X008308Y014570D01*
X008274Y014564D01*
X008239Y014562D01*
X008204Y014564D01*
X008170Y014570D01*
X008137Y014579D01*
X008105Y014593D01*
X008075Y014609D01*
X008046Y014629D01*
X008021Y014653D01*
X007997Y014678D01*
X007977Y014707D01*
X007961Y014737D01*
X007947Y014769D01*
X007938Y014802D01*
X007932Y014836D01*
X007930Y014871D01*
X007930Y020371D02*
X007932Y020406D01*
X007938Y020440D01*
X007947Y020473D01*
X007961Y020505D01*
X007977Y020535D01*
X007997Y020564D01*
X008021Y020589D01*
X008046Y020613D01*
X008075Y020633D01*
X008105Y020649D01*
X008137Y020663D01*
X008170Y020672D01*
X008204Y020678D01*
X008239Y020680D01*
X008274Y020678D01*
X008308Y020672D01*
X008341Y020663D01*
X008373Y020649D01*
X008403Y020633D01*
X008432Y020613D01*
X008457Y020589D01*
X008481Y020564D01*
X008501Y020535D01*
X008517Y020505D01*
X008531Y020473D01*
X008540Y020440D01*
X008546Y020406D01*
X008548Y020371D01*
X008546Y020336D01*
X008540Y020302D01*
X008531Y020269D01*
X008517Y020237D01*
X008501Y020207D01*
X008481Y020178D01*
X008457Y020153D01*
X008432Y020129D01*
X008403Y020109D01*
X008373Y020093D01*
X008341Y020079D01*
X008308Y020070D01*
X008274Y020064D01*
X008239Y020062D01*
X008204Y020064D01*
X008170Y020070D01*
X008137Y020079D01*
X008105Y020093D01*
X008075Y020109D01*
X008046Y020129D01*
X008021Y020153D01*
X007997Y020178D01*
X007977Y020207D01*
X007961Y020237D01*
X007947Y020269D01*
X007938Y020302D01*
X007932Y020336D01*
X007930Y020371D01*
X003501Y025371D02*
X003503Y025421D01*
X003509Y025471D01*
X003519Y025520D01*
X003532Y025569D01*
X003550Y025616D01*
X003571Y025662D01*
X003595Y025705D01*
X003623Y025747D01*
X003654Y025787D01*
X003688Y025824D01*
X003725Y025858D01*
X003765Y025889D01*
X003807Y025917D01*
X003850Y025941D01*
X003896Y025962D01*
X003943Y025980D01*
X003992Y025993D01*
X004041Y026003D01*
X004091Y026009D01*
X004141Y026011D01*
X004191Y026009D01*
X004241Y026003D01*
X004290Y025993D01*
X004339Y025980D01*
X004386Y025962D01*
X004432Y025941D01*
X004475Y025917D01*
X004517Y025889D01*
X004557Y025858D01*
X004594Y025824D01*
X004628Y025787D01*
X004659Y025747D01*
X004687Y025705D01*
X004711Y025662D01*
X004732Y025616D01*
X004750Y025569D01*
X004763Y025520D01*
X004773Y025471D01*
X004779Y025421D01*
X004781Y025371D01*
X004779Y025321D01*
X004773Y025271D01*
X004763Y025222D01*
X004750Y025173D01*
X004732Y025126D01*
X004711Y025080D01*
X004687Y025037D01*
X004659Y024995D01*
X004628Y024955D01*
X004594Y024918D01*
X004557Y024884D01*
X004517Y024853D01*
X004475Y024825D01*
X004432Y024801D01*
X004386Y024780D01*
X004339Y024762D01*
X004290Y024749D01*
X004241Y024739D01*
X004191Y024733D01*
X004141Y024731D01*
X004091Y024733D01*
X004041Y024739D01*
X003992Y024749D01*
X003943Y024762D01*
X003896Y024780D01*
X003850Y024801D01*
X003807Y024825D01*
X003765Y024853D01*
X003725Y024884D01*
X003688Y024918D01*
X003654Y024955D01*
X003623Y024995D01*
X003595Y025037D01*
X003571Y025080D01*
X003550Y025126D01*
X003532Y025173D01*
X003519Y025222D01*
X003509Y025271D01*
X003503Y025321D01*
X003501Y025371D01*
X002033Y026469D02*
X002035Y026504D01*
X002041Y026538D01*
X002050Y026571D01*
X002064Y026603D01*
X002080Y026633D01*
X002100Y026662D01*
X002124Y026687D01*
X002149Y026711D01*
X002178Y026731D01*
X002208Y026747D01*
X002240Y026761D01*
X002273Y026770D01*
X002307Y026776D01*
X002342Y026778D01*
X002377Y026776D01*
X002411Y026770D01*
X002444Y026761D01*
X002476Y026747D01*
X002506Y026731D01*
X002535Y026711D01*
X002560Y026687D01*
X002584Y026662D01*
X002604Y026633D01*
X002620Y026603D01*
X002634Y026571D01*
X002643Y026538D01*
X002649Y026504D01*
X002651Y026469D01*
X002649Y026434D01*
X002643Y026400D01*
X002634Y026367D01*
X002620Y026335D01*
X002604Y026305D01*
X002584Y026276D01*
X002560Y026251D01*
X002535Y026227D01*
X002506Y026207D01*
X002476Y026191D01*
X002444Y026177D01*
X002411Y026168D01*
X002377Y026162D01*
X002342Y026160D01*
X002307Y026162D01*
X002273Y026168D01*
X002240Y026177D01*
X002208Y026191D01*
X002178Y026207D01*
X002149Y026227D01*
X002124Y026251D01*
X002100Y026276D01*
X002080Y026305D01*
X002064Y026335D01*
X002050Y026367D01*
X002041Y026400D01*
X002035Y026434D01*
X002033Y026469D01*
X009511Y026121D02*
X009513Y026171D01*
X009519Y026221D01*
X009529Y026270D01*
X009543Y026318D01*
X009560Y026365D01*
X009581Y026410D01*
X009606Y026454D01*
X009634Y026495D01*
X009666Y026534D01*
X009700Y026571D01*
X009737Y026605D01*
X009777Y026635D01*
X009819Y026662D01*
X009863Y026686D01*
X009909Y026707D01*
X009956Y026723D01*
X010004Y026736D01*
X010054Y026745D01*
X010103Y026750D01*
X010154Y026751D01*
X010204Y026748D01*
X010253Y026741D01*
X010302Y026730D01*
X010350Y026715D01*
X010396Y026697D01*
X010441Y026675D01*
X010484Y026649D01*
X010525Y026620D01*
X010564Y026588D01*
X010600Y026553D01*
X010632Y026515D01*
X010662Y026475D01*
X010689Y026432D01*
X010712Y026388D01*
X010731Y026342D01*
X010747Y026294D01*
X010759Y026245D01*
X010767Y026196D01*
X010771Y026146D01*
X010771Y026096D01*
X010767Y026046D01*
X010759Y025997D01*
X010747Y025948D01*
X010731Y025900D01*
X010712Y025854D01*
X010689Y025810D01*
X010662Y025767D01*
X010632Y025727D01*
X010600Y025689D01*
X010564Y025654D01*
X010525Y025622D01*
X010484Y025593D01*
X010441Y025567D01*
X010396Y025545D01*
X010350Y025527D01*
X010302Y025512D01*
X010253Y025501D01*
X010204Y025494D01*
X010154Y025491D01*
X010103Y025492D01*
X010054Y025497D01*
X010004Y025506D01*
X009956Y025519D01*
X009909Y025535D01*
X009863Y025556D01*
X009819Y025580D01*
X009777Y025607D01*
X009737Y025637D01*
X009700Y025671D01*
X009666Y025708D01*
X009634Y025747D01*
X009606Y025788D01*
X009581Y025832D01*
X009560Y025877D01*
X009543Y025924D01*
X009529Y025972D01*
X009519Y026021D01*
X009513Y026071D01*
X009511Y026121D01*
X028385Y022776D02*
X028387Y022826D01*
X028393Y022876D01*
X028403Y022925D01*
X028417Y022973D01*
X028434Y023020D01*
X028455Y023065D01*
X028480Y023109D01*
X028508Y023150D01*
X028540Y023189D01*
X028574Y023226D01*
X028611Y023260D01*
X028651Y023290D01*
X028693Y023317D01*
X028737Y023341D01*
X028783Y023362D01*
X028830Y023378D01*
X028878Y023391D01*
X028928Y023400D01*
X028977Y023405D01*
X029028Y023406D01*
X029078Y023403D01*
X029127Y023396D01*
X029176Y023385D01*
X029224Y023370D01*
X029270Y023352D01*
X029315Y023330D01*
X029358Y023304D01*
X029399Y023275D01*
X029438Y023243D01*
X029474Y023208D01*
X029506Y023170D01*
X029536Y023130D01*
X029563Y023087D01*
X029586Y023043D01*
X029605Y022997D01*
X029621Y022949D01*
X029633Y022900D01*
X029641Y022851D01*
X029645Y022801D01*
X029645Y022751D01*
X029641Y022701D01*
X029633Y022652D01*
X029621Y022603D01*
X029605Y022555D01*
X029586Y022509D01*
X029563Y022465D01*
X029536Y022422D01*
X029506Y022382D01*
X029474Y022344D01*
X029438Y022309D01*
X029399Y022277D01*
X029358Y022248D01*
X029315Y022222D01*
X029270Y022200D01*
X029224Y022182D01*
X029176Y022167D01*
X029127Y022156D01*
X029078Y022149D01*
X029028Y022146D01*
X028977Y022147D01*
X028928Y022152D01*
X028878Y022161D01*
X028830Y022174D01*
X028783Y022190D01*
X028737Y022211D01*
X028693Y022235D01*
X028651Y022262D01*
X028611Y022292D01*
X028574Y022326D01*
X028540Y022363D01*
X028508Y022402D01*
X028480Y022443D01*
X028455Y022487D01*
X028434Y022532D01*
X028417Y022579D01*
X028403Y022627D01*
X028393Y022676D01*
X028387Y022726D01*
X028385Y022776D01*
X028322Y003058D02*
X028324Y003108D01*
X028330Y003158D01*
X028340Y003207D01*
X028354Y003255D01*
X028371Y003302D01*
X028392Y003347D01*
X028417Y003391D01*
X028445Y003432D01*
X028477Y003471D01*
X028511Y003508D01*
X028548Y003542D01*
X028588Y003572D01*
X028630Y003599D01*
X028674Y003623D01*
X028720Y003644D01*
X028767Y003660D01*
X028815Y003673D01*
X028865Y003682D01*
X028914Y003687D01*
X028965Y003688D01*
X029015Y003685D01*
X029064Y003678D01*
X029113Y003667D01*
X029161Y003652D01*
X029207Y003634D01*
X029252Y003612D01*
X029295Y003586D01*
X029336Y003557D01*
X029375Y003525D01*
X029411Y003490D01*
X029443Y003452D01*
X029473Y003412D01*
X029500Y003369D01*
X029523Y003325D01*
X029542Y003279D01*
X029558Y003231D01*
X029570Y003182D01*
X029578Y003133D01*
X029582Y003083D01*
X029582Y003033D01*
X029578Y002983D01*
X029570Y002934D01*
X029558Y002885D01*
X029542Y002837D01*
X029523Y002791D01*
X029500Y002747D01*
X029473Y002704D01*
X029443Y002664D01*
X029411Y002626D01*
X029375Y002591D01*
X029336Y002559D01*
X029295Y002530D01*
X029252Y002504D01*
X029207Y002482D01*
X029161Y002464D01*
X029113Y002449D01*
X029064Y002438D01*
X029015Y002431D01*
X028965Y002428D01*
X028914Y002429D01*
X028865Y002434D01*
X028815Y002443D01*
X028767Y002456D01*
X028720Y002472D01*
X028674Y002493D01*
X028630Y002517D01*
X028588Y002544D01*
X028548Y002574D01*
X028511Y002608D01*
X028477Y002645D01*
X028445Y002684D01*
X028417Y002725D01*
X028392Y002769D01*
X028371Y002814D01*
X028354Y002861D01*
X028340Y002909D01*
X028330Y002958D01*
X028324Y003008D01*
X028322Y003058D01*
D11*
X027051Y003410D03*
X026051Y003410D03*
X025051Y003410D03*
X024051Y003410D03*
X023051Y003410D03*
X022051Y003410D03*
X020051Y003410D03*
X019051Y003410D03*
X018051Y003410D03*
X017051Y003410D03*
X016051Y003410D03*
X015051Y003410D03*
X015301Y022410D03*
X014301Y022410D03*
X013301Y022410D03*
X012301Y022410D03*
X011301Y022410D03*
X016301Y022410D03*
X017301Y022410D03*
X018301Y022410D03*
X020051Y022410D03*
X021051Y022410D03*
X022051Y022410D03*
X023051Y022410D03*
X024051Y022410D03*
X025051Y022410D03*
X026051Y022410D03*
X027051Y022410D03*
D12*
X011234Y007836D03*
X010234Y007836D03*
X010234Y004080D03*
X011234Y004080D03*
D13*
X024825Y006811D02*
X024825Y007671D01*
X025576Y009131D02*
X026436Y009131D01*
X027187Y007671D02*
X027187Y006811D01*
D14*
X007641Y006871D03*
X007641Y005871D03*
X007641Y004871D03*
X006641Y005371D03*
X006641Y006371D03*
X006641Y007371D03*
X006641Y008371D03*
X007641Y007871D03*
X007641Y010371D03*
X007641Y011371D03*
X007641Y012371D03*
X007641Y013371D03*
X006641Y013871D03*
X006641Y012871D03*
X006641Y011871D03*
X006641Y010871D03*
X007641Y015871D03*
X007641Y016871D03*
X007641Y017871D03*
X007641Y018871D03*
X006641Y019371D03*
X006641Y018371D03*
X006641Y017371D03*
X006641Y016371D03*
X007641Y021371D03*
X007641Y022371D03*
X007641Y023371D03*
X007641Y024371D03*
X006641Y024871D03*
X006641Y023871D03*
X006641Y022871D03*
X006641Y021871D03*
D15*
X010392Y013871D03*
X011140Y013871D03*
X011140Y012621D03*
X010392Y012621D03*
X010392Y011121D03*
X011140Y011121D03*
X011140Y009871D03*
X010392Y009871D03*
X018369Y010899D03*
X019117Y010899D03*
X019117Y012158D03*
X018369Y012158D03*
X018409Y013379D03*
X019157Y013379D03*
X019176Y014471D03*
X018428Y014471D03*
X021076Y017828D03*
X021824Y017828D03*
X021814Y019353D03*
X021066Y019353D03*
X023064Y014668D03*
X023812Y014668D03*
D16*
X024374Y013652D03*
X024374Y013152D03*
X024374Y012652D03*
X024374Y012152D03*
X024374Y011652D03*
X024374Y011152D03*
X024374Y010652D03*
X024374Y010152D03*
X020514Y010152D03*
X020514Y010652D03*
X020514Y011152D03*
X020514Y011652D03*
X020514Y012152D03*
X020514Y012652D03*
X020514Y013152D03*
X020514Y013652D03*
X015821Y015621D03*
X015821Y016121D03*
X015821Y016621D03*
X015821Y017121D03*
X015821Y017621D03*
X015821Y018121D03*
X015821Y018621D03*
X015821Y019121D03*
X013211Y019121D03*
X013211Y018621D03*
X013211Y018121D03*
X013211Y017621D03*
X013211Y017121D03*
X013211Y016621D03*
X013211Y016121D03*
X013211Y015621D03*
D17*
X021365Y008965D03*
X023334Y008965D03*
D18*
X025712Y011292D03*
X025712Y012040D03*
X017395Y019353D03*
X017395Y020101D03*
X009141Y021372D03*
X009141Y022120D03*
D19*
X016666Y019944D03*
X016666Y019353D03*
D20*
X022789Y018822D03*
X023537Y018822D03*
X023163Y019649D03*
X023172Y017946D03*
X022798Y017119D03*
X023546Y017119D03*
D21*
X027823Y016788D02*
X028533Y016788D01*
X028533Y014788D02*
X027823Y014788D01*
X027819Y012591D02*
X028529Y012591D01*
X028529Y010623D02*
X027819Y010623D01*
X027823Y018788D02*
X028533Y018788D01*
X028533Y020788D02*
X027823Y020788D01*
D22*
X028178Y018788D02*
X028696Y018822D01*
X025016Y021121D02*
X025016Y022375D01*
X025051Y022410D01*
X024141Y022371D02*
X024141Y022621D01*
X024016Y022496D01*
X024016Y020996D01*
X023249Y020229D01*
X019531Y020229D01*
X019016Y019714D01*
X019016Y017621D01*
X018016Y016621D01*
X015821Y016621D01*
X015821Y017121D02*
X017766Y017121D01*
X018516Y017871D01*
X018516Y019766D01*
X019353Y020603D01*
X022498Y020603D01*
X023016Y021121D01*
X023016Y022246D01*
X023141Y022371D01*
X023101Y022410D01*
X023051Y022410D01*
X022051Y022410D02*
X022051Y021281D01*
X021737Y020967D01*
X019176Y020967D01*
X018036Y019827D01*
X018036Y019291D01*
X018016Y017996D01*
X017641Y017621D01*
X015821Y017621D01*
X016391Y017621D01*
X015821Y018121D02*
X017391Y018121D01*
X017408Y018118D01*
X015821Y016121D02*
X015766Y016121D01*
X015821Y015621D02*
X016016Y015426D01*
X014141Y016371D02*
X013891Y016121D01*
X013211Y016121D01*
X009641Y016121D01*
X008891Y016871D01*
X007641Y016871D01*
X007641Y017871D02*
X010016Y017871D01*
X011266Y016621D01*
X013211Y016621D01*
X013211Y017121D02*
X011641Y017121D01*
X010391Y018371D01*
X010766Y018871D02*
X012016Y017621D01*
X013211Y017621D01*
X012766Y017621D01*
X013211Y018121D02*
X012266Y018121D01*
X013211Y019121D02*
X013891Y019121D01*
X014141Y018871D01*
X014141Y016371D01*
X013211Y015621D02*
X010670Y015621D01*
X008989Y013940D01*
X007697Y013940D01*
X005766Y015871D01*
X006641Y017371D02*
X008891Y017371D01*
X007641Y018871D02*
X010766Y018871D01*
X009141Y021372D02*
X008515Y021372D01*
X008391Y021496D01*
X008391Y022121D01*
X008141Y022371D01*
X007641Y022371D01*
X008892Y022870D02*
X009141Y022621D01*
X009141Y022120D01*
X009141Y022576D01*
X009176Y022611D01*
X010308Y022611D01*
X011184Y023487D01*
X018975Y023487D01*
X020051Y022410D01*
X019918Y022410D01*
X018192Y020938D02*
X018172Y020918D01*
X016301Y022140D02*
X016301Y022410D01*
X012301Y022406D02*
X012266Y022371D01*
X006641Y019371D02*
X006391Y019371D01*
X006641Y013871D02*
X006516Y013746D01*
X006641Y013871D02*
X006641Y012871D01*
X006641Y011871D01*
X006641Y010871D01*
X007016Y008496D02*
X006891Y008371D01*
X006641Y008371D01*
X010234Y007839D02*
X010234Y007836D01*
X010234Y007839D02*
X010266Y007871D01*
X010266Y008121D01*
X011234Y007839D02*
X011234Y007836D01*
X011234Y007839D02*
X011266Y007871D01*
X010641Y009121D02*
X010391Y009371D01*
X010391Y009871D01*
X010392Y009871D01*
X010516Y009871D01*
X011140Y009871D02*
X011789Y009871D01*
X011794Y009865D01*
X010641Y010496D02*
X013266Y010496D01*
X018516Y005246D01*
X024516Y005246D01*
X025051Y004711D01*
X025051Y003410D01*
X024051Y003410D02*
X024051Y004586D01*
X023766Y004871D01*
X018325Y004851D01*
X014075Y009101D01*
X010641Y009121D01*
X010641Y010496D02*
X010391Y010746D01*
X010391Y010996D01*
X010516Y011121D01*
X010392Y011121D01*
X011140Y011121D02*
X011779Y011121D01*
X011794Y011105D01*
X012516Y011996D02*
X010641Y011996D01*
X010391Y012246D01*
X010391Y012496D01*
X010516Y012621D01*
X010392Y012621D01*
X010641Y013246D02*
X012766Y013246D01*
X013391Y012621D01*
X013391Y011621D01*
X019016Y005996D01*
X026516Y005996D01*
X027051Y005461D01*
X027051Y003410D01*
X026051Y003410D02*
X026051Y004961D01*
X025391Y005621D01*
X018766Y005621D01*
X012516Y011996D01*
X011834Y012631D02*
X011150Y012631D01*
X011140Y012621D01*
X010641Y013246D02*
X010391Y013496D01*
X010391Y013871D01*
X010392Y013871D01*
X010516Y013871D01*
X010391Y013871D01*
X011140Y013871D02*
X011824Y013871D01*
X011834Y013881D01*
X018399Y013369D02*
X018399Y013054D01*
X018694Y012759D01*
X019787Y012759D01*
X019893Y012652D01*
X020514Y012652D01*
X020514Y012152D02*
X019123Y012152D01*
X019117Y012158D01*
X018369Y012158D02*
X018369Y011774D01*
X018576Y011568D01*
X019777Y011568D01*
X019861Y011652D01*
X020514Y011652D01*
X020514Y011152D02*
X019371Y011152D01*
X019117Y010899D01*
X019157Y013379D02*
X019430Y013652D01*
X018409Y013379D02*
X018399Y013369D01*
X023074Y014176D02*
X023074Y014619D01*
X023035Y014658D01*
X023064Y014668D02*
X023172Y014776D01*
X023172Y017946D01*
X023163Y017956D01*
X023163Y019649D01*
X021066Y019353D02*
X021066Y018694D01*
X021056Y018684D01*
X020318Y018782D02*
X020318Y018586D01*
X020131Y019599D02*
X020131Y019757D01*
X024051Y022410D02*
X024101Y022410D01*
X024141Y022371D01*
X023074Y014176D02*
X023598Y013652D01*
X024374Y013652D01*
X024362Y011164D02*
X024374Y011152D01*
X024788Y007351D02*
X024825Y007241D01*
X019051Y003410D02*
X019047Y003406D01*
X018055Y003410D02*
X018051Y003406D01*
X018051Y003410D01*
X018051Y003406D02*
X018016Y003371D01*
X011234Y003902D02*
X011234Y004080D01*
D23*
X010234Y004080D02*
X010234Y005089D01*
X012266Y007121D01*
X011266Y007121D02*
X011266Y007871D01*
X011266Y007121D02*
X011016Y006871D01*
X009141Y006871D01*
X008141Y007871D01*
X007641Y007871D01*
X007016Y008496D02*
X009891Y008496D01*
X010266Y008121D01*
X010391Y009871D02*
X009560Y009871D01*
X009060Y010371D01*
X007641Y010371D01*
X008641Y011121D02*
X010392Y011121D01*
X010392Y012621D02*
X008641Y012621D01*
X008391Y012371D01*
X007641Y012371D01*
X007641Y011371D02*
X008391Y011371D01*
X008641Y011121D01*
X007641Y013371D02*
X010016Y013371D01*
X010516Y013871D01*
X006641Y013871D02*
X005266Y015246D01*
X005266Y021996D01*
X005641Y022371D01*
X006141Y019371D02*
X005766Y018996D01*
X005766Y015871D01*
X006141Y019371D02*
X006391Y019371D01*
X013301Y022410D02*
X013812Y021899D01*
X013812Y020810D01*
X014127Y020495D01*
X016981Y020495D01*
X017375Y020101D01*
X017395Y020101D01*
X017395Y019353D02*
X016666Y019353D01*
X016666Y019944D02*
X016017Y019944D01*
X015820Y019747D01*
X015820Y019122D01*
X015821Y019121D01*
X017139Y020918D02*
X018172Y020918D01*
X017139Y020918D02*
X016785Y021273D01*
X016785Y021656D01*
X016301Y022140D01*
X019472Y018940D02*
X019472Y017040D01*
X022141Y014371D01*
X022141Y011621D01*
X022598Y011164D01*
X024362Y011164D01*
X025712Y012040D02*
X025100Y012652D01*
X024374Y012652D01*
X025712Y012040D02*
X025993Y012040D01*
X027448Y010585D01*
X027414Y010584D01*
X027448Y010585D02*
X028174Y010623D01*
X024788Y007512D02*
X023334Y008965D01*
X024788Y007512D02*
X024788Y007351D01*
X021365Y008965D02*
X020830Y009501D01*
X019983Y009501D01*
X019491Y009993D01*
X018645Y009993D01*
X018369Y010269D01*
X018369Y010899D01*
X020514Y013152D02*
X021184Y013152D01*
X021411Y013379D01*
X021411Y014127D01*
X021066Y014471D01*
X019176Y014471D01*
X018428Y014471D02*
X017729Y014471D01*
X017090Y015111D01*
X017080Y015121D01*
X016016Y015121D01*
X016016Y015426D01*
X016016Y015121D02*
X015641Y014746D01*
X015266Y014746D01*
X019430Y013652D02*
X020514Y013652D01*
X022592Y015141D02*
X023064Y014668D01*
X022592Y015141D02*
X022592Y015406D01*
X022533Y017119D02*
X021824Y017828D01*
X021076Y017828D02*
X020318Y018586D01*
X019472Y018940D02*
X020131Y019599D01*
X021814Y019353D02*
X022257Y019353D01*
X022789Y018822D01*
X023537Y018822D02*
X028696Y018822D01*
X028399Y017119D02*
X028178Y016788D01*
X028399Y017119D02*
X023546Y017119D01*
X022798Y017119D02*
X022533Y017119D01*
D24*
X016096Y006233D02*
X017051Y005277D01*
X017051Y003410D01*
X018051Y003406D02*
X019047Y003406D01*
D25*
X001529Y000613D02*
X001529Y026834D01*
X002109Y027414D01*
X002149Y027404D01*
X010918Y027404D01*
X014009Y024314D01*
X029294Y024314D01*
X030151Y023458D01*
X030151Y002710D01*
X029039Y001597D01*
X005544Y001597D01*
X004117Y000170D01*
X001972Y000170D01*
X001529Y000613D01*
X001529Y000761D02*
X002410Y000761D01*
X002420Y000735D02*
X002659Y000496D01*
X002972Y000366D01*
X003310Y000366D01*
X003622Y000496D01*
X003861Y000735D01*
X003991Y001047D01*
X003991Y001385D01*
X003861Y001698D01*
X003622Y001937D01*
X003310Y002066D01*
X002972Y002066D01*
X002659Y001937D01*
X002420Y001698D01*
X002291Y001385D01*
X002291Y001047D01*
X002420Y000735D01*
X002351Y000903D02*
X002351Y000170D01*
X002671Y000170D02*
X002671Y000491D01*
X002792Y000441D02*
X001701Y000441D01*
X001711Y000431D02*
X001711Y002759D01*
X001658Y002811D02*
X001886Y002583D01*
X002184Y002460D01*
X002507Y002460D01*
X002805Y002583D01*
X003033Y002811D01*
X003156Y003109D01*
X003156Y003432D01*
X003033Y003730D01*
X002805Y003958D01*
X002507Y004081D01*
X002184Y004081D01*
X001886Y003958D01*
X001658Y003730D01*
X001535Y003432D01*
X001535Y003109D01*
X001658Y002811D01*
X001529Y002681D02*
X001789Y002681D01*
X002031Y002524D02*
X002031Y000170D01*
X002291Y001081D02*
X001529Y001081D01*
X001529Y001401D02*
X002297Y001401D01*
X002351Y001530D02*
X002351Y002460D01*
X002671Y002528D02*
X002671Y001942D01*
X002911Y002041D02*
X001529Y002041D01*
X001529Y002361D02*
X028447Y002361D01*
X028470Y002337D02*
X028783Y002208D01*
X029121Y002208D01*
X029433Y002337D01*
X029672Y002576D01*
X029802Y002889D01*
X029802Y003227D01*
X029672Y003539D01*
X029433Y003778D01*
X029121Y003908D01*
X028783Y003908D01*
X028470Y003778D01*
X028231Y003539D01*
X028102Y003227D01*
X028102Y002889D01*
X028231Y002576D01*
X028470Y002337D01*
X028591Y002288D02*
X028591Y001597D01*
X028911Y001597D02*
X028911Y002208D01*
X029231Y002254D02*
X029231Y001790D01*
X029162Y001721D02*
X003838Y001721D01*
X003951Y001482D02*
X003951Y003519D01*
X003970Y003511D02*
X004312Y003511D01*
X004628Y003642D01*
X004870Y003884D01*
X005001Y004200D01*
X005001Y004542D01*
X004870Y004858D01*
X004628Y005100D01*
X004312Y005231D01*
X003970Y005231D01*
X003654Y005100D01*
X003412Y004858D01*
X003281Y004542D01*
X003281Y004200D01*
X003412Y003884D01*
X003654Y003642D01*
X003970Y003511D01*
X004271Y003511D02*
X004271Y000324D01*
X004388Y000441D02*
X003490Y000441D01*
X003631Y000504D02*
X003631Y000170D01*
X003311Y000170D02*
X003311Y000367D01*
X002991Y000366D02*
X002991Y000170D01*
X003872Y000761D02*
X004708Y000761D01*
X004591Y000644D02*
X004591Y003627D01*
X004625Y003641D02*
X009706Y003641D01*
X009711Y003636D02*
X009711Y001597D01*
X009391Y001597D02*
X009391Y006531D01*
X009073Y006531D02*
X010948Y006531D01*
X011084Y006531D01*
X011208Y006583D01*
X011458Y006833D01*
X011554Y006928D01*
X011606Y007053D01*
X011606Y007310D01*
X011676Y007310D01*
X011805Y007439D01*
X011805Y008232D01*
X011676Y008361D01*
X010793Y008361D01*
X010734Y008302D01*
X010676Y008361D01*
X010507Y008361D01*
X010083Y008784D01*
X009959Y008836D01*
X009823Y008836D01*
X008851Y008836D01*
X008928Y008914D01*
X009052Y009212D01*
X009052Y009534D01*
X008928Y009832D01*
X008729Y010031D01*
X008919Y010031D01*
X009368Y009583D01*
X009492Y009531D01*
X009628Y009531D01*
X009916Y009531D01*
X009916Y009485D01*
X010045Y009356D01*
X010091Y009356D01*
X010091Y009311D01*
X010137Y009201D01*
X010221Y009117D01*
X010427Y008910D01*
X010469Y008868D01*
X010470Y008867D01*
X010471Y008867D01*
X010527Y008844D01*
X010579Y008821D01*
X010580Y008821D01*
X010581Y008821D01*
X010641Y008821D01*
X013950Y008802D01*
X016081Y006671D01*
X016008Y006671D01*
X015847Y006605D01*
X015724Y006481D01*
X015657Y006320D01*
X015657Y006146D01*
X015724Y005985D01*
X015847Y005862D01*
X015988Y005804D01*
X016671Y005120D01*
X016671Y003734D01*
X016554Y003616D01*
X016554Y003204D01*
X016845Y002913D01*
X017257Y002913D01*
X017549Y003204D01*
X017549Y003616D01*
X017431Y003734D01*
X017431Y005202D01*
X017431Y005321D01*
X018071Y004681D01*
X018071Y004680D01*
X018111Y004641D01*
X018155Y004597D01*
X018156Y004597D01*
X018156Y004596D01*
X018209Y004575D01*
X018265Y004551D01*
X018266Y004551D01*
X018321Y004551D01*
X018385Y004551D01*
X018385Y004551D01*
X023642Y004571D01*
X023751Y004461D01*
X023751Y003814D01*
X023554Y003616D01*
X023554Y003204D01*
X023845Y002913D01*
X024257Y002913D01*
X024549Y003204D01*
X024549Y003616D01*
X024351Y003814D01*
X024351Y004526D01*
X024351Y004645D01*
X024306Y004755D01*
X024115Y004946D01*
X024392Y004946D01*
X024751Y004586D01*
X024751Y003814D01*
X024554Y003616D01*
X024554Y003204D01*
X024845Y002913D01*
X025257Y002913D01*
X025549Y003204D01*
X025549Y003616D01*
X025351Y003814D01*
X025351Y004651D01*
X025351Y004770D01*
X025306Y004880D01*
X024865Y005321D01*
X025267Y005321D01*
X025751Y004836D01*
X025751Y003814D01*
X025554Y003616D01*
X025554Y003204D01*
X025845Y002913D01*
X026257Y002913D01*
X026549Y003204D01*
X026549Y003616D01*
X026351Y003814D01*
X026351Y004901D01*
X026351Y005020D01*
X026306Y005130D01*
X025740Y005696D01*
X026392Y005696D01*
X026751Y005336D01*
X026751Y003814D01*
X026554Y003616D01*
X026554Y003204D01*
X026845Y002913D01*
X027257Y002913D01*
X027549Y003204D01*
X027549Y003616D01*
X027351Y003814D01*
X027351Y005520D01*
X027306Y005630D01*
X027221Y005715D01*
X026770Y006166D01*
X026686Y006250D01*
X026576Y006296D01*
X025229Y006296D01*
X025376Y006443D01*
X025475Y006682D01*
X025475Y007800D01*
X025376Y008039D01*
X025193Y008222D01*
X024954Y008321D01*
X024696Y008321D01*
X024528Y008252D01*
X024026Y008754D01*
X024026Y009529D01*
X023897Y009658D01*
X022770Y009658D01*
X022641Y009529D01*
X022641Y008402D01*
X022770Y008273D01*
X023545Y008273D01*
X024175Y007643D01*
X024175Y006682D01*
X024274Y006443D01*
X024421Y006296D01*
X019140Y006296D01*
X013691Y011745D01*
X013691Y012561D01*
X013691Y012681D01*
X013645Y012791D01*
X013020Y013416D01*
X012936Y013500D01*
X012826Y013546D01*
X011556Y013546D01*
X011556Y013811D01*
X011200Y013811D01*
X011200Y013931D01*
X011556Y013931D01*
X011556Y014232D01*
X011462Y014326D01*
X011200Y014326D01*
X011200Y013931D01*
X011080Y013931D01*
X011080Y014326D01*
X010818Y014326D01*
X010808Y014317D01*
X010739Y014386D01*
X010045Y014386D01*
X009916Y014257D01*
X009916Y013752D01*
X009875Y013711D01*
X009185Y013711D01*
X009244Y013770D01*
X010795Y015321D01*
X012670Y015321D01*
X012720Y015271D01*
X013702Y015271D01*
X013831Y015400D01*
X013831Y015821D01*
X013951Y015821D01*
X014061Y015867D01*
X014145Y015951D01*
X014395Y016201D01*
X014441Y016311D01*
X014441Y016431D01*
X014441Y018931D01*
X014395Y019041D01*
X014311Y019125D01*
X014061Y019375D01*
X013951Y019421D01*
X013831Y019421D01*
X013752Y019421D01*
X013702Y019471D01*
X012720Y019471D01*
X012591Y019342D01*
X012591Y022081D01*
X012482Y021973D02*
X012739Y022229D01*
X012739Y022391D01*
X012320Y022391D01*
X012320Y021973D01*
X012482Y021973D01*
X012282Y021973D02*
X012282Y022391D01*
X011864Y022391D01*
X011864Y022229D01*
X012120Y021973D01*
X012282Y021973D01*
X012271Y021973D02*
X012271Y018559D01*
X012353Y018559D02*
X012179Y018559D01*
X012018Y018492D01*
X011894Y018369D01*
X011835Y018226D01*
X010936Y019125D01*
X010826Y019171D01*
X010706Y019171D01*
X008072Y019171D01*
X007934Y019309D01*
X007744Y019388D01*
X007538Y019388D01*
X007348Y019309D01*
X007202Y019164D01*
X007124Y018974D01*
X007124Y018768D01*
X007172Y018651D01*
X007085Y018651D01*
X007079Y018664D01*
X006934Y018809D01*
X006785Y018871D01*
X006934Y018933D01*
X007079Y019078D01*
X007158Y019268D01*
X007158Y019474D01*
X007079Y019664D01*
X006934Y019809D01*
X006744Y019888D01*
X006538Y019888D01*
X006348Y019809D01*
X006250Y019711D01*
X006073Y019711D01*
X005948Y019659D01*
X005853Y019564D01*
X005853Y019563D01*
X005606Y019317D01*
X005606Y021855D01*
X005842Y022091D01*
X006172Y022091D01*
X006124Y021974D01*
X006124Y021768D01*
X006202Y021578D01*
X006348Y021433D01*
X006538Y021354D01*
X006744Y021354D01*
X006934Y021433D01*
X007079Y021578D01*
X007158Y021768D01*
X007158Y021974D01*
X007109Y022091D01*
X007197Y022091D01*
X007202Y022078D01*
X007348Y021933D01*
X007497Y021871D01*
X007348Y021809D01*
X007202Y021664D01*
X007124Y021474D01*
X007124Y021268D01*
X007202Y021078D01*
X007348Y020933D01*
X007538Y020854D01*
X007592Y020854D01*
X007554Y020816D01*
X007431Y020518D01*
X007431Y020196D01*
X007554Y019898D01*
X007782Y019670D01*
X008080Y019547D01*
X008402Y019547D01*
X008700Y019670D01*
X008928Y019898D01*
X009052Y020196D01*
X009052Y020518D01*
X008928Y020816D01*
X008849Y020896D01*
X009527Y020896D01*
X009656Y021025D01*
X009656Y021719D01*
X009629Y021746D01*
X009656Y021773D01*
X009656Y022311D01*
X010248Y022311D01*
X010368Y022311D01*
X010478Y022357D01*
X011308Y023187D01*
X018850Y023187D01*
X019554Y022484D01*
X019554Y022204D01*
X019845Y021913D01*
X020257Y021913D01*
X020549Y022204D01*
X020549Y022616D01*
X020257Y022908D01*
X019978Y022908D01*
X019144Y023741D01*
X019034Y023787D01*
X018915Y023787D01*
X011124Y023787D01*
X011014Y023741D01*
X010930Y023657D01*
X010184Y022911D01*
X009275Y022911D01*
X009062Y023124D01*
X008952Y023170D01*
X008832Y023170D01*
X008784Y023150D01*
X008109Y023150D01*
X008158Y023268D01*
X008158Y023474D01*
X008079Y023664D01*
X007934Y023809D01*
X007785Y023871D01*
X007934Y023933D01*
X008079Y024078D01*
X008158Y024268D01*
X008158Y024474D01*
X008079Y024664D01*
X007934Y024809D01*
X007744Y024888D01*
X007538Y024888D01*
X007348Y024809D01*
X007202Y024664D01*
X007124Y024474D01*
X007124Y024268D01*
X007202Y024078D01*
X007348Y023933D01*
X007497Y023871D01*
X007348Y023809D01*
X007202Y023664D01*
X007124Y023474D01*
X007124Y023268D01*
X007173Y023150D01*
X007085Y023150D01*
X007079Y023164D01*
X006934Y023309D01*
X006744Y023388D01*
X006538Y023388D01*
X006348Y023309D01*
X006202Y023164D01*
X006124Y022974D01*
X006124Y022768D01*
X006172Y022651D01*
X005842Y022651D01*
X005833Y022659D01*
X005709Y022711D01*
X005573Y022711D01*
X005448Y022659D01*
X005073Y022284D01*
X004978Y022189D01*
X004926Y022064D01*
X004926Y015178D01*
X004978Y015053D01*
X005073Y014958D01*
X005073Y014958D01*
X006124Y013907D01*
X006124Y013768D01*
X006202Y013578D01*
X006341Y013440D01*
X006341Y013302D01*
X006202Y013164D01*
X006124Y012974D01*
X006124Y012768D01*
X006202Y012578D01*
X006341Y012440D01*
X006341Y012302D01*
X006202Y012164D01*
X006124Y011974D01*
X006124Y011768D01*
X006202Y011578D01*
X006341Y011440D01*
X006341Y011302D01*
X006202Y011164D01*
X006124Y010974D01*
X006124Y010768D01*
X006202Y010578D01*
X006348Y010433D01*
X006538Y010354D01*
X006744Y010354D01*
X006934Y010433D01*
X007079Y010578D01*
X007158Y010768D01*
X007158Y010974D01*
X007079Y011164D01*
X006941Y011302D01*
X006941Y011440D01*
X007079Y011578D01*
X007158Y011768D01*
X007158Y011974D01*
X007079Y012164D01*
X006941Y012302D01*
X006941Y012440D01*
X007079Y012578D01*
X007158Y012768D01*
X007158Y012974D01*
X007079Y013164D01*
X006941Y013302D01*
X006941Y013440D01*
X007079Y013578D01*
X007158Y013768D01*
X007158Y013974D01*
X007101Y014112D01*
X007387Y013826D01*
X007348Y013809D01*
X007202Y013664D01*
X007124Y013474D01*
X007124Y013268D01*
X007202Y013078D01*
X007348Y012933D01*
X007497Y012871D01*
X007348Y012809D01*
X007202Y012664D01*
X007124Y012474D01*
X007124Y012268D01*
X007202Y012078D01*
X007348Y011933D01*
X007497Y011871D01*
X007348Y011809D01*
X007202Y011664D01*
X007124Y011474D01*
X007124Y011268D01*
X007202Y011078D01*
X007348Y010933D01*
X007497Y010871D01*
X007348Y010809D01*
X007202Y010664D01*
X007124Y010474D01*
X007124Y010268D01*
X007202Y010078D01*
X007348Y009933D01*
X007538Y009854D01*
X007576Y009854D01*
X007554Y009832D01*
X007431Y009534D01*
X007431Y009212D01*
X007554Y008914D01*
X007632Y008836D01*
X006948Y008836D01*
X006909Y008820D01*
X006744Y008888D01*
X006538Y008888D01*
X006348Y008809D01*
X006202Y008664D01*
X006124Y008474D01*
X006124Y008268D01*
X006202Y008078D01*
X006348Y007933D01*
X006497Y007871D01*
X006348Y007809D01*
X006202Y007664D01*
X006124Y007474D01*
X006124Y007268D01*
X006202Y007078D01*
X006348Y006933D01*
X006497Y006871D01*
X006348Y006809D01*
X006202Y006664D01*
X006124Y006474D01*
X006124Y006268D01*
X006202Y006078D01*
X006348Y005933D01*
X006497Y005871D01*
X006348Y005809D01*
X006202Y005664D01*
X006124Y005474D01*
X006124Y005268D01*
X006202Y005078D01*
X006348Y004933D01*
X006538Y004854D01*
X006744Y004854D01*
X006934Y004933D01*
X007079Y005078D01*
X007158Y005268D01*
X007158Y005474D01*
X007079Y005664D01*
X006934Y005809D01*
X006785Y005871D01*
X006934Y005933D01*
X007079Y006078D01*
X007158Y006268D01*
X007158Y006474D01*
X007079Y006664D01*
X006934Y006809D01*
X006785Y006871D01*
X006934Y006933D01*
X007079Y007078D01*
X007158Y007268D01*
X007158Y007474D01*
X007079Y007664D01*
X006934Y007809D01*
X006785Y007871D01*
X006934Y007933D01*
X007079Y008078D01*
X007112Y008156D01*
X007199Y008156D01*
X007124Y007974D01*
X007124Y007768D01*
X007202Y007578D01*
X007348Y007433D01*
X007497Y007371D01*
X007348Y007309D01*
X007202Y007164D01*
X007124Y006974D01*
X007124Y006768D01*
X007202Y006578D01*
X007348Y006433D01*
X007497Y006371D01*
X007348Y006309D01*
X007202Y006164D01*
X007124Y005974D01*
X007124Y005768D01*
X007202Y005578D01*
X007348Y005433D01*
X007497Y005371D01*
X007348Y005309D01*
X007202Y005164D01*
X007124Y004974D01*
X007124Y004768D01*
X007202Y004578D01*
X007348Y004433D01*
X007538Y004354D01*
X007744Y004354D01*
X007934Y004433D01*
X008079Y004578D01*
X008158Y004768D01*
X008158Y004974D01*
X008079Y005164D01*
X007934Y005309D01*
X007785Y005371D01*
X007934Y005433D01*
X008079Y005578D01*
X008158Y005768D01*
X008158Y005974D01*
X008079Y006164D01*
X007934Y006309D01*
X007785Y006371D01*
X007934Y006433D01*
X008079Y006578D01*
X008158Y006768D01*
X008158Y006974D01*
X008079Y007164D01*
X007934Y007309D01*
X007785Y007371D01*
X007934Y007433D01*
X008016Y007515D01*
X008853Y006678D01*
X008948Y006583D01*
X009073Y006531D01*
X009071Y006532D02*
X009071Y001597D01*
X008751Y001597D02*
X008751Y006780D01*
X008690Y006841D02*
X008158Y006841D01*
X008111Y006654D02*
X008111Y006088D01*
X008042Y006201D02*
X010865Y006201D01*
X010991Y006327D02*
X010991Y006531D01*
X011185Y006521D02*
X008022Y006521D01*
X007791Y006373D02*
X007791Y006369D01*
X007471Y006360D02*
X007471Y006382D01*
X007259Y006521D02*
X007139Y006521D01*
X007151Y006491D02*
X007151Y006702D01*
X007124Y006841D02*
X006857Y006841D01*
X006831Y006852D02*
X006831Y006890D01*
X007151Y007039D02*
X007151Y007251D01*
X007114Y007161D02*
X007201Y007161D01*
X007471Y007360D02*
X007471Y007382D01*
X007299Y007481D02*
X007155Y007481D01*
X007151Y007491D02*
X007151Y007702D01*
X007124Y007801D02*
X006942Y007801D01*
X006831Y007852D02*
X006831Y007890D01*
X007097Y008121D02*
X007185Y008121D01*
X007151Y008156D02*
X007151Y008039D01*
X007151Y008836D02*
X007151Y010202D01*
X007124Y010361D02*
X006761Y010361D01*
X006831Y010390D02*
X006831Y008852D01*
X006511Y008877D02*
X006511Y010365D01*
X006521Y010361D02*
X001529Y010361D01*
X001529Y010681D02*
X006160Y010681D01*
X006191Y010606D02*
X006191Y008636D01*
X006300Y008761D02*
X001529Y008761D01*
X001529Y009081D02*
X007485Y009081D01*
X007471Y009115D02*
X007471Y008836D01*
X007431Y009401D02*
X001529Y009401D01*
X001529Y009721D02*
X007508Y009721D01*
X007471Y009631D02*
X007471Y009882D01*
X007239Y010041D02*
X001529Y010041D01*
X001529Y011001D02*
X006135Y011001D01*
X006191Y011136D02*
X006191Y011606D01*
X006176Y011641D02*
X001529Y011641D01*
X001529Y011961D02*
X006124Y011961D01*
X006191Y012136D02*
X006191Y012606D01*
X006193Y012601D02*
X001529Y012601D01*
X001529Y012921D02*
X006124Y012921D01*
X006191Y013136D02*
X006191Y013606D01*
X006219Y013561D02*
X001529Y013561D01*
X001529Y013881D02*
X006124Y013881D01*
X005871Y014160D02*
X005871Y001597D01*
X006191Y001597D02*
X006191Y005106D01*
X006135Y005241D02*
X001529Y005241D01*
X001529Y004921D02*
X003475Y004921D01*
X003631Y005077D02*
X003631Y024665D01*
X003654Y024642D02*
X003412Y024884D01*
X003281Y025200D01*
X003281Y025542D01*
X003412Y025858D01*
X003654Y026100D01*
X003970Y026231D01*
X004312Y026231D01*
X004628Y026100D01*
X004870Y025858D01*
X005001Y025542D01*
X005001Y025200D01*
X004870Y024884D01*
X004628Y024642D01*
X004312Y024511D01*
X003970Y024511D01*
X003654Y024642D01*
X003535Y024761D02*
X001529Y024761D01*
X001529Y025081D02*
X003330Y025081D01*
X003311Y025128D02*
X003311Y004614D01*
X003306Y004601D02*
X001529Y004601D01*
X001529Y004281D02*
X003281Y004281D01*
X003311Y004128D02*
X003311Y002066D01*
X003371Y002041D02*
X029482Y002041D01*
X029551Y002110D02*
X029551Y002455D01*
X029457Y002361D02*
X029802Y002361D01*
X029871Y002430D02*
X029871Y023737D01*
X029807Y023801D02*
X007942Y023801D01*
X007791Y023869D02*
X007791Y023873D01*
X007471Y023860D02*
X007471Y023882D01*
X007340Y023801D02*
X007098Y023801D01*
X007098Y023780D02*
X007098Y023842D01*
X006670Y023842D01*
X006670Y023900D01*
X007098Y023900D01*
X007098Y023962D01*
X007028Y024130D01*
X006900Y024258D01*
X006732Y024328D01*
X006669Y024328D01*
X006669Y023900D01*
X006612Y023900D01*
X006612Y024328D01*
X006550Y024328D01*
X006382Y024258D01*
X006253Y024130D01*
X006184Y023962D01*
X006184Y023900D01*
X006612Y023900D01*
X006612Y023842D01*
X006669Y023842D01*
X006669Y023414D01*
X006732Y023414D01*
X006900Y023483D01*
X007028Y023612D01*
X007098Y023780D01*
X007151Y023539D02*
X007151Y024202D01*
X007185Y024121D02*
X007032Y024121D01*
X006831Y024287D02*
X006831Y024390D01*
X006744Y024354D02*
X006934Y024433D01*
X007079Y024578D01*
X007158Y024768D01*
X007158Y024974D01*
X007079Y025164D01*
X006934Y025309D01*
X006744Y025388D01*
X006538Y025388D01*
X006348Y025309D01*
X006202Y025164D01*
X006124Y024974D01*
X006124Y024768D01*
X006202Y024578D01*
X006348Y024433D01*
X006538Y024354D01*
X006744Y024354D01*
X006942Y024441D02*
X007124Y024441D01*
X007151Y024539D02*
X007151Y024751D01*
X007155Y024761D02*
X007300Y024761D01*
X007471Y024860D02*
X007471Y027404D01*
X007791Y027404D02*
X007791Y024869D01*
X007982Y024761D02*
X013562Y024761D01*
X013551Y024772D02*
X013551Y023787D01*
X013871Y023787D02*
X013871Y024452D01*
X013882Y024441D02*
X008158Y024441D01*
X008111Y024588D02*
X008111Y027404D01*
X008431Y027404D02*
X008431Y023150D01*
X008114Y023161D02*
X008810Y023161D01*
X008751Y023150D02*
X008751Y027404D01*
X009071Y027404D02*
X009071Y023115D01*
X008973Y023161D02*
X010434Y023161D01*
X010351Y023078D02*
X010351Y025288D01*
X010310Y025271D02*
X010622Y025400D01*
X010861Y025639D01*
X010991Y025952D01*
X010991Y026290D01*
X010861Y026602D01*
X010622Y026841D01*
X010310Y026971D01*
X009972Y026971D01*
X009659Y026841D01*
X009420Y026602D01*
X009291Y026290D01*
X009291Y025952D01*
X009420Y025639D01*
X009659Y025400D01*
X009972Y025271D01*
X010310Y025271D01*
X010031Y025271D02*
X010031Y022911D01*
X009711Y022911D02*
X009711Y025379D01*
X009659Y025401D02*
X005001Y025401D01*
X004926Y025721D02*
X009387Y025721D01*
X009391Y025711D02*
X009391Y022911D01*
X008892Y022870D02*
X006641Y022870D01*
X006641Y022871D01*
X006124Y022841D02*
X001529Y022841D01*
X001529Y023161D02*
X006201Y023161D01*
X006191Y023136D02*
X006191Y023763D01*
X006184Y023780D02*
X006253Y023612D01*
X006382Y023483D01*
X006550Y023414D01*
X006612Y023414D01*
X006612Y023842D01*
X006184Y023842D01*
X006184Y023780D01*
X006184Y023801D02*
X001529Y023801D01*
X001529Y024121D02*
X006250Y024121D01*
X006191Y023979D02*
X006191Y024606D01*
X006127Y024761D02*
X004747Y024761D01*
X004591Y024627D02*
X004591Y005115D01*
X004807Y004921D02*
X006376Y004921D01*
X006511Y004865D02*
X006511Y001597D01*
X006831Y001597D02*
X006831Y004890D01*
X006906Y004921D02*
X007124Y004921D01*
X007151Y005039D02*
X007151Y005251D01*
X007147Y005241D02*
X007280Y005241D01*
X007471Y005360D02*
X007471Y005382D01*
X007219Y005561D02*
X007122Y005561D01*
X007151Y005491D02*
X007151Y005702D01*
X007124Y005881D02*
X006809Y005881D01*
X006831Y005890D02*
X006831Y005852D01*
X006472Y005881D02*
X001529Y005881D01*
X001529Y006201D02*
X006151Y006201D01*
X006191Y006106D02*
X006191Y005636D01*
X006160Y005561D02*
X001529Y005561D01*
X001529Y006521D02*
X006143Y006521D01*
X006191Y006636D02*
X006191Y007106D01*
X006168Y007161D02*
X001529Y007161D01*
X001529Y006841D02*
X006424Y006841D01*
X007151Y006251D02*
X007151Y006039D01*
X007130Y006201D02*
X007240Y006201D01*
X008158Y005881D02*
X010545Y005881D01*
X010671Y006007D02*
X010671Y006531D01*
X010351Y006531D02*
X010351Y005687D01*
X010225Y005561D02*
X008062Y005561D01*
X008111Y005654D02*
X008111Y005088D01*
X008158Y004921D02*
X009894Y004921D01*
X009894Y005022D02*
X009894Y004605D01*
X009793Y004605D01*
X009664Y004476D01*
X009664Y003683D01*
X009793Y003554D01*
X010676Y003554D01*
X010777Y003655D01*
X010818Y003614D01*
X011174Y003614D01*
X011174Y004019D01*
X011294Y004019D01*
X011294Y003614D01*
X011651Y003614D01*
X011745Y003708D01*
X011745Y004020D01*
X011294Y004020D01*
X011294Y004139D01*
X011745Y004139D01*
X011745Y004451D01*
X011651Y004545D01*
X011294Y004545D01*
X011294Y004140D01*
X011174Y004140D01*
X011174Y004545D01*
X010818Y004545D01*
X010777Y004504D01*
X010676Y004605D01*
X010574Y004605D01*
X010574Y004949D01*
X012309Y006683D01*
X012353Y006683D01*
X012514Y006750D01*
X012637Y006873D01*
X012704Y007034D01*
X012704Y007208D01*
X012637Y007369D01*
X012514Y007492D01*
X012353Y007559D01*
X012179Y007559D01*
X012018Y007492D01*
X011894Y007369D01*
X011828Y007208D01*
X011828Y007164D01*
X009946Y005282D01*
X009894Y005157D01*
X009894Y005022D01*
X009929Y005241D02*
X008002Y005241D01*
X007791Y005369D02*
X007791Y005373D01*
X007151Y004702D02*
X007151Y001597D01*
X007471Y001597D02*
X007471Y004382D01*
X007791Y004373D02*
X007791Y001597D01*
X008111Y001597D02*
X008111Y004654D01*
X008089Y004601D02*
X009789Y004601D01*
X009711Y004523D02*
X009711Y006531D01*
X010031Y006531D02*
X010031Y005367D01*
X010574Y004921D02*
X016671Y004921D01*
X016671Y004601D02*
X010680Y004601D01*
X010671Y004605D02*
X010671Y005045D01*
X010867Y005241D02*
X016550Y005241D01*
X016431Y005360D02*
X016431Y003734D01*
X016524Y003641D02*
X016578Y003641D01*
X016549Y003616D02*
X016257Y003908D01*
X015845Y003908D01*
X015554Y003616D01*
X015554Y003204D01*
X015845Y002913D01*
X016257Y002913D01*
X016549Y003204D01*
X016549Y003616D01*
X016549Y003321D02*
X016554Y003321D01*
X016431Y003086D02*
X016431Y001597D01*
X016751Y001597D02*
X016751Y003007D01*
X016757Y003001D02*
X016345Y003001D01*
X016111Y002913D02*
X016111Y001597D01*
X015791Y001597D02*
X015791Y002967D01*
X015757Y003001D02*
X015345Y003001D01*
X015257Y002913D02*
X015549Y003204D01*
X015549Y003616D01*
X015257Y003908D01*
X014845Y003908D01*
X014554Y003616D01*
X014554Y003204D01*
X014845Y002913D01*
X015257Y002913D01*
X015151Y002913D02*
X015151Y001597D01*
X015471Y001597D02*
X015471Y003126D01*
X015549Y003321D02*
X015554Y003321D01*
X015578Y003641D02*
X015524Y003641D01*
X015471Y003694D02*
X015471Y007281D01*
X015591Y007161D02*
X012704Y007161D01*
X012591Y007415D02*
X012591Y008810D01*
X012911Y008808D02*
X012911Y001597D01*
X013231Y001597D02*
X013231Y008806D01*
X013551Y008804D02*
X013551Y001597D01*
X013871Y001597D02*
X013871Y008802D01*
X013991Y008761D02*
X010107Y008761D01*
X010031Y008806D02*
X010031Y009370D01*
X010000Y009401D02*
X009052Y009401D01*
X008974Y009721D02*
X009229Y009721D01*
X009391Y009573D02*
X009391Y008836D01*
X009711Y008836D02*
X009711Y009531D01*
X010221Y009117D02*
X010221Y009117D01*
X010257Y009081D02*
X008998Y009081D01*
X009071Y008836D02*
X009071Y009879D01*
X008751Y010010D02*
X008751Y010031D01*
X007471Y010860D02*
X007471Y010882D01*
X007279Y011001D02*
X007147Y011001D01*
X007151Y010991D02*
X007151Y011202D01*
X007124Y011321D02*
X006941Y011321D01*
X007151Y011539D02*
X007151Y011751D01*
X007193Y011641D02*
X007105Y011641D01*
X007158Y011961D02*
X007319Y011961D01*
X007151Y011991D02*
X007151Y012202D01*
X007124Y012281D02*
X006962Y012281D01*
X007151Y012539D02*
X007151Y012751D01*
X007176Y012601D02*
X007089Y012601D01*
X007158Y012921D02*
X007376Y012921D01*
X007471Y012882D02*
X007471Y012860D01*
X007151Y012991D02*
X007151Y013202D01*
X007135Y013241D02*
X007002Y013241D01*
X007062Y013561D02*
X007160Y013561D01*
X007151Y013539D02*
X007151Y013751D01*
X007158Y013881D02*
X007332Y013881D01*
X007151Y013991D02*
X007151Y014062D01*
X006280Y013241D02*
X001529Y013241D01*
X001529Y012281D02*
X006320Y012281D01*
X006341Y011321D02*
X001529Y011321D01*
X001529Y014201D02*
X005830Y014201D01*
X005551Y014480D02*
X005551Y001597D01*
X005348Y001401D02*
X003984Y001401D01*
X003991Y001081D02*
X005028Y001081D01*
X004911Y000964D02*
X004911Y003983D01*
X004902Y003961D02*
X009664Y003961D01*
X009664Y004281D02*
X005001Y004281D01*
X004976Y004601D02*
X007193Y004601D01*
X004911Y004759D02*
X004911Y024983D01*
X004951Y025081D02*
X006168Y025081D01*
X006191Y025136D02*
X006191Y027404D01*
X006511Y027404D02*
X006511Y025377D01*
X006831Y025352D02*
X006831Y027404D01*
X007151Y027404D02*
X007151Y024991D01*
X007114Y025081D02*
X013242Y025081D01*
X013231Y025092D02*
X013231Y023787D01*
X012911Y023787D02*
X012911Y025412D01*
X012922Y025401D02*
X010623Y025401D01*
X010671Y025449D02*
X010671Y023398D01*
X010754Y023481D02*
X008155Y023481D01*
X008111Y023588D02*
X008111Y024154D01*
X008097Y024121D02*
X029487Y024121D01*
X029551Y024057D02*
X029551Y023442D01*
X029512Y023481D02*
X030127Y023481D01*
X030151Y023161D02*
X029776Y023161D01*
X029735Y023258D02*
X029496Y023497D01*
X029184Y023626D01*
X028846Y023626D01*
X028533Y023497D01*
X028294Y023258D01*
X028165Y022946D01*
X028165Y022607D01*
X028294Y022295D01*
X028533Y022056D01*
X028846Y021927D01*
X029184Y021927D01*
X029496Y022056D01*
X029735Y022295D01*
X029865Y022607D01*
X029865Y022946D01*
X029735Y023258D01*
X029231Y023607D02*
X029231Y024314D01*
X028911Y024314D02*
X028911Y023626D01*
X028591Y023521D02*
X028591Y024314D01*
X028271Y024314D02*
X028271Y023201D01*
X028254Y023161D02*
X019725Y023161D01*
X019631Y023255D02*
X019631Y024314D01*
X019951Y024314D02*
X019951Y022935D01*
X020271Y022894D02*
X020271Y024314D01*
X020591Y024314D02*
X020591Y022653D01*
X020554Y022616D02*
X020554Y022204D01*
X020845Y021913D01*
X021257Y021913D01*
X021549Y022204D01*
X021549Y022616D01*
X021257Y022908D01*
X020845Y022908D01*
X020554Y022616D01*
X020549Y022521D02*
X020554Y022521D01*
X020545Y022201D02*
X020557Y022201D01*
X020591Y022167D02*
X020591Y021267D01*
X020911Y021267D02*
X020911Y021913D01*
X021231Y021913D02*
X021231Y021267D01*
X021551Y021267D02*
X021551Y024314D01*
X021871Y024314D02*
X021871Y022908D01*
X021845Y022908D02*
X021554Y022616D01*
X021554Y022204D01*
X021751Y022007D01*
X021751Y021406D01*
X021613Y021267D01*
X019117Y021267D01*
X019006Y021222D01*
X018922Y021137D01*
X018626Y020842D01*
X018630Y020851D01*
X018630Y021025D01*
X018563Y021186D01*
X018440Y021309D01*
X018279Y021376D01*
X018105Y021376D01*
X017944Y021309D01*
X017893Y021258D01*
X017280Y021258D01*
X017125Y021413D01*
X017125Y021724D01*
X017073Y021849D01*
X016977Y021945D01*
X016758Y022164D01*
X016799Y022204D01*
X016799Y022616D01*
X016507Y022908D01*
X016095Y022908D01*
X015804Y022616D01*
X015804Y022204D01*
X015979Y022029D01*
X016013Y021947D01*
X016445Y021516D01*
X016445Y021340D01*
X016445Y021205D01*
X016496Y021080D01*
X016741Y020835D01*
X014268Y020835D01*
X014152Y020951D01*
X014152Y021832D01*
X014152Y021913D01*
X014507Y021913D01*
X014799Y022204D01*
X014799Y022616D01*
X014507Y022908D01*
X014095Y022908D01*
X013804Y022616D01*
X013804Y022389D01*
X013799Y022394D01*
X013799Y022616D01*
X013507Y022908D01*
X013095Y022908D01*
X012804Y022616D01*
X012804Y022204D01*
X013095Y021913D01*
X013318Y021913D01*
X013472Y021759D01*
X013472Y020742D01*
X013524Y020617D01*
X013620Y020522D01*
X013839Y020302D01*
X013934Y020207D01*
X014059Y020155D01*
X016349Y020155D01*
X016349Y019963D01*
X016647Y019963D01*
X016647Y019925D01*
X016349Y019925D01*
X016349Y019720D01*
X016378Y019691D01*
X016289Y019602D01*
X016289Y019409D01*
X016287Y019411D01*
X015826Y019411D01*
X015826Y019126D01*
X015816Y019126D01*
X015816Y019411D01*
X015355Y019411D01*
X015261Y019317D01*
X015261Y019126D01*
X015816Y019126D01*
X015816Y019116D01*
X015261Y019116D01*
X015261Y018925D01*
X015272Y018913D01*
X015201Y018842D01*
X015201Y018400D01*
X015230Y018371D01*
X015201Y018342D01*
X015201Y017900D01*
X015230Y017871D01*
X015201Y017842D01*
X015201Y017400D01*
X015230Y017371D01*
X015201Y017342D01*
X015201Y016900D01*
X015230Y016871D01*
X015201Y016842D01*
X015201Y016400D01*
X015272Y016329D01*
X015261Y016317D01*
X015261Y016126D01*
X015816Y016126D01*
X015816Y016116D01*
X015261Y016116D01*
X015261Y015925D01*
X015272Y015913D01*
X015201Y015842D01*
X015201Y015400D01*
X015330Y015271D01*
X015676Y015271D01*
X015676Y015262D01*
X015523Y015109D01*
X015514Y015117D01*
X015353Y015184D01*
X015179Y015184D01*
X015018Y015117D01*
X014894Y014994D01*
X014828Y014833D01*
X014828Y014659D01*
X014894Y014498D01*
X015018Y014375D01*
X015179Y014308D01*
X015353Y014308D01*
X015514Y014375D01*
X015545Y014406D01*
X015573Y014406D01*
X015709Y014406D01*
X015833Y014458D01*
X016157Y014781D01*
X016800Y014781D01*
X016841Y014740D01*
X017003Y014673D01*
X017047Y014673D01*
X017537Y014183D01*
X017662Y014131D01*
X017797Y014131D01*
X017952Y014131D01*
X017952Y014085D01*
X018081Y013956D01*
X018775Y013956D01*
X018802Y013983D01*
X018829Y013956D01*
X019275Y013956D01*
X019238Y013941D01*
X019191Y013894D01*
X018810Y013894D01*
X018783Y013867D01*
X018756Y013894D01*
X018062Y013894D01*
X017933Y013765D01*
X017933Y012992D01*
X018062Y012864D01*
X018165Y012864D01*
X018229Y012800D01*
X018355Y012674D01*
X018022Y012674D01*
X017893Y012545D01*
X017893Y011772D01*
X018022Y011643D01*
X018099Y011643D01*
X018115Y011605D01*
X018199Y011520D01*
X018406Y011313D01*
X018429Y011304D01*
X018429Y010959D01*
X018309Y010959D01*
X018309Y011354D01*
X018047Y011354D01*
X017953Y011260D01*
X017953Y010958D01*
X018309Y010958D01*
X018309Y010839D01*
X017953Y010839D01*
X017953Y010537D01*
X018047Y010443D01*
X018309Y010443D01*
X018309Y010838D01*
X018429Y010838D01*
X018429Y010443D01*
X018691Y010443D01*
X018701Y010453D01*
X018770Y010383D01*
X019464Y010383D01*
X019593Y010512D01*
X019593Y010852D01*
X019894Y010852D01*
X019894Y010431D01*
X019923Y010402D01*
X019894Y010374D01*
X019894Y009931D01*
X020023Y009802D01*
X021005Y009802D01*
X021134Y009931D01*
X021134Y010374D01*
X021105Y010402D01*
X021134Y010431D01*
X021134Y010874D01*
X021105Y010902D01*
X021134Y010931D01*
X021134Y011374D01*
X021105Y011402D01*
X021134Y011431D01*
X021134Y011874D01*
X021105Y011902D01*
X021134Y011931D01*
X021134Y012374D01*
X021105Y012402D01*
X021134Y012431D01*
X021134Y012812D01*
X021252Y012812D01*
X021377Y012864D01*
X021603Y013091D01*
X021699Y013186D01*
X021751Y013311D01*
X021751Y014059D01*
X021751Y014194D01*
X021699Y014319D01*
X021354Y014664D01*
X021259Y014760D01*
X021134Y014811D01*
X019652Y014811D01*
X019652Y014858D01*
X019523Y014987D01*
X018829Y014987D01*
X018802Y014960D01*
X018775Y014987D01*
X018081Y014987D01*
X017952Y014858D01*
X017952Y014811D01*
X017870Y014811D01*
X017528Y015154D01*
X017528Y015198D01*
X017461Y015359D01*
X017338Y015482D01*
X017177Y015549D01*
X017003Y015549D01*
X016841Y015482D01*
X016820Y015461D01*
X016441Y015461D01*
X016441Y015842D01*
X016369Y015913D01*
X016381Y015925D01*
X016381Y016116D01*
X015826Y016116D01*
X015826Y016126D01*
X016381Y016126D01*
X016381Y016317D01*
X016377Y016321D01*
X017956Y016321D01*
X018076Y016321D01*
X018186Y016367D01*
X019132Y017312D01*
X019132Y017108D01*
X019132Y016973D01*
X019183Y016848D01*
X021801Y014230D01*
X021801Y011553D01*
X021853Y011428D01*
X021948Y011333D01*
X022405Y010876D01*
X022530Y010824D01*
X022665Y010824D01*
X023754Y010824D01*
X023754Y010431D01*
X023783Y010402D01*
X023754Y010374D01*
X023754Y009931D01*
X023883Y009802D01*
X024865Y009802D01*
X024994Y009931D01*
X024994Y010374D01*
X024965Y010402D01*
X024994Y010431D01*
X024994Y010874D01*
X024965Y010902D01*
X024994Y010931D01*
X024994Y011374D01*
X024965Y011402D01*
X024994Y011431D01*
X024994Y011874D01*
X024965Y011902D01*
X024994Y011931D01*
X024994Y012277D01*
X025196Y012075D01*
X025196Y011693D01*
X025266Y011624D01*
X025256Y011614D01*
X025256Y011352D01*
X025652Y011352D01*
X025652Y011232D01*
X025772Y011232D01*
X025772Y011352D01*
X026167Y011352D01*
X026167Y011386D01*
X027101Y010452D01*
X027137Y010376D01*
X027237Y010286D01*
X027364Y010241D01*
X027387Y010242D01*
X027494Y010135D01*
X027705Y010048D01*
X028644Y010048D01*
X028855Y010135D01*
X029017Y010297D01*
X029104Y010509D01*
X029104Y010737D01*
X029017Y010949D01*
X028855Y011110D01*
X028644Y011198D01*
X027705Y011198D01*
X027494Y011110D01*
X027449Y011065D01*
X026227Y012287D01*
X026227Y012387D01*
X026098Y012516D01*
X025717Y012516D01*
X025292Y012941D01*
X025167Y012992D01*
X025032Y012992D01*
X024934Y012992D01*
X024934Y013147D01*
X024379Y013147D01*
X024379Y013157D01*
X024934Y013157D01*
X024934Y013349D01*
X024923Y013360D01*
X024994Y013431D01*
X024994Y013874D01*
X024865Y014002D01*
X023883Y014002D01*
X023833Y013952D01*
X023722Y013952D01*
X023466Y014208D01*
X023481Y014222D01*
X023490Y014213D01*
X023752Y014213D01*
X023752Y014608D01*
X023872Y014608D01*
X023872Y014213D01*
X024134Y014213D01*
X024228Y014307D01*
X024228Y014608D01*
X023872Y014608D01*
X023872Y014728D01*
X024228Y014728D01*
X024228Y015030D01*
X024134Y015123D01*
X023872Y015123D01*
X023872Y014728D01*
X023752Y014728D01*
X023752Y015123D01*
X023490Y015123D01*
X023481Y015114D01*
X023472Y015122D01*
X023472Y016722D01*
X023795Y016722D01*
X023852Y016779D01*
X027248Y016779D01*
X027248Y016674D01*
X027336Y016463D01*
X027498Y016301D01*
X027709Y016213D01*
X028648Y016213D01*
X028859Y016301D01*
X029021Y016463D01*
X029108Y016674D01*
X029108Y016903D01*
X029021Y017114D01*
X028859Y017276D01*
X028648Y017363D01*
X028644Y017363D01*
X028644Y017364D01*
X028615Y017383D01*
X028591Y017407D01*
X028591Y018213D01*
X028648Y018213D02*
X028859Y018301D01*
X029021Y018463D01*
X029108Y018674D01*
X029108Y018903D01*
X029021Y019114D01*
X028859Y019276D01*
X028648Y019363D01*
X027709Y019363D01*
X027498Y019276D01*
X027384Y019162D01*
X023842Y019162D01*
X023785Y019219D01*
X023462Y019219D01*
X023462Y019303D01*
X023540Y019380D01*
X023540Y019917D01*
X023450Y020006D01*
X024186Y020742D01*
X024270Y020826D01*
X024316Y020936D01*
X024316Y021971D01*
X024549Y022204D01*
X024549Y022616D01*
X024410Y022755D01*
X024395Y022791D01*
X024311Y022875D01*
X024275Y022890D01*
X024257Y022908D01*
X024232Y022908D01*
X024201Y022921D01*
X024081Y022921D01*
X024049Y022908D01*
X023845Y022908D01*
X023554Y022616D01*
X023554Y022204D01*
X023716Y022042D01*
X023716Y021120D01*
X023125Y020529D01*
X022848Y020529D01*
X023270Y020951D01*
X023316Y021061D01*
X023316Y021181D01*
X023316Y021971D01*
X023549Y022204D01*
X023549Y022616D01*
X023257Y022908D01*
X022845Y022908D01*
X022554Y022616D01*
X022554Y022204D01*
X022716Y022042D01*
X022716Y021245D01*
X022374Y020903D01*
X022097Y020903D01*
X022306Y021111D01*
X022351Y021222D01*
X022351Y021341D01*
X022351Y022007D01*
X022549Y022204D01*
X022549Y022616D01*
X022257Y022908D01*
X021845Y022908D01*
X021778Y022841D02*
X021324Y022841D01*
X021231Y022908D02*
X021231Y024314D01*
X020911Y024314D02*
X020911Y022908D01*
X020778Y022841D02*
X020324Y022841D01*
X019516Y022521D02*
X018799Y022521D01*
X018799Y022616D02*
X018507Y022908D01*
X018095Y022908D01*
X017804Y022616D01*
X017804Y022204D01*
X018095Y021913D01*
X018507Y021913D01*
X018799Y022204D01*
X018799Y022616D01*
X018671Y022744D02*
X018671Y023187D01*
X018876Y023161D02*
X011282Y023161D01*
X011311Y023187D02*
X011311Y022908D01*
X011507Y022908D02*
X011095Y022908D01*
X010804Y022616D01*
X010804Y022204D01*
X011095Y021913D01*
X011507Y021913D01*
X011799Y022204D01*
X011799Y022616D01*
X011507Y022908D01*
X011574Y022841D02*
X012113Y022841D01*
X012120Y022848D02*
X011864Y022591D01*
X011864Y022429D01*
X012282Y022429D01*
X012282Y022391D01*
X012320Y022391D01*
X012320Y022429D01*
X012282Y022429D01*
X012282Y022848D01*
X012120Y022848D01*
X012271Y022848D02*
X012271Y023187D01*
X012591Y023187D02*
X012591Y022739D01*
X012489Y022841D02*
X013028Y022841D01*
X012911Y022723D02*
X012911Y023187D01*
X013231Y023187D02*
X013231Y022908D01*
X013551Y022864D02*
X013551Y023187D01*
X013871Y023187D02*
X013871Y022683D01*
X013804Y022521D02*
X013799Y022521D01*
X013574Y022841D02*
X014028Y022841D01*
X014191Y022908D02*
X014191Y023187D01*
X014511Y023187D02*
X014511Y022904D01*
X014574Y022841D02*
X015028Y022841D01*
X015095Y022908D02*
X014804Y022616D01*
X014804Y022204D01*
X015095Y021913D01*
X015507Y021913D01*
X015799Y022204D01*
X015799Y022616D01*
X015507Y022908D01*
X015095Y022908D01*
X015151Y022908D02*
X015151Y023187D01*
X015471Y023187D02*
X015471Y022908D01*
X015574Y022841D02*
X016028Y022841D01*
X016111Y022908D02*
X016111Y023187D01*
X016431Y023187D02*
X016431Y022908D01*
X016574Y022841D02*
X017028Y022841D01*
X017071Y022883D02*
X017071Y023187D01*
X017391Y023187D02*
X017391Y022908D01*
X017507Y022908D02*
X017095Y022908D01*
X016804Y022616D01*
X016804Y022204D01*
X017095Y021913D01*
X017507Y021913D01*
X017799Y022204D01*
X017799Y022616D01*
X017507Y022908D01*
X017574Y022841D02*
X018028Y022841D01*
X018031Y022843D02*
X018031Y023187D01*
X018351Y023187D02*
X018351Y022908D01*
X018574Y022841D02*
X019196Y022841D01*
X019311Y022726D02*
X019311Y021267D01*
X019053Y021241D02*
X018509Y021241D01*
X018351Y021346D02*
X018351Y021913D01*
X018031Y021977D02*
X018031Y021345D01*
X017711Y021258D02*
X017711Y022116D01*
X017795Y022201D02*
X017807Y022201D01*
X017799Y022521D02*
X017804Y022521D01*
X017711Y022704D02*
X017711Y023187D01*
X017711Y023787D02*
X017711Y024314D01*
X018031Y024314D02*
X018031Y023787D01*
X018351Y023787D02*
X018351Y024314D01*
X018671Y024314D02*
X018671Y023787D01*
X018991Y023787D02*
X018991Y024314D01*
X019311Y024314D02*
X019311Y023575D01*
X019405Y023481D02*
X028517Y023481D01*
X028165Y022841D02*
X027324Y022841D01*
X027311Y022854D02*
X027311Y024314D01*
X027631Y024314D02*
X027631Y021266D01*
X027570Y021241D02*
X025440Y021241D01*
X025454Y021208D02*
X025387Y021369D01*
X025316Y021441D01*
X025316Y021971D01*
X025549Y022204D01*
X025549Y022616D01*
X025257Y022908D01*
X024845Y022908D01*
X024554Y022616D01*
X024554Y022204D01*
X024716Y022042D01*
X024716Y021441D01*
X024644Y021369D01*
X024578Y021208D01*
X024578Y021034D01*
X024644Y020873D01*
X024768Y020750D01*
X024929Y020683D01*
X025103Y020683D01*
X025264Y020750D01*
X025387Y020873D01*
X025454Y021034D01*
X025454Y021208D01*
X025391Y021360D02*
X025391Y022046D01*
X025316Y021881D02*
X030151Y021881D01*
X030151Y022201D02*
X029641Y022201D01*
X029551Y022110D02*
X029551Y003661D01*
X029571Y003641D02*
X030151Y003641D01*
X030151Y003961D02*
X027351Y003961D01*
X027351Y004281D02*
X030151Y004281D01*
X030151Y004601D02*
X027351Y004601D01*
X027351Y004921D02*
X030151Y004921D01*
X030151Y005241D02*
X027351Y005241D01*
X027334Y005561D02*
X030151Y005561D01*
X030151Y005881D02*
X027055Y005881D01*
X026991Y005945D02*
X026991Y006254D01*
X027070Y006221D02*
X026853Y006311D01*
X026687Y006477D01*
X026597Y006694D01*
X026597Y007222D01*
X027168Y007222D01*
X027168Y007260D01*
X026597Y007260D01*
X026597Y007788D01*
X026687Y008005D01*
X026853Y008171D01*
X027070Y008261D01*
X027168Y008261D01*
X027168Y007260D01*
X027206Y007260D01*
X027206Y008261D01*
X027304Y008261D01*
X027521Y008171D01*
X027687Y008005D01*
X027777Y007788D01*
X027777Y007260D01*
X027206Y007260D01*
X027206Y007222D01*
X027206Y006221D01*
X027304Y006221D01*
X027521Y006311D01*
X027687Y006477D01*
X027777Y006694D01*
X027777Y007222D01*
X027206Y007222D01*
X027168Y007222D01*
X027168Y006221D01*
X027070Y006221D01*
X027311Y006224D02*
X027311Y005618D01*
X027221Y005715D02*
X027221Y005715D01*
X026671Y005417D02*
X026671Y003733D01*
X026578Y003641D02*
X026524Y003641D01*
X026549Y003321D02*
X026554Y003321D01*
X026671Y003087D02*
X026671Y001597D01*
X026991Y001597D02*
X026991Y002913D01*
X026757Y003001D02*
X026345Y003001D01*
X026351Y003006D02*
X026351Y001597D01*
X026031Y001597D02*
X026031Y002913D01*
X025757Y003001D02*
X025345Y003001D01*
X025391Y003046D02*
X025391Y001597D01*
X025711Y001597D02*
X025711Y003047D01*
X025554Y003321D02*
X025549Y003321D01*
X025524Y003641D02*
X025578Y003641D01*
X025711Y003773D02*
X025711Y004877D01*
X025667Y004921D02*
X025265Y004921D01*
X025071Y005115D02*
X025071Y005321D01*
X024945Y005241D02*
X025347Y005241D01*
X025391Y005197D02*
X025391Y003774D01*
X025351Y003961D02*
X025751Y003961D01*
X025751Y004281D02*
X025351Y004281D01*
X025351Y004601D02*
X025751Y004601D01*
X026351Y004601D02*
X026751Y004601D01*
X026751Y004921D02*
X026351Y004921D01*
X026351Y005021D02*
X026351Y005696D01*
X026527Y005561D02*
X025875Y005561D01*
X026031Y005696D02*
X026031Y005405D01*
X026195Y005241D02*
X026751Y005241D01*
X026751Y004281D02*
X026351Y004281D01*
X026351Y003961D02*
X026751Y003961D01*
X027524Y003641D02*
X028333Y003641D01*
X028271Y003579D02*
X028271Y010048D01*
X028591Y010048D02*
X028591Y003828D01*
X028911Y003908D02*
X028911Y010191D01*
X029043Y010361D02*
X030151Y010361D01*
X030151Y010681D02*
X029104Y010681D01*
X028964Y011001D02*
X030151Y011001D01*
X030151Y011321D02*
X027193Y011321D01*
X027311Y011203D02*
X027311Y012473D01*
X027304Y012489D02*
X027383Y012300D01*
X027528Y012155D01*
X027717Y012076D01*
X028117Y012076D01*
X028117Y012534D01*
X028232Y012534D01*
X028232Y012649D01*
X029044Y012649D01*
X029044Y012694D01*
X028966Y012883D01*
X028821Y013028D01*
X028632Y013106D01*
X028232Y013106D01*
X028232Y012649D01*
X028117Y012649D01*
X028117Y013106D01*
X027717Y013106D01*
X027528Y013028D01*
X027383Y012883D01*
X027304Y012694D01*
X027304Y012649D01*
X028117Y012649D01*
X028117Y012534D01*
X027304Y012534D01*
X027304Y012489D01*
X027311Y012534D02*
X027311Y012649D01*
X027311Y012710D02*
X027311Y014523D01*
X027312Y014521D02*
X024228Y014521D01*
X024111Y014608D02*
X024111Y014728D01*
X024228Y014841D02*
X027248Y014841D01*
X027248Y014903D02*
X027248Y014674D01*
X027336Y014463D01*
X027498Y014301D01*
X027709Y014213D01*
X028648Y014213D01*
X028859Y014301D01*
X029021Y014463D01*
X029108Y014674D01*
X029108Y014903D01*
X029021Y015114D01*
X028859Y015276D01*
X028648Y015363D01*
X027709Y015363D01*
X027498Y015276D01*
X027336Y015114D01*
X027248Y014903D01*
X027311Y015054D02*
X027311Y016523D01*
X027357Y016441D02*
X023472Y016441D01*
X023472Y016121D02*
X030151Y016121D01*
X030151Y016441D02*
X028999Y016441D01*
X028911Y016353D02*
X028911Y015224D01*
X028974Y015161D02*
X030151Y015161D01*
X030151Y014841D02*
X029108Y014841D01*
X029045Y014521D02*
X030151Y014521D01*
X030151Y014201D02*
X023473Y014201D01*
X023471Y014203D02*
X023471Y014213D01*
X023791Y013952D02*
X023791Y014608D01*
X023752Y014521D02*
X023872Y014521D01*
X023791Y014728D02*
X023791Y016722D01*
X023834Y016761D02*
X027248Y016761D01*
X026991Y016779D02*
X026991Y011523D01*
X026873Y011641D02*
X030151Y011641D01*
X030151Y011961D02*
X026553Y011961D01*
X026671Y011843D02*
X026671Y016779D01*
X026351Y016779D02*
X026351Y012163D01*
X026233Y012281D02*
X027401Y012281D01*
X027631Y012112D02*
X027631Y011167D01*
X027951Y011198D02*
X027951Y012076D01*
X028117Y012281D02*
X028232Y012281D01*
X028232Y012076D02*
X028632Y012076D01*
X028821Y012155D01*
X028966Y012300D01*
X029044Y012489D01*
X029044Y012534D01*
X028232Y012534D01*
X028232Y012076D01*
X028271Y012076D02*
X028271Y011198D01*
X028591Y011198D02*
X028591Y012076D01*
X028911Y012245D02*
X028911Y011055D01*
X028947Y012281D02*
X030151Y012281D01*
X030151Y012601D02*
X028232Y012601D01*
X028271Y012649D02*
X028271Y012534D01*
X028117Y012601D02*
X025632Y012601D01*
X025711Y012522D02*
X025711Y016779D01*
X026031Y016779D02*
X026031Y012516D01*
X025391Y012842D02*
X025391Y016779D01*
X025071Y016779D02*
X025071Y012992D01*
X025312Y012921D02*
X027421Y012921D01*
X027631Y013071D02*
X027631Y014246D01*
X027951Y014213D02*
X027951Y013106D01*
X028117Y012921D02*
X028232Y012921D01*
X028271Y013106D02*
X028271Y014213D01*
X028591Y014213D02*
X028591Y013106D01*
X028911Y012938D02*
X028911Y014353D01*
X028591Y015363D02*
X028591Y016213D01*
X028271Y016213D02*
X028271Y015363D01*
X027951Y015363D02*
X027951Y016213D01*
X027631Y016246D02*
X027631Y015331D01*
X027383Y015161D02*
X023472Y015161D01*
X023752Y014841D02*
X023872Y014841D01*
X024111Y015123D02*
X024111Y016779D01*
X024431Y016779D02*
X024431Y014002D01*
X024751Y014002D02*
X024751Y016779D01*
X024751Y017459D02*
X024751Y018482D01*
X025071Y018482D02*
X025071Y017459D01*
X025391Y017459D02*
X025391Y018482D01*
X025711Y018482D02*
X025711Y017459D01*
X026031Y017459D02*
X026031Y018482D01*
X026351Y018482D02*
X026351Y017459D01*
X026671Y017459D02*
X026671Y018482D01*
X026991Y018482D02*
X026991Y017459D01*
X027311Y017459D02*
X027311Y018482D01*
X027328Y018482D02*
X027336Y018463D01*
X027498Y018301D01*
X027709Y018213D01*
X028648Y018213D01*
X028911Y018353D02*
X028911Y017224D01*
X029034Y017081D02*
X030151Y017081D01*
X030151Y016761D02*
X029108Y016761D01*
X028598Y017401D02*
X030151Y017401D01*
X030151Y017721D02*
X023550Y017721D01*
X023550Y017677D02*
X023550Y018214D01*
X023462Y018301D01*
X023462Y018425D01*
X023785Y018425D01*
X023842Y018482D01*
X027328Y018482D01*
X027437Y018361D02*
X023462Y018361D01*
X023471Y018425D02*
X023471Y018293D01*
X023550Y018041D02*
X030151Y018041D01*
X030151Y018361D02*
X028919Y018361D01*
X029108Y018681D02*
X030151Y018681D01*
X030151Y019001D02*
X029068Y019001D01*
X028911Y019224D02*
X028911Y020438D01*
X028970Y020497D02*
X029048Y020686D01*
X029048Y020731D01*
X028236Y020731D01*
X028236Y020846D01*
X028121Y020846D01*
X028121Y021303D01*
X027721Y021303D01*
X027532Y021225D01*
X027387Y021080D01*
X027308Y020891D01*
X027308Y020846D01*
X028121Y020846D01*
X028121Y020731D01*
X028236Y020731D01*
X028236Y020273D01*
X028636Y020273D01*
X028825Y020352D01*
X028970Y020497D01*
X029013Y020601D02*
X030151Y020601D01*
X030151Y020921D02*
X029036Y020921D01*
X029048Y020891D02*
X028970Y021080D01*
X028825Y021225D01*
X028636Y021303D01*
X028236Y021303D01*
X028236Y020846D01*
X029048Y020846D01*
X029048Y020891D01*
X028911Y020846D02*
X028911Y020731D01*
X028591Y020731D02*
X028591Y020846D01*
X028271Y020846D02*
X028271Y020731D01*
X028236Y020601D02*
X028121Y020601D01*
X028121Y020731D02*
X028121Y020273D01*
X027721Y020273D01*
X027532Y020352D01*
X027387Y020497D01*
X027308Y020686D01*
X027308Y020731D01*
X028121Y020731D01*
X027951Y020731D02*
X027951Y020846D01*
X028121Y020921D02*
X028236Y020921D01*
X028236Y021241D02*
X028121Y021241D01*
X028271Y021303D02*
X028271Y022352D01*
X028201Y022521D02*
X027549Y022521D01*
X027549Y022616D02*
X027257Y022908D01*
X026845Y022908D01*
X026554Y022616D01*
X026554Y022204D01*
X026845Y021913D01*
X027257Y021913D01*
X027549Y022204D01*
X027549Y022616D01*
X027545Y022201D02*
X028388Y022201D01*
X028591Y022032D02*
X028591Y021303D01*
X028786Y021241D02*
X030151Y021241D01*
X030151Y021561D02*
X025316Y021561D01*
X025711Y022047D02*
X025711Y019162D01*
X026031Y019162D02*
X026031Y021913D01*
X025845Y021913D02*
X026257Y021913D01*
X026549Y022204D01*
X026549Y022616D01*
X026257Y022908D01*
X025845Y022908D01*
X025554Y022616D01*
X025554Y022204D01*
X025845Y021913D01*
X025557Y022201D02*
X025545Y022201D01*
X025549Y022521D02*
X025554Y022521D01*
X025711Y022773D02*
X025711Y024314D01*
X026031Y024314D02*
X026031Y022908D01*
X025778Y022841D02*
X025324Y022841D01*
X025391Y022774D02*
X025391Y024314D01*
X025071Y024314D02*
X025071Y022908D01*
X024778Y022841D02*
X024345Y022841D01*
X024431Y022734D02*
X024431Y024314D01*
X024751Y024314D02*
X024751Y022813D01*
X024554Y022521D02*
X024549Y022521D01*
X024545Y022201D02*
X024557Y022201D01*
X024431Y022086D02*
X024431Y019162D01*
X024751Y019162D02*
X024751Y020766D01*
X024624Y020921D02*
X024309Y020921D01*
X024186Y020742D02*
X024186Y020742D01*
X024111Y020667D02*
X024111Y019162D01*
X023791Y019213D02*
X023791Y020347D01*
X023725Y020281D02*
X027702Y020281D01*
X027631Y020311D02*
X027631Y019331D01*
X027607Y019321D02*
X023481Y019321D01*
X023471Y019311D02*
X023471Y019219D01*
X023540Y019641D02*
X030151Y019641D01*
X030151Y019961D02*
X023496Y019961D01*
X023471Y019986D02*
X023471Y020027D01*
X023151Y020555D02*
X023151Y020832D01*
X023240Y020921D02*
X023517Y020921D01*
X023471Y020875D02*
X023471Y022126D01*
X023545Y022201D02*
X023557Y022201D01*
X023549Y022521D02*
X023554Y022521D01*
X023471Y022694D02*
X023471Y024314D01*
X023791Y024314D02*
X023791Y022853D01*
X023778Y022841D02*
X023324Y022841D01*
X023151Y022908D02*
X023151Y024314D01*
X022831Y024314D02*
X022831Y022893D01*
X022778Y022841D02*
X022324Y022841D01*
X022191Y022908D02*
X022191Y024314D01*
X022511Y024314D02*
X022511Y022654D01*
X022549Y022521D02*
X022554Y022521D01*
X022545Y022201D02*
X022557Y022201D01*
X022511Y022166D02*
X022511Y021040D01*
X022392Y020921D02*
X022115Y020921D01*
X022191Y020903D02*
X022191Y020997D01*
X022351Y021241D02*
X022712Y021241D01*
X022716Y021561D02*
X022351Y021561D01*
X022351Y021881D02*
X022716Y021881D01*
X023316Y021881D02*
X023716Y021881D01*
X023716Y021561D02*
X023316Y021561D01*
X023316Y021241D02*
X023716Y021241D01*
X024316Y021241D02*
X024591Y021241D01*
X024716Y021561D02*
X024316Y021561D01*
X024316Y021881D02*
X024716Y021881D01*
X025407Y020921D02*
X027321Y020921D01*
X027311Y020897D02*
X027311Y021966D01*
X026991Y021913D02*
X026991Y019162D01*
X027311Y019162D02*
X027311Y020680D01*
X027311Y020731D02*
X027311Y020846D01*
X027343Y020601D02*
X024045Y020601D01*
X023197Y020601D02*
X022920Y020601D01*
X021751Y021561D02*
X017125Y021561D01*
X017071Y021851D02*
X017071Y021937D01*
X017041Y021881D02*
X021751Y021881D01*
X021557Y022201D02*
X021545Y022201D01*
X021549Y022521D02*
X021554Y022521D01*
X020271Y021926D02*
X020271Y021267D01*
X019951Y021267D02*
X019951Y021913D01*
X019631Y022127D02*
X019631Y021267D01*
X018991Y021206D02*
X018991Y023046D01*
X018795Y022201D02*
X019557Y022201D01*
X018671Y022076D02*
X018671Y020886D01*
X018706Y020921D02*
X018630Y020921D01*
X017391Y021258D02*
X017391Y021913D01*
X016807Y022201D02*
X016795Y022201D01*
X016799Y022521D02*
X016804Y022521D01*
X016751Y022664D02*
X016751Y023187D01*
X016751Y023787D02*
X016751Y024314D01*
X017071Y024314D02*
X017071Y023787D01*
X017391Y023787D02*
X017391Y024314D01*
X016431Y024314D02*
X016431Y023787D01*
X016111Y023787D02*
X016111Y024314D01*
X015791Y024314D02*
X015791Y023787D01*
X015471Y023787D02*
X015471Y024314D01*
X015151Y024314D02*
X015151Y023787D01*
X014831Y023787D02*
X014831Y024314D01*
X014511Y024314D02*
X014511Y023787D01*
X014191Y023787D02*
X014191Y024314D01*
X014831Y023187D02*
X014831Y022643D01*
X014804Y022521D02*
X014799Y022521D01*
X014795Y022201D02*
X014807Y022201D01*
X014831Y022177D02*
X014831Y020835D01*
X015151Y020835D02*
X015151Y021913D01*
X015471Y021913D02*
X015471Y020835D01*
X015791Y020835D02*
X015791Y022196D01*
X015795Y022201D02*
X015807Y022201D01*
X015799Y022521D02*
X015804Y022521D01*
X015791Y022624D02*
X015791Y023187D01*
X016079Y021881D02*
X014152Y021881D01*
X014191Y021913D02*
X014191Y020912D01*
X014182Y020921D02*
X016655Y020921D01*
X016431Y020835D02*
X016431Y021529D01*
X016399Y021561D02*
X014152Y021561D01*
X014511Y021916D02*
X014511Y020835D01*
X014152Y021241D02*
X016445Y021241D01*
X016111Y020835D02*
X016111Y021849D01*
X016111Y020155D02*
X016111Y019411D01*
X015826Y019321D02*
X015816Y019321D01*
X015791Y019411D02*
X015791Y020155D01*
X015471Y020155D02*
X015471Y019411D01*
X015265Y019321D02*
X014115Y019321D01*
X014191Y019245D02*
X014191Y020155D01*
X014511Y020155D02*
X014511Y010925D01*
X014435Y011001D02*
X017953Y011001D01*
X018031Y010958D02*
X018031Y010839D01*
X017953Y010681D02*
X014755Y010681D01*
X014831Y010605D02*
X014831Y014651D01*
X014885Y014521D02*
X009995Y014521D01*
X010031Y014557D02*
X010031Y014372D01*
X009916Y014201D02*
X009675Y014201D01*
X009711Y014237D02*
X009711Y013711D01*
X009916Y013881D02*
X009355Y013881D01*
X009391Y013917D02*
X009391Y013711D01*
X010351Y014386D02*
X010351Y014877D01*
X010315Y014841D02*
X014831Y014841D01*
X014831Y020155D01*
X015151Y020155D02*
X015151Y015173D01*
X015123Y015161D02*
X010635Y015161D01*
X010671Y015197D02*
X010671Y014386D01*
X010991Y014326D02*
X010991Y015321D01*
X011311Y015321D02*
X011311Y014326D01*
X011200Y014201D02*
X011080Y014201D01*
X011200Y013881D02*
X018048Y013881D01*
X018031Y013863D02*
X018031Y014006D01*
X018351Y013956D02*
X018351Y013894D01*
X018671Y013894D02*
X018671Y013956D01*
X018769Y013881D02*
X018796Y013881D01*
X018991Y013894D02*
X018991Y013956D01*
X019652Y014841D02*
X021190Y014841D01*
X021231Y014800D02*
X021231Y014771D01*
X020911Y014811D02*
X020911Y015120D01*
X020870Y015161D02*
X017528Y015161D01*
X017711Y014971D02*
X017711Y016321D01*
X018031Y016321D02*
X018031Y014936D01*
X017952Y014841D02*
X017841Y014841D01*
X018351Y014987D02*
X018351Y016532D01*
X018260Y016441D02*
X019590Y016441D01*
X019631Y016400D02*
X019631Y014879D01*
X019951Y014811D02*
X019951Y016080D01*
X019910Y016121D02*
X015826Y016121D01*
X015816Y016121D02*
X014315Y016121D01*
X014191Y015997D02*
X014191Y011245D01*
X014115Y011321D02*
X018014Y011321D01*
X018031Y011338D02*
X018031Y011643D01*
X018100Y011641D02*
X013795Y011641D01*
X013871Y011565D02*
X013871Y015821D01*
X013831Y015801D02*
X015201Y015801D01*
X015201Y015481D02*
X013831Y015481D01*
X013551Y015271D02*
X013551Y012885D01*
X013515Y012921D02*
X018004Y012921D01*
X018031Y012894D02*
X018031Y012674D01*
X017950Y012601D02*
X013691Y012601D01*
X013691Y012281D02*
X017893Y012281D01*
X017893Y011961D02*
X013691Y011961D01*
X013091Y011961D02*
X012970Y011961D01*
X012911Y012021D02*
X012911Y012677D01*
X012987Y012601D02*
X011200Y012601D01*
X011200Y012561D02*
X011200Y012681D01*
X011556Y012681D01*
X011556Y012946D01*
X012642Y012946D01*
X013091Y012497D01*
X013091Y011838D01*
X012771Y012164D01*
X012770Y012166D01*
X012730Y012206D01*
X012688Y012249D01*
X012687Y012249D01*
X012686Y012250D01*
X012633Y012272D01*
X012579Y012295D01*
X012577Y012295D01*
X012576Y012296D01*
X012519Y012296D01*
X012459Y012296D01*
X012458Y012296D01*
X011556Y012296D01*
X011556Y012561D01*
X011200Y012561D01*
X011311Y012561D02*
X011311Y012681D01*
X011556Y012921D02*
X012667Y012921D01*
X012591Y012946D02*
X012591Y012290D01*
X012612Y012281D02*
X013091Y012281D01*
X012271Y012296D02*
X012271Y012946D01*
X011951Y012946D02*
X011951Y012296D01*
X011631Y012296D02*
X011631Y012946D01*
X011631Y013546D02*
X011631Y015321D01*
X011951Y015321D02*
X011951Y013546D01*
X012271Y013546D02*
X012271Y015321D01*
X012591Y015321D02*
X012591Y013546D01*
X012911Y013511D02*
X012911Y015271D01*
X013231Y015271D02*
X013231Y013205D01*
X013195Y013241D02*
X017933Y013241D01*
X017933Y013561D02*
X011556Y013561D01*
X011311Y013811D02*
X011311Y013931D01*
X011556Y014201D02*
X017519Y014201D01*
X017391Y014329D02*
X017391Y008045D01*
X017315Y008121D02*
X023697Y008121D01*
X023791Y008028D02*
X023791Y006296D01*
X024111Y006296D02*
X024111Y007708D01*
X024017Y007801D02*
X017635Y007801D01*
X017711Y007725D02*
X017711Y014131D01*
X017199Y014521D02*
X015897Y014521D01*
X015791Y014440D02*
X015791Y009645D01*
X015715Y009721D02*
X030151Y009721D01*
X030151Y010041D02*
X024994Y010041D01*
X024994Y010361D02*
X027154Y010361D01*
X027311Y010260D02*
X027311Y008258D01*
X027206Y008121D02*
X027168Y008121D01*
X026991Y008228D02*
X026991Y008929D01*
X027026Y009013D02*
X027026Y009112D01*
X026025Y009112D01*
X026025Y009150D01*
X025987Y009150D01*
X025987Y009721D01*
X025459Y009721D01*
X025242Y009631D01*
X025076Y009465D01*
X024986Y009248D01*
X024986Y009150D01*
X025987Y009150D01*
X025987Y009112D01*
X024986Y009112D01*
X024986Y009013D01*
X025076Y008797D01*
X025242Y008631D01*
X025459Y008541D01*
X025987Y008541D01*
X025987Y009112D01*
X026025Y009112D01*
X026025Y008541D01*
X026553Y008541D01*
X026770Y008631D01*
X026936Y008797D01*
X027026Y009013D01*
X027026Y009081D02*
X030151Y009081D01*
X030151Y008761D02*
X026901Y008761D01*
X026671Y008589D02*
X026671Y007966D01*
X026602Y007801D02*
X025475Y007801D01*
X025391Y008003D02*
X025391Y008569D01*
X025711Y008541D02*
X025711Y006296D01*
X026031Y006296D02*
X026031Y008541D01*
X026025Y008761D02*
X025987Y008761D01*
X025987Y009081D02*
X026025Y009081D01*
X026031Y009112D02*
X026031Y009150D01*
X026025Y009150D02*
X027026Y009150D01*
X027026Y009248D01*
X026936Y009465D01*
X026770Y009631D01*
X026553Y009721D01*
X026025Y009721D01*
X026025Y009150D01*
X026025Y009401D02*
X025987Y009401D01*
X026031Y009721D02*
X026031Y010876D01*
X026073Y010876D02*
X026167Y010970D01*
X026167Y011232D01*
X025772Y011232D01*
X025772Y010876D01*
X026073Y010876D01*
X026167Y011001D02*
X026552Y011001D01*
X026671Y010882D02*
X026671Y009672D01*
X026351Y009721D02*
X026351Y011202D01*
X026232Y011321D02*
X025772Y011321D01*
X025711Y011232D02*
X025711Y009721D01*
X025391Y009693D02*
X025391Y010876D01*
X025350Y010876D02*
X025652Y010876D01*
X025652Y011232D01*
X025256Y011232D01*
X025256Y010970D01*
X025350Y010876D01*
X025256Y011001D02*
X024994Y011001D01*
X024994Y010681D02*
X026872Y010681D01*
X026991Y010562D02*
X026991Y009333D01*
X026963Y009401D02*
X030151Y009401D01*
X030151Y008441D02*
X024339Y008441D01*
X024431Y008349D02*
X024431Y009802D01*
X024751Y009802D02*
X024751Y008321D01*
X025071Y008273D02*
X025071Y008809D01*
X025111Y008761D02*
X024026Y008761D01*
X024111Y008669D02*
X024111Y009802D01*
X023791Y009894D02*
X023791Y009658D01*
X023471Y009658D02*
X023471Y010824D01*
X023754Y010681D02*
X021134Y010681D01*
X021134Y011001D02*
X022280Y011001D01*
X022191Y011090D02*
X022191Y006296D01*
X022511Y006296D02*
X022511Y010832D01*
X022831Y010824D02*
X022831Y009658D01*
X022641Y009401D02*
X021998Y009401D01*
X021998Y009504D02*
X021904Y009598D01*
X021425Y009598D01*
X021425Y009026D01*
X021305Y009026D01*
X021305Y009598D01*
X020827Y009598D01*
X020733Y009504D01*
X020733Y009025D01*
X021305Y009025D01*
X021305Y008905D01*
X021425Y008905D01*
X021425Y008333D01*
X021904Y008333D01*
X021998Y008427D01*
X021998Y008905D01*
X021425Y008905D01*
X021425Y009025D01*
X021998Y009025D01*
X021998Y009504D01*
X021871Y009598D02*
X021871Y011410D01*
X021960Y011321D02*
X021134Y011321D01*
X021134Y011641D02*
X021801Y011641D01*
X021801Y011961D02*
X021134Y011961D01*
X021134Y012281D02*
X021801Y012281D01*
X021801Y012601D02*
X021134Y012601D01*
X021231Y012812D02*
X021231Y009598D01*
X021305Y009401D02*
X021425Y009401D01*
X021551Y009598D02*
X021551Y013038D01*
X021433Y012921D02*
X021801Y012921D01*
X021801Y013241D02*
X021721Y013241D01*
X021751Y013561D02*
X021801Y013561D01*
X021801Y013881D02*
X021751Y013881D01*
X021748Y014201D02*
X021801Y014201D01*
X021551Y014467D02*
X021551Y014480D01*
X021510Y014521D02*
X021497Y014521D01*
X021871Y015122D02*
X021871Y017300D01*
X021858Y017312D02*
X022340Y016831D01*
X022465Y016779D01*
X022493Y016779D01*
X022550Y016722D01*
X022872Y016722D01*
X022872Y015745D01*
X022840Y015778D01*
X022679Y015844D01*
X022504Y015844D01*
X022343Y015778D01*
X022220Y015655D01*
X022154Y015494D01*
X022154Y015319D01*
X022220Y015158D01*
X022252Y015127D01*
X022252Y015073D01*
X022303Y014948D01*
X022588Y014663D01*
X022588Y014282D01*
X022717Y014153D01*
X022774Y014153D01*
X022774Y014116D01*
X022820Y014006D01*
X022904Y013922D01*
X023428Y013398D01*
X023538Y013352D01*
X023657Y013352D01*
X023818Y013352D01*
X023814Y013349D01*
X023814Y013157D01*
X024369Y013157D01*
X024369Y013147D01*
X023814Y013147D01*
X023814Y012956D01*
X023825Y012945D01*
X023754Y012874D01*
X023754Y012431D01*
X023783Y012402D01*
X023754Y012374D01*
X023754Y011931D01*
X023783Y011902D01*
X023754Y011874D01*
X023754Y011504D01*
X022738Y011504D01*
X022481Y011762D01*
X022481Y014439D01*
X022429Y014564D01*
X022333Y014659D01*
X019812Y017181D01*
X019812Y018799D01*
X019880Y018867D01*
X019880Y018695D01*
X019947Y018534D01*
X019989Y018492D01*
X020030Y018393D01*
X020600Y017823D01*
X020600Y017441D01*
X020729Y017312D01*
X021423Y017312D01*
X021450Y017339D01*
X021477Y017312D01*
X021858Y017312D01*
X021551Y017312D02*
X021551Y015442D01*
X021512Y015481D02*
X022154Y015481D01*
X022191Y015584D02*
X022191Y016980D01*
X022090Y017081D02*
X019912Y017081D01*
X019951Y017042D02*
X019951Y018530D01*
X019886Y018681D02*
X019812Y018681D01*
X019812Y018361D02*
X020062Y018361D01*
X020271Y018152D02*
X020271Y016722D01*
X020232Y016761D02*
X022511Y016761D01*
X022511Y015844D01*
X022399Y015801D02*
X021192Y015801D01*
X021231Y015762D02*
X021231Y017312D01*
X020911Y017312D02*
X020911Y016082D01*
X020872Y016121D02*
X022872Y016121D01*
X022872Y016441D02*
X020552Y016441D01*
X020591Y016402D02*
X020591Y017832D01*
X020600Y017721D02*
X019812Y017721D01*
X019812Y018041D02*
X020382Y018041D01*
X020640Y017401D02*
X019812Y017401D01*
X019132Y017081D02*
X018900Y017081D01*
X018991Y017172D02*
X018991Y014987D01*
X019311Y014987D02*
X019311Y016720D01*
X019270Y016761D02*
X018580Y016761D01*
X018671Y016852D02*
X018671Y014987D01*
X017391Y015429D02*
X017391Y016321D01*
X017071Y016321D02*
X017071Y015549D01*
X016840Y015481D02*
X016441Y015481D01*
X016751Y015461D02*
X016751Y016321D01*
X016431Y016321D02*
X016431Y015852D01*
X016441Y015801D02*
X020230Y015801D01*
X020271Y015760D02*
X020271Y014811D01*
X020591Y014811D02*
X020591Y015440D01*
X020550Y015481D02*
X017339Y015481D01*
X017071Y014649D02*
X017071Y008365D01*
X016995Y008441D02*
X020733Y008441D01*
X020733Y008427D02*
X020827Y008333D01*
X021305Y008333D01*
X021305Y008905D01*
X020733Y008905D01*
X020733Y008427D01*
X020911Y008333D02*
X020911Y006296D01*
X021231Y006296D02*
X021231Y008333D01*
X021305Y008441D02*
X021425Y008441D01*
X021551Y008333D02*
X021551Y006296D01*
X021871Y006296D02*
X021871Y008333D01*
X021998Y008441D02*
X022641Y008441D01*
X022831Y008273D02*
X022831Y006296D01*
X023151Y006296D02*
X023151Y008273D01*
X023471Y008273D02*
X023471Y006296D01*
X024241Y006521D02*
X018915Y006521D01*
X018991Y006445D02*
X018991Y010383D01*
X019311Y010383D02*
X019311Y006296D01*
X019631Y006296D02*
X019631Y010852D01*
X019593Y010681D02*
X019894Y010681D01*
X019894Y010361D02*
X015075Y010361D01*
X015151Y010285D02*
X015151Y014319D01*
X015471Y014357D02*
X015471Y009965D01*
X015395Y010041D02*
X019894Y010041D01*
X019951Y009874D02*
X019951Y006296D01*
X020271Y006296D02*
X020271Y009802D01*
X020591Y009802D02*
X020591Y006296D01*
X020591Y004559D02*
X020591Y001597D01*
X020911Y001597D02*
X020911Y004561D01*
X021231Y004562D02*
X021231Y001597D01*
X021551Y001597D02*
X021551Y004563D01*
X021871Y004564D02*
X021871Y003908D01*
X021845Y003908D02*
X021554Y003616D01*
X021554Y003204D01*
X021845Y002913D01*
X022257Y002913D01*
X022549Y003204D01*
X022549Y003616D01*
X022257Y003908D01*
X021845Y003908D01*
X021578Y003641D02*
X020524Y003641D01*
X020549Y003616D02*
X020257Y003908D01*
X019845Y003908D01*
X019554Y003616D01*
X019554Y003204D01*
X019845Y002913D01*
X020257Y002913D01*
X020549Y003204D01*
X020549Y003616D01*
X020549Y003321D02*
X021554Y003321D01*
X021757Y003001D02*
X020345Y003001D01*
X020271Y002926D02*
X020271Y001597D01*
X019951Y001597D02*
X019951Y002913D01*
X019757Y003001D02*
X019261Y003001D01*
X019232Y002973D02*
X019489Y003229D01*
X019489Y003391D01*
X019070Y003391D01*
X019070Y002973D01*
X019232Y002973D01*
X019311Y003051D02*
X019311Y001597D01*
X019631Y001597D02*
X019631Y003127D01*
X019554Y003321D02*
X019489Y003321D01*
X019489Y003429D02*
X019489Y003591D01*
X019232Y003848D01*
X019070Y003848D01*
X019070Y003429D01*
X019032Y003429D01*
X019032Y003391D01*
X018614Y003391D01*
X018614Y003229D01*
X018870Y002973D01*
X019032Y002973D01*
X019032Y003391D01*
X019070Y003391D01*
X019070Y003429D01*
X019489Y003429D01*
X019311Y003429D02*
X019311Y003391D01*
X019070Y003321D02*
X019032Y003321D01*
X018991Y003391D02*
X018991Y003429D01*
X019032Y003429D02*
X018614Y003429D01*
X018614Y003591D01*
X018870Y003848D01*
X019032Y003848D01*
X019032Y003429D01*
X019032Y003641D02*
X019070Y003641D01*
X018991Y003848D02*
X018991Y004554D01*
X019311Y004555D02*
X019311Y003769D01*
X019439Y003641D02*
X019578Y003641D01*
X019631Y003693D02*
X019631Y004556D01*
X019951Y004557D02*
X019951Y003908D01*
X020271Y003894D02*
X020271Y004558D01*
X018671Y004553D02*
X018671Y003649D01*
X018663Y003641D02*
X018439Y003641D01*
X018489Y003591D02*
X018232Y003848D01*
X018070Y003848D01*
X018070Y003429D01*
X018032Y003429D01*
X018032Y003391D01*
X017614Y003391D01*
X017614Y003229D01*
X017870Y002973D01*
X018032Y002973D01*
X018032Y003391D01*
X018070Y003391D01*
X018070Y002973D01*
X018232Y002973D01*
X018489Y003229D01*
X018489Y003391D01*
X018070Y003391D01*
X018070Y003429D01*
X018489Y003429D01*
X018489Y003591D01*
X018351Y003729D02*
X018351Y004551D01*
X018266Y004551D02*
X018266Y004551D01*
X018151Y004601D02*
X017431Y004601D01*
X017431Y004921D02*
X017831Y004921D01*
X017711Y005041D02*
X017711Y003689D01*
X017663Y003641D02*
X017524Y003641D01*
X017614Y003591D02*
X017614Y003429D01*
X018032Y003429D01*
X018032Y003848D01*
X017870Y003848D01*
X017614Y003591D01*
X017711Y003429D02*
X017711Y003391D01*
X017614Y003321D02*
X017549Y003321D01*
X017711Y003132D02*
X017711Y001597D01*
X018031Y001597D02*
X018031Y002973D01*
X018032Y003001D02*
X018070Y003001D01*
X018261Y003001D02*
X018842Y003001D01*
X018991Y002973D02*
X018991Y001597D01*
X018671Y001597D02*
X018671Y003172D01*
X018614Y003321D02*
X018489Y003321D01*
X018351Y003391D02*
X018351Y003429D01*
X018070Y003321D02*
X018032Y003321D01*
X018031Y003391D02*
X018031Y003429D01*
X018032Y003641D02*
X018070Y003641D01*
X018031Y003848D02*
X018031Y004721D01*
X017511Y005241D02*
X017431Y005241D01*
X017431Y004281D02*
X023751Y004281D01*
X023751Y003961D02*
X017431Y003961D01*
X016671Y003961D02*
X011745Y003961D01*
X011631Y004020D02*
X011631Y004139D01*
X011745Y004281D02*
X016671Y004281D01*
X016111Y003908D02*
X016111Y005680D01*
X016230Y005561D02*
X011187Y005561D01*
X011311Y005685D02*
X011311Y004545D01*
X011294Y004281D02*
X011174Y004281D01*
X011311Y004139D02*
X011311Y004020D01*
X011294Y003961D02*
X011174Y003961D01*
X011174Y003641D02*
X011294Y003641D01*
X011311Y003614D02*
X011311Y001597D01*
X011631Y001597D02*
X011631Y003614D01*
X011677Y003641D02*
X014578Y003641D01*
X014554Y003321D02*
X003156Y003321D01*
X003069Y003641D02*
X003656Y003641D01*
X003631Y003665D02*
X003631Y001928D01*
X002991Y002066D02*
X002991Y002770D01*
X002902Y002681D02*
X028188Y002681D01*
X028271Y002537D02*
X028271Y001597D01*
X027951Y001597D02*
X027951Y010048D01*
X027631Y010079D02*
X027631Y008062D01*
X027572Y008121D02*
X030151Y008121D01*
X030151Y007801D02*
X027772Y007801D01*
X027777Y007481D02*
X030151Y007481D01*
X030151Y007161D02*
X027777Y007161D01*
X027631Y007222D02*
X027631Y007260D01*
X027311Y007260D02*
X027311Y007222D01*
X027206Y007161D02*
X027168Y007161D01*
X026991Y007222D02*
X026991Y007260D01*
X027168Y007481D02*
X027206Y007481D01*
X027206Y007801D02*
X027168Y007801D01*
X026803Y008121D02*
X025294Y008121D01*
X025475Y007481D02*
X026597Y007481D01*
X026671Y007260D02*
X026671Y007222D01*
X026597Y007161D02*
X025475Y007161D01*
X025475Y006841D02*
X026597Y006841D01*
X026669Y006521D02*
X025408Y006521D01*
X025391Y006479D02*
X025391Y006296D01*
X026351Y006296D02*
X026351Y008541D01*
X026351Y009112D02*
X026351Y009150D01*
X026671Y009150D02*
X026671Y009112D01*
X026991Y009112D02*
X026991Y009150D01*
X025711Y009112D02*
X025711Y009150D01*
X025391Y009150D02*
X025391Y009112D01*
X025071Y009112D02*
X025071Y009150D01*
X024986Y009081D02*
X024026Y009081D01*
X024026Y009401D02*
X025049Y009401D01*
X025071Y009453D02*
X025071Y012200D01*
X024994Y011961D02*
X025196Y011961D01*
X025249Y011641D02*
X024994Y011641D01*
X024994Y011321D02*
X025652Y011321D01*
X025391Y011352D02*
X025391Y011232D01*
X025652Y011001D02*
X025772Y011001D01*
X026031Y011232D02*
X026031Y011352D01*
X027631Y012534D02*
X027631Y012649D01*
X027951Y012649D02*
X027951Y012534D01*
X028591Y012534D02*
X028591Y012649D01*
X028911Y012649D02*
X028911Y012534D01*
X028928Y012921D02*
X030151Y012921D01*
X030151Y013241D02*
X024934Y013241D01*
X024751Y013157D02*
X024751Y013147D01*
X024431Y013147D02*
X024431Y013157D01*
X024111Y013147D02*
X024111Y013157D01*
X023814Y013241D02*
X022481Y013241D01*
X022481Y012921D02*
X023801Y012921D01*
X023791Y012910D02*
X023791Y013352D01*
X023471Y013380D02*
X023471Y011504D01*
X023754Y011641D02*
X022602Y011641D01*
X022511Y011732D02*
X022511Y014741D01*
X022411Y014841D02*
X022152Y014841D01*
X022191Y014802D02*
X022191Y015229D01*
X022219Y015161D02*
X021832Y015161D01*
X022447Y014521D02*
X022588Y014521D01*
X022669Y014201D02*
X022481Y014201D01*
X022481Y013881D02*
X022945Y013881D01*
X022831Y013995D02*
X022831Y011504D01*
X023151Y011504D02*
X023151Y013675D01*
X023265Y013561D02*
X022481Y013561D01*
X022481Y012601D02*
X023754Y012601D01*
X023754Y012281D02*
X022481Y012281D01*
X022481Y011961D02*
X023754Y011961D01*
X023151Y010824D02*
X023151Y009658D01*
X023754Y010041D02*
X021134Y010041D01*
X021134Y010361D02*
X023754Y010361D01*
X022641Y009081D02*
X021998Y009081D01*
X021871Y009025D02*
X021871Y008905D01*
X021998Y008761D02*
X022641Y008761D01*
X021551Y008905D02*
X021551Y009025D01*
X021425Y009081D02*
X021305Y009081D01*
X021231Y009025D02*
X021231Y008905D01*
X021305Y008761D02*
X021425Y008761D01*
X020911Y008905D02*
X020911Y009025D01*
X020733Y009081D02*
X016355Y009081D01*
X016431Y009005D02*
X016431Y014781D01*
X016751Y014781D02*
X016751Y008685D01*
X016675Y008761D02*
X020733Y008761D01*
X020733Y009401D02*
X016035Y009401D01*
X016111Y009325D02*
X016111Y014735D01*
X015575Y015161D02*
X015409Y015161D01*
X015471Y015135D02*
X015471Y015271D01*
X015471Y016116D02*
X015471Y016126D01*
X015791Y016116D02*
X015791Y016126D01*
X015201Y016441D02*
X014441Y016441D01*
X014441Y016761D02*
X015201Y016761D01*
X015201Y017081D02*
X014441Y017081D01*
X014441Y017401D02*
X015201Y017401D01*
X015201Y017721D02*
X014441Y017721D01*
X014441Y018041D02*
X015201Y018041D01*
X015220Y018361D02*
X014441Y018361D01*
X014441Y018681D02*
X015201Y018681D01*
X015261Y019001D02*
X014412Y019001D01*
X013871Y019421D02*
X013871Y020270D01*
X013860Y020281D02*
X009052Y020281D01*
X009018Y020601D02*
X013540Y020601D01*
X013551Y020590D02*
X013551Y019471D01*
X013231Y019471D02*
X013231Y021913D01*
X013350Y021881D02*
X009656Y021881D01*
X009656Y022201D02*
X010807Y022201D01*
X010991Y022017D02*
X010991Y019070D01*
X011060Y019001D02*
X012591Y019001D01*
X012591Y018900D02*
X012591Y018842D01*
X012591Y018421D01*
X012585Y018421D01*
X012514Y018492D01*
X012353Y018559D01*
X012591Y018681D02*
X011380Y018681D01*
X011311Y018750D02*
X011311Y021913D01*
X011631Y022036D02*
X011631Y018430D01*
X011700Y018361D02*
X011891Y018361D01*
X011951Y018426D02*
X011951Y022142D01*
X011892Y022201D02*
X011795Y022201D01*
X011951Y022391D02*
X011951Y022429D01*
X011864Y022521D02*
X011799Y022521D01*
X011951Y022679D02*
X011951Y023187D01*
X011631Y023187D02*
X011631Y022784D01*
X011028Y022841D02*
X010962Y022841D01*
X010991Y022870D02*
X010991Y022803D01*
X010804Y022521D02*
X010642Y022521D01*
X010671Y022550D02*
X010671Y019171D01*
X010351Y019171D02*
X010351Y022311D01*
X010031Y022311D02*
X010031Y019171D01*
X009711Y019171D02*
X009711Y022311D01*
X009656Y021561D02*
X013472Y021561D01*
X013472Y021241D02*
X009656Y021241D01*
X009552Y020921D02*
X013472Y020921D01*
X013620Y020522D02*
X013620Y020522D01*
X013839Y020302D02*
X013839Y020302D01*
X012911Y019471D02*
X012911Y022097D01*
X012807Y022201D02*
X012711Y022201D01*
X012591Y022391D02*
X012591Y022429D01*
X012739Y022429D02*
X012739Y022591D01*
X012482Y022848D01*
X012320Y022848D01*
X012320Y022429D01*
X012739Y022429D01*
X012739Y022521D02*
X012804Y022521D01*
X012320Y022521D02*
X012282Y022521D01*
X012271Y022429D02*
X012271Y022391D01*
X012282Y022201D02*
X012320Y022201D01*
X012320Y022841D02*
X012282Y022841D01*
X012271Y023787D02*
X012271Y026052D01*
X012282Y026041D02*
X010991Y026041D01*
X010961Y026361D02*
X011962Y026361D01*
X011951Y026372D02*
X011951Y023787D01*
X011631Y023787D02*
X011631Y026692D01*
X011642Y026681D02*
X010783Y026681D01*
X010671Y026793D02*
X010671Y027404D01*
X010351Y027404D02*
X010351Y026954D01*
X010031Y026971D02*
X010031Y027404D01*
X009711Y027404D02*
X009711Y026863D01*
X009499Y026681D02*
X003135Y026681D01*
X003156Y026631D02*
X003033Y026929D01*
X002805Y027156D01*
X002507Y027280D01*
X002184Y027280D01*
X001886Y027156D01*
X001658Y026929D01*
X001535Y026631D01*
X001535Y026308D01*
X001658Y026010D01*
X001886Y025782D01*
X002184Y025659D01*
X002507Y025659D01*
X002805Y025782D01*
X003033Y026010D01*
X003156Y026308D01*
X003156Y026631D01*
X003156Y026361D02*
X009320Y026361D01*
X009391Y026531D02*
X009391Y027404D01*
X009291Y026041D02*
X004687Y026041D01*
X004591Y026115D02*
X004591Y027404D01*
X004911Y027404D02*
X004911Y025759D01*
X004271Y026231D02*
X004271Y027404D01*
X003951Y027404D02*
X003951Y026223D01*
X003631Y026077D02*
X003631Y027404D01*
X003311Y027404D02*
X003311Y025614D01*
X003355Y025721D02*
X002657Y025721D01*
X002671Y025727D02*
X002671Y004013D01*
X002797Y003961D02*
X003380Y003961D01*
X002991Y003772D02*
X002991Y025968D01*
X003045Y026041D02*
X003595Y026041D01*
X003281Y025401D02*
X001529Y025401D01*
X001529Y025721D02*
X002034Y025721D01*
X002031Y025722D02*
X002031Y004018D01*
X001894Y003961D02*
X001529Y003961D01*
X001711Y003782D02*
X001711Y025958D01*
X001646Y026041D02*
X001529Y026041D01*
X001529Y026361D02*
X001535Y026361D01*
X001529Y026681D02*
X001556Y026681D01*
X001711Y026981D02*
X001711Y027016D01*
X001696Y027001D02*
X001731Y027001D01*
X002031Y027216D02*
X002031Y027336D01*
X002016Y027321D02*
X011002Y027321D01*
X010991Y027332D02*
X010991Y023718D01*
X011311Y023787D02*
X011311Y027012D01*
X011322Y027001D02*
X002960Y027001D01*
X002991Y026970D02*
X002991Y027404D01*
X002671Y027404D02*
X002671Y027212D01*
X002351Y027280D02*
X002351Y027404D01*
X002351Y025659D02*
X002351Y004081D01*
X001622Y003641D02*
X001529Y003641D01*
X001529Y003321D02*
X001535Y003321D01*
X001529Y003001D02*
X001580Y003001D01*
X001529Y001721D02*
X002443Y001721D01*
X003111Y003001D02*
X014757Y003001D01*
X014831Y002927D02*
X014831Y001597D01*
X014511Y001597D02*
X014511Y008241D01*
X014631Y008121D02*
X011805Y008121D01*
X011631Y008361D02*
X011631Y008815D01*
X011951Y008813D02*
X011951Y007426D01*
X012006Y007481D02*
X011805Y007481D01*
X011631Y007310D02*
X011631Y006967D01*
X011505Y006841D02*
X011467Y006841D01*
X011311Y006685D02*
X011311Y006647D01*
X011606Y007161D02*
X011825Y007161D01*
X012271Y007559D02*
X012271Y008812D01*
X012271Y009412D02*
X012271Y010196D01*
X012591Y010196D02*
X012591Y009410D01*
X012911Y009408D02*
X012911Y010196D01*
X013142Y010196D02*
X013936Y009402D01*
X011463Y009416D01*
X011556Y009509D01*
X011556Y009811D01*
X011200Y009811D01*
X011200Y009931D01*
X011556Y009931D01*
X011556Y010196D01*
X013142Y010196D01*
X013231Y010107D02*
X013231Y009406D01*
X013551Y009404D02*
X013551Y009787D01*
X013617Y009721D02*
X011556Y009721D01*
X011311Y009811D02*
X011311Y009931D01*
X011556Y010041D02*
X013297Y010041D01*
X013871Y009467D02*
X013871Y009402D01*
X014191Y008561D02*
X014191Y001597D01*
X012591Y001597D02*
X012591Y006826D01*
X012605Y006841D02*
X015911Y006841D01*
X015791Y006961D02*
X015791Y006548D01*
X015764Y006521D02*
X012147Y006521D01*
X012271Y006645D02*
X012271Y001597D01*
X011951Y001597D02*
X011951Y006325D01*
X011827Y006201D02*
X015657Y006201D01*
X015791Y005918D02*
X015791Y003853D01*
X015151Y003908D02*
X015151Y007601D01*
X015271Y007481D02*
X012525Y007481D01*
X011805Y007801D02*
X014951Y007801D01*
X014831Y007921D02*
X014831Y003893D01*
X015828Y005881D02*
X011507Y005881D01*
X011631Y006005D02*
X011631Y004545D01*
X010991Y004545D02*
X010991Y005365D01*
X010791Y003641D02*
X010762Y003641D01*
X010671Y003554D02*
X010671Y001597D01*
X010991Y001597D02*
X010991Y003614D01*
X010351Y003554D02*
X010351Y001597D01*
X010031Y001597D02*
X010031Y003554D01*
X008431Y001597D02*
X008431Y007100D01*
X008370Y007161D02*
X008080Y007161D01*
X008111Y007088D02*
X008111Y007420D01*
X008050Y007481D02*
X007982Y007481D01*
X007791Y007373D02*
X007791Y007368D01*
X006340Y007801D02*
X001529Y007801D01*
X001529Y008121D02*
X006185Y008121D01*
X006191Y008106D02*
X006191Y007636D01*
X006127Y007481D02*
X001529Y007481D01*
X001529Y008441D02*
X006124Y008441D01*
X007151Y010539D02*
X007151Y010751D01*
X007122Y010681D02*
X007220Y010681D01*
X007471Y011860D02*
X007471Y011882D01*
X007785Y011871D02*
X007934Y011933D01*
X008032Y012031D01*
X008323Y012031D01*
X008459Y012031D01*
X008583Y012083D01*
X008782Y012281D01*
X009916Y012281D01*
X009916Y012235D01*
X010045Y012106D01*
X010124Y012106D01*
X010137Y012076D01*
X010221Y011992D01*
X010387Y011826D01*
X010471Y011742D01*
X010581Y011696D01*
X012390Y011696D01*
X013272Y010796D01*
X011556Y010796D01*
X011556Y011061D01*
X011200Y011061D01*
X011200Y011181D01*
X011556Y011181D01*
X011556Y011482D01*
X011462Y011576D01*
X011200Y011576D01*
X011200Y011181D01*
X011080Y011181D01*
X011080Y011576D01*
X010818Y011576D01*
X010808Y011567D01*
X010739Y011636D01*
X010045Y011636D01*
X009916Y011507D01*
X009916Y011461D01*
X008782Y011461D01*
X008583Y011659D01*
X008459Y011711D01*
X008323Y011711D01*
X008032Y011711D01*
X007934Y011809D01*
X007785Y011871D01*
X007791Y011869D02*
X007791Y011873D01*
X007962Y011961D02*
X010252Y011961D01*
X010351Y011862D02*
X010351Y011636D01*
X010387Y011826D02*
X010387Y011826D01*
X010671Y011696D02*
X010671Y011636D01*
X010991Y011576D02*
X010991Y011696D01*
X011311Y011696D02*
X011311Y011576D01*
X011200Y011321D02*
X011080Y011321D01*
X011311Y011181D02*
X011311Y011061D01*
X011556Y011001D02*
X013071Y011001D01*
X013231Y010838D02*
X013231Y010796D01*
X012911Y010796D02*
X012911Y011165D01*
X012757Y011321D02*
X011556Y011321D01*
X011631Y011696D02*
X011631Y010796D01*
X011951Y010796D02*
X011951Y011696D01*
X012271Y011696D02*
X012271Y010796D01*
X012591Y010796D02*
X012591Y011491D01*
X012444Y011641D02*
X008602Y011641D01*
X008431Y011711D02*
X008431Y012031D01*
X008111Y012031D02*
X008111Y011711D01*
X008751Y011492D02*
X008751Y012250D01*
X009071Y012281D02*
X009071Y011461D01*
X009391Y011461D02*
X009391Y012281D01*
X009711Y012281D02*
X009711Y011461D01*
X010031Y011622D02*
X010031Y012120D01*
X011631Y010196D02*
X011631Y009415D01*
X011951Y009413D02*
X011951Y010196D01*
X011311Y008817D02*
X011311Y008361D01*
X010991Y008361D02*
X010991Y008819D01*
X010671Y008821D02*
X010671Y008361D01*
X010427Y008441D02*
X014311Y008441D01*
X017955Y007481D02*
X024175Y007481D01*
X024175Y007161D02*
X018275Y007161D01*
X018351Y007085D02*
X018351Y010838D01*
X018351Y010959D02*
X018351Y011369D01*
X018309Y011321D02*
X018398Y011321D01*
X018429Y011001D02*
X018309Y011001D01*
X018309Y010681D02*
X018429Y010681D01*
X018671Y010443D02*
X018671Y006765D01*
X018595Y006841D02*
X024175Y006841D01*
X024140Y004921D02*
X024417Y004921D01*
X024431Y004907D02*
X024431Y003734D01*
X024524Y003641D02*
X024578Y003641D01*
X024751Y003813D02*
X024751Y004587D01*
X024737Y004601D02*
X024351Y004601D01*
X024351Y004281D02*
X024751Y004281D01*
X024751Y003961D02*
X024351Y003961D01*
X024549Y003321D02*
X024554Y003321D01*
X024431Y003086D02*
X024431Y001597D01*
X024751Y001597D02*
X024751Y003007D01*
X024757Y003001D02*
X024345Y003001D01*
X024111Y002913D02*
X024111Y001597D01*
X023791Y001597D02*
X023791Y002967D01*
X023757Y003001D02*
X023345Y003001D01*
X023257Y002913D02*
X023549Y003204D01*
X023549Y003616D01*
X023257Y003908D01*
X022845Y003908D01*
X022554Y003616D01*
X022554Y003204D01*
X022845Y002913D01*
X023257Y002913D01*
X023151Y002913D02*
X023151Y001597D01*
X023471Y001597D02*
X023471Y003126D01*
X023549Y003321D02*
X023554Y003321D01*
X023578Y003641D02*
X023524Y003641D01*
X023471Y003694D02*
X023471Y004570D01*
X023151Y004569D02*
X023151Y003908D01*
X022831Y003893D02*
X022831Y004568D01*
X022511Y004566D02*
X022511Y003654D01*
X022524Y003641D02*
X022578Y003641D01*
X022554Y003321D02*
X022549Y003321D01*
X022511Y003166D02*
X022511Y001597D01*
X022831Y001597D02*
X022831Y002927D01*
X022757Y003001D02*
X022345Y003001D01*
X022191Y002913D02*
X022191Y001597D01*
X021871Y001597D02*
X021871Y002913D01*
X022191Y003908D02*
X022191Y004565D01*
X025071Y002913D02*
X025071Y001597D01*
X027311Y001597D02*
X027311Y002966D01*
X027345Y003001D02*
X028102Y003001D01*
X028141Y003321D02*
X027549Y003321D01*
X029231Y003862D02*
X029231Y021946D01*
X028911Y021927D02*
X028911Y021139D01*
X028654Y020281D02*
X030151Y020281D01*
X030151Y019321D02*
X028750Y019321D01*
X028591Y019363D02*
X028591Y020273D01*
X028271Y020273D02*
X028271Y019363D01*
X027951Y019363D02*
X027951Y020273D01*
X028121Y020281D02*
X028236Y020281D01*
X027631Y020731D02*
X027631Y020846D01*
X027951Y021303D02*
X027951Y024314D01*
X026991Y024314D02*
X026991Y022908D01*
X026778Y022841D02*
X026324Y022841D01*
X026351Y022814D02*
X026351Y024314D01*
X026671Y024314D02*
X026671Y022733D01*
X026554Y022521D02*
X026549Y022521D01*
X026545Y022201D02*
X026557Y022201D01*
X026671Y022087D02*
X026671Y019162D01*
X026351Y019162D02*
X026351Y022006D01*
X025391Y020881D02*
X025391Y019162D01*
X025071Y019162D02*
X025071Y020683D01*
X024431Y018482D02*
X024431Y017459D01*
X024111Y017459D02*
X024111Y018482D01*
X023791Y018430D02*
X023791Y017516D01*
X023795Y017516D02*
X023472Y017516D01*
X023472Y017600D01*
X023550Y017677D01*
X023795Y017516D02*
X023852Y017459D01*
X028365Y017459D01*
X028398Y017466D01*
X028432Y017459D01*
X028466Y017459D01*
X028498Y017446D01*
X028531Y017439D01*
X028560Y017420D01*
X028591Y017407D01*
X028271Y017459D02*
X028271Y018213D01*
X027951Y018213D02*
X027951Y017459D01*
X027631Y017459D02*
X027631Y018246D01*
X030151Y015801D02*
X023472Y015801D01*
X023472Y015481D02*
X030151Y015481D01*
X030151Y013881D02*
X024987Y013881D01*
X024994Y013561D02*
X030151Y013561D01*
X024111Y014002D02*
X024111Y014213D01*
X022872Y015801D02*
X022784Y015801D01*
X022831Y015781D02*
X022831Y016722D01*
X018351Y012678D02*
X018351Y012674D01*
X018031Y010459D02*
X018031Y007405D01*
X020911Y009598D02*
X020911Y009802D01*
X026671Y006516D02*
X026671Y006256D01*
X026735Y006201D02*
X030151Y006201D01*
X030151Y006521D02*
X027706Y006521D01*
X027631Y006420D02*
X027631Y001597D01*
X029716Y002681D02*
X030122Y002681D01*
X030151Y003001D02*
X029802Y003001D01*
X029763Y003321D02*
X030151Y003321D01*
X027206Y006521D02*
X027168Y006521D01*
X027168Y006841D02*
X027206Y006841D01*
X027777Y006841D02*
X030151Y006841D01*
X026770Y006166D02*
X026770Y006166D01*
X019070Y003001D02*
X019032Y003001D01*
X018671Y003391D02*
X018671Y003429D01*
X018351Y003091D02*
X018351Y001597D01*
X017391Y001597D02*
X017391Y003046D01*
X017345Y003001D02*
X017842Y003001D01*
X017071Y002913D02*
X017071Y001597D01*
X010351Y008517D02*
X010351Y008987D01*
X004271Y005231D02*
X004271Y024511D01*
X003951Y024519D02*
X003951Y005223D01*
X005231Y001284D02*
X005231Y014800D01*
X005190Y014841D02*
X001529Y014841D01*
X001529Y015161D02*
X004933Y015161D01*
X004926Y015481D02*
X001529Y015481D01*
X001529Y015801D02*
X004926Y015801D01*
X004926Y016121D02*
X001529Y016121D01*
X001529Y016441D02*
X004926Y016441D01*
X004926Y016761D02*
X001529Y016761D01*
X001529Y017081D02*
X004926Y017081D01*
X004926Y017401D02*
X001529Y017401D01*
X001529Y017721D02*
X004926Y017721D01*
X004926Y018041D02*
X001529Y018041D01*
X001529Y018361D02*
X004926Y018361D01*
X004926Y018681D02*
X001529Y018681D01*
X001529Y019001D02*
X004926Y019001D01*
X004926Y019321D02*
X001529Y019321D01*
X001529Y019641D02*
X004926Y019641D01*
X004926Y019961D02*
X001529Y019961D01*
X001529Y020281D02*
X004926Y020281D01*
X004926Y020601D02*
X001529Y020601D01*
X001529Y020921D02*
X004926Y020921D01*
X004926Y021241D02*
X001529Y021241D01*
X001529Y021561D02*
X004926Y021561D01*
X004926Y021881D02*
X001529Y021881D01*
X001529Y022201D02*
X004990Y022201D01*
X005231Y022442D02*
X005231Y027404D01*
X005551Y027404D02*
X005551Y022702D01*
X005310Y022521D02*
X001529Y022521D01*
X001529Y023481D02*
X006388Y023481D01*
X006511Y023430D02*
X006511Y023377D01*
X006612Y023481D02*
X006669Y023481D01*
X006831Y023455D02*
X006831Y023352D01*
X006894Y023481D02*
X007127Y023481D01*
X007151Y023203D02*
X007151Y023150D01*
X007168Y023161D02*
X007080Y023161D01*
X007641Y022371D02*
X005641Y022371D01*
X005871Y022651D02*
X005871Y027404D01*
X006339Y024441D02*
X001529Y024441D01*
X005632Y021881D02*
X006124Y021881D01*
X006191Y021606D02*
X006191Y019711D01*
X005930Y019641D02*
X005606Y019641D01*
X005871Y019582D02*
X005871Y022091D01*
X005606Y021561D02*
X006219Y021561D01*
X006511Y021365D02*
X006511Y019877D01*
X006831Y019852D02*
X006831Y021390D01*
X007062Y021561D02*
X007160Y021561D01*
X007151Y021539D02*
X007151Y021751D01*
X007158Y021881D02*
X007472Y021881D01*
X007471Y021882D02*
X007471Y021860D01*
X007151Y021991D02*
X007151Y022091D01*
X008111Y023150D02*
X008111Y023154D01*
X006831Y023842D02*
X006831Y023900D01*
X006669Y023801D02*
X006612Y023801D01*
X006511Y023842D02*
X006511Y023900D01*
X006612Y024121D02*
X006669Y024121D01*
X006511Y024312D02*
X006511Y024365D01*
X006191Y023900D02*
X006191Y023842D01*
X005606Y021241D02*
X007135Y021241D01*
X007151Y021202D02*
X007151Y019491D01*
X007089Y019641D02*
X007852Y019641D01*
X007791Y019666D02*
X007791Y019369D01*
X007906Y019321D02*
X012591Y019321D01*
X012591Y019342D02*
X012591Y018900D01*
X012620Y018871D01*
X012591Y018842D01*
X010391Y018371D02*
X006641Y018371D01*
X006831Y018852D02*
X006831Y018890D01*
X007002Y019001D02*
X007135Y019001D01*
X007151Y019039D02*
X007151Y019251D01*
X007158Y019321D02*
X007376Y019321D01*
X007471Y019360D02*
X007471Y020099D01*
X007528Y019961D02*
X005606Y019961D01*
X005606Y020281D02*
X007431Y020281D01*
X007465Y020601D02*
X005606Y020601D01*
X005606Y020921D02*
X007376Y020921D01*
X007471Y020882D02*
X007471Y020615D01*
X008111Y019547D02*
X008111Y019171D01*
X008431Y019171D02*
X008431Y019558D01*
X008630Y019641D02*
X016328Y019641D01*
X016431Y019925D02*
X016431Y019963D01*
X016647Y019961D02*
X008954Y019961D01*
X008751Y019720D02*
X008751Y019171D01*
X009071Y019171D02*
X009071Y020896D01*
X009391Y020896D02*
X009391Y019171D01*
X007160Y018681D02*
X007062Y018681D01*
X007151Y018703D02*
X007151Y018651D01*
X005610Y019321D02*
X005606Y019321D01*
X005510Y014521D02*
X001529Y014521D01*
X012591Y023787D02*
X012591Y025732D01*
X012602Y025721D02*
X010895Y025721D01*
X015471Y019126D02*
X015471Y019116D01*
X015791Y019116D02*
X015791Y019126D01*
X016111Y016126D02*
X016111Y016116D01*
X024111Y022921D02*
X024111Y024314D01*
X029865Y022841D02*
X030151Y022841D01*
X030151Y022521D02*
X029829Y022521D01*
X003951Y000951D02*
X003951Y000170D01*
D26*
X026006Y008570D02*
X027187Y007241D01*
X026006Y008570D02*
X026006Y009131D01*
D27*
X022592Y015406D03*
X021056Y018684D03*
X020318Y018782D03*
X020131Y019757D03*
X018192Y020938D03*
X017408Y018118D03*
X017090Y015111D03*
X015266Y014746D03*
X011834Y013881D03*
X011834Y012631D03*
X011794Y011105D03*
X011794Y009865D03*
X012266Y007121D03*
X016096Y006233D03*
X008891Y017371D03*
X012266Y018121D03*
X025016Y021121D03*
D28*
X008241Y020357D03*
X008241Y014865D03*
X008241Y009373D03*
X002346Y003271D03*
X002346Y026469D03*
M02*
