%
M48
M72
T01C0.0236
T02C0.0315
T03C0.0354
T04C0.0394
T05C0.0470
T06C0.0618
T07C0.0787
T08C0.1260
T09C0.1280
%
T01
X11794Y9865
X11794Y11105
X11834Y12631
X11834Y13881
X15266Y14746
X17090Y15111
X17408Y18118
X20318Y18782
X21056Y18684
X20131Y19757
X18192Y20938
X12266Y18121
X8891Y17371
X12266Y7121
X16096Y6233
X22592Y15406
X25016Y21121
T02
X25051Y22410
X24051Y22410
X23051Y22410
X22051Y22410
X21051Y22410
X20051Y22410
X18301Y22410
X17301Y22410
X16301Y22410
X15301Y22410
X14301Y22410
X13301Y22410
X12301Y22410
X11301Y22410
X26051Y22410
X27051Y22410
X26006Y9131
X27187Y7241
X27051Y3410
X26051Y3410
X25051Y3410
X24051Y3410
X23051Y3410
X22051Y3410
X20051Y3410
X19051Y3410
X18051Y3410
X17051Y3410
X16051Y3410
X15051Y3410
T03
X7641Y4871
X7641Y5871
X7641Y6871
X7641Y7871
X6641Y8371
X6641Y7371
X6641Y6371
X6641Y5371
X7641Y10371
X7641Y11371
X7641Y12371
X7641Y13371
X6641Y13871
X6641Y12871
X6641Y11871
X6641Y10871
X7641Y15871
X7641Y16871
X7641Y17871
X7641Y18871
X6641Y19371
X6641Y18371
X6641Y17371
X6641Y16371
X7641Y21371
X7641Y22371
X7641Y23371
X7641Y24371
X6641Y24871
X6641Y23871
X6641Y22871
X6641Y21871
T04
X24825Y7241
T05
X28174Y10623
X28174Y12591
X28178Y14788
X28178Y16788
X28178Y18788
X28178Y20788
T06
X8239Y20371
X8239Y14871
X8239Y9371
X2342Y3273
X2342Y26469
T07
X2346Y26469
X8241Y20357
X8241Y14865
X8241Y9373
X2346Y3271
T08
X3141Y1216
X28952Y3058
X29015Y22776
X10141Y26121
T09
X4141Y25371
X4141Y4371
M30
