G75*
G70*
%OFA0B0*%
%FSLAX24Y24*%
%IPPOS*%
%LPD*%
%AMOC8*
5,1,8,0,0,1.08239X$1,22.5*
%
%ADD10C,0.0040*%
%ADD11C,0.0030*%
%ADD12R,0.0260X0.0008*%
%ADD13R,0.0528X0.0008*%
%ADD14R,0.0685X0.0008*%
%ADD15R,0.0811X0.0008*%
%ADD16R,0.0906X0.0008*%
%ADD17R,0.1000X0.0008*%
%ADD18R,0.1102X0.0008*%
%ADD19R,0.1181X0.0008*%
%ADD20R,0.1252X0.0008*%
%ADD21R,0.1315X0.0008*%
%ADD22R,0.1394X0.0008*%
%ADD23R,0.1441X0.0008*%
%ADD24R,0.1496X0.0008*%
%ADD25R,0.1567X0.0008*%
%ADD26R,0.1630X0.0008*%
%ADD27R,0.1661X0.0008*%
%ADD28R,0.1709X0.0008*%
%ADD29R,0.1756X0.0008*%
%ADD30R,0.1811X0.0008*%
%ADD31R,0.1866X0.0008*%
%ADD32R,0.1890X0.0008*%
%ADD33R,0.1945X0.0008*%
%ADD34R,0.1976X0.0008*%
%ADD35R,0.2024X0.0008*%
%ADD36R,0.2055X0.0008*%
%ADD37R,0.2102X0.0008*%
%ADD38R,0.2126X0.0008*%
%ADD39R,0.2181X0.0008*%
%ADD40R,0.2205X0.0008*%
%ADD41R,0.2228X0.0008*%
%ADD42R,0.2276X0.0008*%
%ADD43R,0.2307X0.0008*%
%ADD44R,0.2339X0.0008*%
%ADD45R,0.2362X0.0008*%
%ADD46R,0.2386X0.0008*%
%ADD47R,0.2433X0.0008*%
%ADD48R,0.2449X0.0008*%
%ADD49R,0.2496X0.0008*%
%ADD50R,0.2520X0.0008*%
%ADD51R,0.2543X0.0008*%
%ADD52R,0.2575X0.0008*%
%ADD53R,0.2598X0.0008*%
%ADD54R,0.2622X0.0008*%
%ADD55R,0.2638X0.0008*%
%ADD56R,0.2669X0.0008*%
%ADD57R,0.2685X0.0008*%
%ADD58R,0.2701X0.0008*%
%ADD59R,0.2732X0.0008*%
%ADD60R,0.2756X0.0008*%
%ADD61R,0.2780X0.0008*%
%ADD62R,0.2811X0.0008*%
%ADD63R,0.2827X0.0008*%
%ADD64R,0.1465X0.0008*%
%ADD65R,0.1047X0.0008*%
%ADD66R,0.1402X0.0008*%
%ADD67R,0.1024X0.0008*%
%ADD68R,0.1378X0.0008*%
%ADD69R,0.0992X0.0008*%
%ADD70R,0.1354X0.0008*%
%ADD71R,0.0969X0.0008*%
%ADD72R,0.1339X0.0008*%
%ADD73R,0.0945X0.0008*%
%ADD74R,0.1307X0.0008*%
%ADD75R,0.1299X0.0008*%
%ADD76R,0.0929X0.0008*%
%ADD77R,0.1291X0.0008*%
%ADD78R,0.1260X0.0008*%
%ADD79R,0.0882X0.0008*%
%ADD80R,0.1244X0.0008*%
%ADD81R,0.1236X0.0008*%
%ADD82R,0.0874X0.0008*%
%ADD83R,0.0866X0.0008*%
%ADD84R,0.1228X0.0008*%
%ADD85R,0.0890X0.0008*%
%ADD86R,0.1205X0.0008*%
%ADD87R,0.0921X0.0008*%
%ADD88R,0.1213X0.0008*%
%ADD89R,0.1197X0.0008*%
%ADD90R,0.0953X0.0008*%
%ADD91R,0.1189X0.0008*%
%ADD92R,0.0984X0.0008*%
%ADD93R,0.1016X0.0008*%
%ADD94R,0.1031X0.0008*%
%ADD95R,0.1173X0.0008*%
%ADD96R,0.1079X0.0008*%
%ADD97R,0.1165X0.0008*%
%ADD98R,0.1087X0.0008*%
%ADD99R,0.1118X0.0008*%
%ADD100R,0.1142X0.0008*%
%ADD101R,0.1150X0.0008*%
%ADD102R,0.1157X0.0008*%
%ADD103R,0.1268X0.0008*%
%ADD104R,0.1283X0.0008*%
%ADD105R,0.1323X0.0008*%
%ADD106R,0.1370X0.0008*%
%ADD107R,0.1417X0.0008*%
%ADD108R,0.1457X0.0008*%
%ADD109R,0.1472X0.0008*%
%ADD110R,0.1512X0.0008*%
%ADD111R,0.1528X0.0008*%
%ADD112R,0.1535X0.0008*%
%ADD113R,0.1559X0.0008*%
%ADD114R,0.1575X0.0008*%
%ADD115R,0.1583X0.0008*%
%ADD116R,0.1598X0.0008*%
%ADD117R,0.1638X0.0008*%
%ADD118R,0.1654X0.0008*%
%ADD119R,0.1669X0.0008*%
%ADD120R,0.1693X0.0008*%
%ADD121R,0.1220X0.0008*%
%ADD122R,0.1724X0.0008*%
%ADD123R,0.1732X0.0008*%
%ADD124R,0.1748X0.0008*%
%ADD125R,0.0268X0.0008*%
%ADD126R,0.0252X0.0008*%
%ADD127R,0.0244X0.0008*%
%ADD128R,0.1425X0.0008*%
%ADD129R,0.1386X0.0008*%
%ADD130R,0.1276X0.0008*%
%ADD131R,0.1362X0.0008*%
%ADD132R,0.1346X0.0008*%
%ADD133R,0.1331X0.0008*%
%ADD134R,0.1409X0.0008*%
%ADD135R,0.1433X0.0008*%
%ADD136R,0.1449X0.0008*%
%ADD137R,0.1717X0.0008*%
%ADD138R,0.1677X0.0008*%
%ADD139R,0.1622X0.0008*%
%ADD140R,0.1614X0.0008*%
%ADD141R,0.1551X0.0008*%
%ADD142R,0.1520X0.0008*%
%ADD143R,0.1480X0.0008*%
%ADD144R,0.1071X0.0008*%
%ADD145R,0.1063X0.0008*%
%ADD146R,0.1055X0.0008*%
%ADD147R,0.1039X0.0008*%
%ADD148R,0.1008X0.0008*%
%ADD149R,0.0961X0.0008*%
%ADD150R,0.0976X0.0008*%
%ADD151R,0.2795X0.0008*%
%ADD152R,0.2677X0.0008*%
%ADD153R,0.2654X0.0008*%
%ADD154R,0.2559X0.0008*%
%ADD155R,0.2528X0.0008*%
%ADD156R,0.2465X0.0008*%
%ADD157R,0.2441X0.0008*%
%ADD158R,0.2417X0.0008*%
%ADD159R,0.2283X0.0008*%
%ADD160R,0.2260X0.0008*%
%ADD161R,0.2150X0.0008*%
%ADD162R,0.2087X0.0008*%
%ADD163R,0.2047X0.0008*%
%ADD164R,0.2008X0.0008*%
%ADD165R,0.1969X0.0008*%
%ADD166R,0.1929X0.0008*%
%ADD167R,0.1835X0.0008*%
%ADD168R,0.1787X0.0008*%
%ADD169R,0.0764X0.0008*%
%ADD170R,0.0638X0.0008*%
%ADD171R,0.0472X0.0008*%
%ADD172R,0.0102X0.0008*%
%ADD173C,0.0060*%
%ADD174C,0.0039*%
%ADD175C,0.0080*%
%ADD176C,0.0020*%
%ADD177R,0.0050X0.0200*%
%ADD178C,0.0050*%
D10*
X008661Y006266D02*
X008661Y006726D01*
X008891Y006726D01*
X008968Y006650D01*
X008968Y006496D01*
X008891Y006419D01*
X008661Y006419D01*
X009121Y006343D02*
X009198Y006266D01*
X009351Y006266D01*
X009428Y006343D01*
X009121Y006343D02*
X009121Y006650D01*
X009198Y006726D01*
X009351Y006726D01*
X009428Y006650D01*
X009351Y011516D02*
X009428Y011593D01*
X009428Y011976D01*
X009582Y011976D02*
X009888Y011976D01*
X009735Y011976D02*
X009735Y011516D01*
X010195Y011516D02*
X010195Y011976D01*
X010042Y011976D02*
X010349Y011976D01*
X010502Y011900D02*
X010502Y011593D01*
X010579Y011516D01*
X010732Y011516D01*
X010809Y011593D01*
X010809Y011900D01*
X010732Y011976D01*
X010579Y011976D01*
X010502Y011900D01*
X010963Y011976D02*
X010963Y011516D01*
X011270Y011516D02*
X011270Y011976D01*
X011423Y011900D02*
X011423Y011823D01*
X011500Y011746D01*
X011653Y011746D01*
X011730Y011669D01*
X011730Y011593D01*
X011653Y011516D01*
X011500Y011516D01*
X011423Y011593D01*
X011270Y011516D02*
X010963Y011976D01*
X011423Y011900D02*
X011500Y011976D01*
X011653Y011976D01*
X011730Y011900D01*
X009351Y011516D02*
X009198Y011516D01*
X009121Y011593D01*
X009121Y011976D01*
X008968Y011900D02*
X008968Y011823D01*
X008891Y011746D01*
X008661Y011746D01*
X008661Y011516D02*
X008891Y011516D01*
X008968Y011593D01*
X008968Y011669D01*
X008891Y011746D01*
X008968Y011900D02*
X008891Y011976D01*
X008661Y011976D01*
X008661Y011516D01*
X009411Y016516D02*
X009718Y016516D01*
X009871Y016516D02*
X009871Y016976D01*
X010101Y016976D01*
X010178Y016900D01*
X010178Y016746D01*
X010101Y016669D01*
X009871Y016669D01*
X010025Y016669D02*
X010178Y016516D01*
X010332Y016516D02*
X010332Y016823D01*
X010485Y016976D01*
X010638Y016823D01*
X010638Y016516D01*
X010638Y016746D02*
X010332Y016746D01*
X010332Y017141D02*
X010332Y017601D01*
X010485Y017448D01*
X010638Y017601D01*
X010638Y017141D01*
X010178Y017141D02*
X010178Y017448D01*
X010025Y017601D01*
X009871Y017448D01*
X009871Y017141D01*
X009718Y017218D02*
X009641Y017141D01*
X009488Y017141D01*
X009411Y017218D01*
X009411Y017525D01*
X009488Y017601D01*
X009641Y017601D01*
X009718Y017525D01*
X009871Y017371D02*
X010178Y017371D01*
X009718Y016976D02*
X009411Y016976D01*
X009411Y016516D01*
X009411Y016746D02*
X009564Y016746D01*
X011189Y020016D02*
X011036Y020169D01*
X011189Y020323D01*
X011496Y020323D01*
X011496Y020476D02*
X011036Y020476D01*
X011036Y020706D01*
X011112Y020783D01*
X011266Y020783D01*
X011342Y020706D01*
X011342Y020476D01*
X011342Y020630D02*
X011496Y020783D01*
X011496Y020937D02*
X011496Y021244D01*
X011496Y021397D02*
X011036Y021397D01*
X011036Y021704D01*
X011266Y021550D02*
X011266Y021397D01*
X011036Y021244D02*
X011036Y020937D01*
X011496Y020937D01*
X011266Y020937D02*
X011266Y021090D01*
X012036Y020976D02*
X012496Y021283D01*
X012036Y021283D01*
X012036Y021437D02*
X012036Y021667D01*
X012112Y021744D01*
X012419Y021744D01*
X012496Y021667D01*
X012496Y021437D01*
X012036Y021437D01*
X012036Y020976D02*
X012496Y020976D01*
X012419Y020823D02*
X012496Y020746D01*
X012496Y020593D01*
X012419Y020516D01*
X012112Y020516D01*
X012036Y020593D01*
X012036Y020746D01*
X012112Y020823D01*
X012266Y020823D02*
X012266Y020669D01*
X012266Y020823D02*
X012419Y020823D01*
X013036Y021044D02*
X013496Y021044D01*
X013496Y020891D02*
X013496Y021198D01*
X013419Y021351D02*
X013496Y021428D01*
X013496Y021581D01*
X013419Y021658D01*
X013342Y021658D01*
X013266Y021581D01*
X013266Y021505D01*
X013266Y021581D02*
X013189Y021658D01*
X013112Y021658D01*
X013036Y021581D01*
X013036Y021428D01*
X013112Y021351D01*
X013036Y021044D02*
X013189Y020891D01*
X014036Y021044D02*
X014189Y020891D01*
X014036Y021044D02*
X014496Y021044D01*
X014496Y020891D02*
X014496Y021198D01*
X014496Y021351D02*
X014189Y021658D01*
X014112Y021658D01*
X014036Y021581D01*
X014036Y021428D01*
X014112Y021351D01*
X014496Y021351D02*
X014496Y021658D01*
X015036Y021505D02*
X015496Y021505D01*
X015496Y021658D02*
X015496Y021351D01*
X015496Y021198D02*
X015496Y020891D01*
X015496Y021044D02*
X015036Y021044D01*
X015189Y020891D01*
X015189Y021351D02*
X015036Y021505D01*
X016036Y021428D02*
X016036Y021581D01*
X016112Y021658D01*
X016419Y021351D01*
X016496Y021428D01*
X016496Y021581D01*
X016419Y021658D01*
X016112Y021658D01*
X016036Y021428D02*
X016112Y021351D01*
X016419Y021351D01*
X016496Y021198D02*
X016496Y020891D01*
X016496Y021044D02*
X016036Y021044D01*
X016189Y020891D01*
X017036Y021468D02*
X017036Y021621D01*
X017112Y021698D01*
X017419Y021698D01*
X017496Y021621D01*
X017496Y021468D01*
X017419Y021391D01*
X017266Y021468D02*
X017266Y021698D01*
X017266Y021468D02*
X017189Y021391D01*
X017112Y021391D01*
X017036Y021468D01*
X018036Y021468D02*
X018036Y021621D01*
X018112Y021698D01*
X018189Y021698D01*
X018266Y021621D01*
X018266Y021468D01*
X018189Y021391D01*
X018112Y021391D01*
X018036Y021468D01*
X018266Y021468D02*
X018342Y021391D01*
X018419Y021391D01*
X018496Y021468D01*
X018496Y021621D01*
X018419Y021698D01*
X018342Y021698D01*
X018266Y021621D01*
X019786Y023141D02*
X019786Y023448D01*
X019862Y023448D01*
X020169Y023141D01*
X020246Y023141D01*
X020737Y023294D02*
X020661Y023448D01*
X020737Y023294D02*
X020891Y023141D01*
X020891Y023371D01*
X020967Y023448D01*
X021044Y023448D01*
X021121Y023371D01*
X021121Y023218D01*
X021044Y023141D01*
X020891Y023141D01*
X021786Y023141D02*
X022016Y023141D01*
X021939Y023294D01*
X021939Y023371D01*
X022016Y023448D01*
X022169Y023448D01*
X022246Y023371D01*
X022246Y023218D01*
X022169Y023141D01*
X021786Y023141D02*
X021786Y023448D01*
X022786Y023371D02*
X023016Y023141D01*
X023016Y023448D01*
X023246Y023371D02*
X022786Y023371D01*
X023786Y023371D02*
X023862Y023448D01*
X023939Y023448D01*
X024016Y023371D01*
X024092Y023448D01*
X024169Y023448D01*
X024246Y023371D01*
X024246Y023218D01*
X024169Y023141D01*
X024016Y023294D02*
X024016Y023371D01*
X023786Y023371D02*
X023786Y023218D01*
X023862Y023141D01*
X024786Y023218D02*
X024862Y023141D01*
X024786Y023218D02*
X024786Y023371D01*
X024862Y023448D01*
X024939Y023448D01*
X025246Y023141D01*
X025246Y023448D01*
X025795Y023277D02*
X026256Y023277D01*
X026256Y023430D02*
X026256Y023123D01*
X025949Y023123D02*
X025795Y023277D01*
X026813Y023206D02*
X026890Y023129D01*
X027197Y023129D01*
X026890Y023436D01*
X027197Y023436D01*
X027273Y023359D01*
X027273Y023206D01*
X027197Y023129D01*
X026813Y023206D02*
X026813Y023359D01*
X026890Y023436D01*
X026158Y020734D02*
X025928Y020734D01*
X025928Y020274D01*
X026158Y020274D01*
X026235Y020351D01*
X026235Y020657D01*
X026158Y020734D01*
X025774Y020734D02*
X025774Y020274D01*
X025467Y020734D01*
X025467Y020274D01*
X025314Y020351D02*
X025314Y020504D01*
X025161Y020504D01*
X025314Y020657D02*
X025237Y020734D01*
X025084Y020734D01*
X025007Y020657D01*
X025007Y020351D01*
X025084Y020274D01*
X025237Y020274D01*
X025314Y020351D01*
X025168Y014933D02*
X025015Y014933D01*
X024938Y014856D01*
X024785Y014703D02*
X024478Y014703D01*
X024631Y014856D02*
X024631Y014549D01*
X024938Y014473D02*
X025245Y014780D01*
X025245Y014856D01*
X025168Y014933D01*
X025399Y014703D02*
X025705Y014703D01*
X025859Y014626D02*
X026012Y014473D01*
X026166Y014626D01*
X026166Y014933D01*
X025859Y014933D02*
X025859Y014626D01*
X025629Y014473D02*
X025629Y014933D01*
X025399Y014703D01*
X025245Y014473D02*
X024938Y014473D01*
X015246Y006084D02*
X014786Y006084D01*
X014786Y006237D02*
X014786Y005930D01*
X014786Y005777D02*
X014786Y005470D01*
X015246Y005470D01*
X015246Y005777D01*
X015016Y005624D02*
X015016Y005470D01*
X015092Y005317D02*
X015169Y005317D01*
X015246Y005240D01*
X015246Y005086D01*
X015169Y005010D01*
X015016Y005086D02*
X015016Y005240D01*
X015092Y005317D01*
X014862Y005317D02*
X014786Y005240D01*
X014786Y005086D01*
X014862Y005010D01*
X014939Y005010D01*
X015016Y005086D01*
X015246Y004856D02*
X015246Y004549D01*
X014786Y004549D01*
X014786Y004856D01*
X015016Y004703D02*
X015016Y004549D01*
X015016Y004396D02*
X014862Y004396D01*
X014786Y004319D01*
X014786Y004089D01*
X015246Y004089D01*
X015092Y004089D02*
X015092Y004319D01*
X015016Y004396D01*
X015092Y004242D02*
X015246Y004396D01*
X015786Y004365D02*
X015862Y004442D01*
X015939Y004442D01*
X016016Y004365D01*
X016092Y004442D01*
X016169Y004442D01*
X016246Y004365D01*
X016246Y004211D01*
X016169Y004135D01*
X016016Y004288D02*
X016016Y004365D01*
X015786Y004365D02*
X015786Y004211D01*
X015862Y004135D01*
X015786Y004595D02*
X016092Y004595D01*
X016246Y004749D01*
X016092Y004902D01*
X015786Y004902D01*
X015862Y005056D02*
X015786Y005132D01*
X015786Y005286D01*
X015862Y005362D01*
X015939Y005362D01*
X016016Y005286D01*
X016092Y005362D01*
X016169Y005362D01*
X016246Y005286D01*
X016246Y005132D01*
X016169Y005056D01*
X016016Y005209D02*
X016016Y005286D01*
X017268Y004987D02*
X017575Y004987D01*
X017728Y004834D01*
X017575Y004681D01*
X017268Y004681D01*
X017268Y004527D02*
X017268Y004220D01*
X017498Y004220D01*
X017421Y004374D01*
X017421Y004450D01*
X017498Y004527D01*
X017651Y004527D01*
X017728Y004450D01*
X017728Y004297D01*
X017651Y004220D01*
X018052Y004093D02*
X018129Y004016D01*
X018283Y004016D01*
X018359Y004093D01*
X018359Y004246D01*
X018206Y004246D01*
X018359Y004400D02*
X018283Y004476D01*
X018129Y004476D01*
X018052Y004400D01*
X018052Y004093D01*
X018513Y004016D02*
X018513Y004476D01*
X018820Y004016D01*
X018820Y004476D01*
X018973Y004476D02*
X019203Y004476D01*
X019280Y004400D01*
X019280Y004093D01*
X019203Y004016D01*
X018973Y004016D01*
X018973Y004476D01*
X019786Y004476D02*
X019786Y004630D01*
X019786Y004553D02*
X020246Y004553D01*
X020246Y004476D02*
X020246Y004630D01*
X020246Y004783D02*
X019786Y004783D01*
X020246Y005090D01*
X019786Y005090D01*
X019786Y004323D02*
X020092Y004323D01*
X020246Y004169D01*
X020092Y004016D01*
X019786Y004016D01*
X021046Y004141D02*
X021046Y004448D01*
X021199Y004601D01*
X021353Y004448D01*
X021353Y004141D01*
X021506Y004141D02*
X021506Y004601D01*
X021813Y004141D01*
X021813Y004601D01*
X021967Y004448D02*
X021967Y004141D01*
X021967Y004371D02*
X022273Y004371D01*
X022273Y004448D02*
X022273Y004141D01*
X022427Y004141D02*
X022734Y004141D01*
X022887Y004218D02*
X022887Y004525D01*
X022964Y004601D01*
X023117Y004601D01*
X023194Y004525D01*
X023194Y004218D01*
X023117Y004141D01*
X022964Y004141D01*
X022887Y004218D01*
X023348Y004218D02*
X023348Y004525D01*
X023424Y004601D01*
X023578Y004601D01*
X023654Y004525D01*
X023654Y004371D02*
X023501Y004371D01*
X023654Y004371D02*
X023654Y004218D01*
X023578Y004141D01*
X023424Y004141D01*
X023348Y004218D01*
X024268Y004141D02*
X024422Y004141D01*
X024345Y004141D02*
X024345Y004601D01*
X024268Y004601D02*
X024422Y004601D01*
X024575Y004601D02*
X024882Y004141D01*
X024882Y004601D01*
X024575Y004601D02*
X024575Y004141D01*
X024862Y002698D02*
X024939Y002698D01*
X025016Y002621D01*
X025092Y002698D01*
X025169Y002698D01*
X025246Y002621D01*
X025246Y002468D01*
X025169Y002391D01*
X025016Y002544D02*
X025016Y002621D01*
X024862Y002698D02*
X024786Y002621D01*
X024786Y002468D01*
X024862Y002391D01*
X024246Y002391D02*
X023939Y002698D01*
X023862Y002698D01*
X023786Y002621D01*
X023786Y002468D01*
X023862Y002391D01*
X024246Y002391D02*
X024246Y002698D01*
X023246Y002698D02*
X023246Y002391D01*
X023246Y002544D02*
X022786Y002544D01*
X022939Y002391D01*
X022246Y002468D02*
X022169Y002391D01*
X021862Y002698D01*
X022169Y002698D01*
X022246Y002621D01*
X022246Y002468D01*
X022169Y002391D02*
X021862Y002391D01*
X021786Y002468D01*
X021786Y002621D01*
X021862Y002698D01*
X022427Y004141D02*
X022427Y004601D01*
X022273Y004448D02*
X022120Y004601D01*
X021967Y004448D01*
X021353Y004371D02*
X021046Y004371D01*
X025786Y002621D02*
X026016Y002391D01*
X026016Y002698D01*
X026246Y002621D02*
X025786Y002621D01*
X026786Y002698D02*
X026786Y002391D01*
X027016Y002391D01*
X026939Y002544D01*
X026939Y002621D01*
X027016Y002698D01*
X027169Y002698D01*
X027246Y002621D01*
X027246Y002468D01*
X027169Y002391D01*
X011496Y020016D02*
X011189Y020016D01*
X011266Y020016D02*
X011266Y020323D01*
X010276Y023255D02*
X010276Y023715D01*
X010506Y023715D01*
X010583Y023639D01*
X010583Y023485D01*
X010506Y023409D01*
X010276Y023409D01*
X010123Y023255D02*
X010123Y023715D01*
X009969Y023562D01*
X009816Y023715D01*
X009816Y023255D01*
X009662Y023255D02*
X009355Y023255D01*
X009355Y023715D01*
X009662Y023715D01*
X009509Y023485D02*
X009355Y023485D01*
X009202Y023715D02*
X008895Y023715D01*
X009049Y023715D02*
X009049Y023255D01*
D11*
X009549Y021954D02*
X009734Y021954D01*
X009795Y021892D01*
X009795Y021769D01*
X009734Y021707D01*
X009549Y021707D01*
X009672Y021707D02*
X009795Y021584D01*
X009917Y021645D02*
X009979Y021584D01*
X010102Y021584D01*
X010164Y021645D01*
X010164Y021769D01*
X010102Y021831D01*
X010040Y021831D01*
X009917Y021769D01*
X009917Y021954D01*
X010164Y021954D01*
X009549Y021954D02*
X009549Y021584D01*
X014381Y018954D02*
X014381Y018831D01*
X014381Y018893D02*
X014689Y018893D01*
X014751Y018831D01*
X014751Y018769D01*
X014689Y018707D01*
X014751Y018586D02*
X014751Y018339D01*
X014504Y018586D01*
X014442Y018586D01*
X014381Y018524D01*
X014381Y018401D01*
X014442Y018339D01*
X014442Y018218D02*
X014689Y017971D01*
X014751Y018032D01*
X014751Y018156D01*
X014689Y018218D01*
X014442Y018218D01*
X014381Y018156D01*
X014381Y018032D01*
X014442Y017971D01*
X014689Y017971D01*
X014689Y017849D02*
X014442Y017849D01*
X014381Y017788D01*
X014381Y017664D01*
X014442Y017602D01*
X014504Y017602D01*
X014566Y017664D01*
X014566Y017849D01*
X014689Y017849D02*
X014751Y017788D01*
X014751Y017664D01*
X014689Y017602D01*
X014566Y017481D02*
X014566Y017234D01*
X014751Y017113D02*
X014751Y016866D01*
X014381Y016866D01*
X014442Y016744D02*
X014566Y016744D01*
X014627Y016683D01*
X014627Y016498D01*
X014751Y016498D02*
X014381Y016498D01*
X014381Y016683D01*
X014442Y016744D01*
X014442Y016376D02*
X014381Y016314D01*
X014381Y016191D01*
X014442Y016129D01*
X014689Y016129D01*
X014751Y016191D01*
X014751Y016314D01*
X014689Y016376D01*
X014751Y016008D02*
X014381Y016008D01*
X014566Y016008D02*
X014566Y015761D01*
X014751Y015761D02*
X014381Y015761D01*
X018055Y015064D02*
X018055Y014870D01*
X018104Y014822D01*
X018201Y014822D01*
X018249Y014870D01*
X018350Y014870D02*
X018398Y014822D01*
X018495Y014822D01*
X018544Y014870D01*
X018544Y014967D01*
X018495Y015015D01*
X018447Y015015D01*
X018350Y014967D01*
X018350Y015112D01*
X018544Y015112D01*
X018249Y015064D02*
X018201Y015112D01*
X018104Y015112D01*
X018055Y015064D01*
X018083Y014009D02*
X017986Y014009D01*
X017938Y013960D01*
X017938Y013767D01*
X017986Y013719D01*
X018083Y013719D01*
X018131Y013767D01*
X018232Y013864D02*
X018426Y013864D01*
X018377Y014009D02*
X018232Y013864D01*
X018131Y013960D02*
X018083Y014009D01*
X018377Y014009D02*
X018377Y013719D01*
X018342Y012808D02*
X018342Y012518D01*
X018245Y012518D02*
X018439Y012518D01*
X018245Y012711D02*
X018342Y012808D01*
X018144Y012760D02*
X018096Y012808D01*
X017999Y012808D01*
X017950Y012760D01*
X017950Y012566D01*
X017999Y012518D01*
X018096Y012518D01*
X018144Y012566D01*
X018234Y011578D02*
X018186Y011529D01*
X018234Y011578D02*
X018331Y011578D01*
X018379Y011529D01*
X018379Y011481D01*
X018186Y011287D01*
X018379Y011287D01*
X018085Y011336D02*
X018036Y011287D01*
X017940Y011287D01*
X017891Y011336D01*
X017891Y011529D01*
X017940Y011578D01*
X018036Y011578D01*
X018085Y011529D01*
X020202Y009183D02*
X020140Y009122D01*
X020140Y008875D01*
X020202Y008813D01*
X020325Y008813D01*
X020387Y008875D01*
X020508Y008875D02*
X020570Y008813D01*
X020694Y008813D01*
X020755Y008875D01*
X020755Y008937D01*
X020694Y008998D01*
X020632Y008998D01*
X020694Y008998D02*
X020755Y009060D01*
X020755Y009122D01*
X020694Y009183D01*
X020570Y009183D01*
X020508Y009122D01*
X020387Y009122D02*
X020325Y009183D01*
X020202Y009183D01*
X020210Y008006D02*
X020017Y008006D01*
X020114Y008006D02*
X020114Y007716D01*
X020312Y007716D02*
X020312Y007909D01*
X020408Y008006D01*
X020505Y007909D01*
X020505Y007716D01*
X020606Y007716D02*
X020751Y007716D01*
X020800Y007764D01*
X020800Y007812D01*
X020751Y007861D01*
X020606Y007861D01*
X020505Y007861D02*
X020312Y007861D01*
X020606Y007716D02*
X020606Y008006D01*
X020751Y008006D01*
X020800Y007958D01*
X020800Y007909D01*
X020751Y007861D01*
X020901Y008006D02*
X020901Y007716D01*
X021094Y007716D01*
X021195Y007716D02*
X021389Y007716D01*
X021292Y007861D02*
X021195Y007861D01*
X021195Y008006D02*
X021195Y007716D01*
X021088Y007385D02*
X020943Y007385D01*
X020894Y007336D01*
X020894Y007239D01*
X020943Y007191D01*
X021088Y007191D01*
X021336Y006911D02*
X021336Y006718D01*
X021385Y006669D01*
X021484Y006669D02*
X021484Y006863D01*
X021484Y006766D02*
X021581Y006863D01*
X021629Y006863D01*
X021730Y006863D02*
X021730Y006718D01*
X021778Y006669D01*
X021923Y006669D01*
X021923Y006863D01*
X022024Y006960D02*
X022024Y006669D01*
X022024Y006766D02*
X022170Y006863D01*
X022270Y006863D02*
X022367Y006863D01*
X022318Y006911D02*
X022318Y006718D01*
X022367Y006669D01*
X022466Y006669D02*
X022515Y006669D01*
X022515Y006718D01*
X022466Y006718D01*
X022466Y006669D01*
X022614Y006718D02*
X022662Y006669D01*
X022807Y006669D01*
X022908Y006718D02*
X022957Y006669D01*
X023053Y006669D01*
X023102Y006718D01*
X023102Y006815D01*
X023053Y006863D01*
X022957Y006863D01*
X022908Y006815D01*
X022908Y006718D01*
X022807Y006863D02*
X022662Y006863D01*
X022614Y006815D01*
X022614Y006718D01*
X022170Y006669D02*
X022024Y006766D01*
X022073Y007191D02*
X022266Y007481D01*
X022367Y007433D02*
X022416Y007481D01*
X022513Y007481D01*
X022561Y007433D01*
X022561Y007385D01*
X022367Y007191D01*
X022561Y007191D01*
X022662Y007239D02*
X022856Y007433D01*
X022856Y007239D01*
X022807Y007191D01*
X022710Y007191D01*
X022662Y007239D01*
X022662Y007433D01*
X022710Y007481D01*
X022807Y007481D01*
X022856Y007433D01*
X022957Y007385D02*
X023054Y007481D01*
X023054Y007191D01*
X023150Y007191D02*
X022957Y007191D01*
X023251Y007239D02*
X023445Y007433D01*
X023445Y007239D01*
X023397Y007191D01*
X023300Y007191D01*
X023251Y007239D01*
X023251Y007433D01*
X023300Y007481D01*
X023397Y007481D01*
X023445Y007433D01*
X023454Y007716D02*
X023454Y008006D01*
X023600Y008006D01*
X023648Y007958D01*
X023648Y007861D01*
X023600Y007812D01*
X023454Y007812D01*
X023551Y007812D02*
X023648Y007716D01*
X023353Y007716D02*
X023160Y007716D01*
X023160Y008006D01*
X023353Y008006D01*
X023256Y007861D02*
X023160Y007861D01*
X023059Y007861D02*
X022962Y007861D01*
X023059Y007861D02*
X023059Y007764D01*
X023010Y007716D01*
X022913Y007716D01*
X022865Y007764D01*
X022865Y007958D01*
X022913Y008006D01*
X023010Y008006D01*
X023059Y007958D01*
X022764Y007958D02*
X022716Y008006D01*
X022619Y008006D01*
X022570Y007958D01*
X022570Y007764D01*
X022619Y007716D01*
X022716Y007716D01*
X022764Y007764D01*
X022764Y007861D01*
X022667Y007861D01*
X022471Y008006D02*
X022374Y008006D01*
X022422Y008006D02*
X022422Y007716D01*
X022374Y007716D02*
X022471Y007716D01*
X022273Y007716D02*
X022176Y007812D01*
X022225Y007812D02*
X022079Y007812D01*
X022079Y007716D02*
X022079Y008006D01*
X022225Y008006D01*
X022273Y007958D01*
X022273Y007861D01*
X022225Y007812D01*
X021978Y008006D02*
X021785Y008006D01*
X021881Y008006D02*
X021881Y007716D01*
X021972Y007481D02*
X021875Y007433D01*
X021778Y007336D01*
X021923Y007336D01*
X021972Y007288D01*
X021972Y007239D01*
X021923Y007191D01*
X021827Y007191D01*
X021778Y007239D01*
X021778Y007336D01*
X021677Y007239D02*
X021629Y007191D01*
X021532Y007191D01*
X021484Y007239D01*
X021677Y007433D01*
X021677Y007239D01*
X021484Y007239D02*
X021484Y007433D01*
X021532Y007481D01*
X021629Y007481D01*
X021677Y007433D01*
X021385Y006863D02*
X021288Y006863D01*
X021187Y006863D02*
X021042Y006863D01*
X020993Y006815D01*
X021042Y006766D01*
X021138Y006766D01*
X021187Y006718D01*
X021138Y006669D01*
X020993Y006669D01*
X020894Y006669D02*
X020846Y006669D01*
X020846Y006718D01*
X020894Y006718D01*
X020894Y006669D01*
X020745Y006718D02*
X020745Y006863D01*
X020745Y006718D02*
X020696Y006669D01*
X020648Y006718D01*
X020600Y006669D01*
X020551Y006718D01*
X020551Y006863D01*
X020450Y006863D02*
X020450Y006718D01*
X020402Y006669D01*
X020353Y006718D01*
X020305Y006669D01*
X020257Y006718D01*
X020257Y006863D01*
X020155Y006863D02*
X020155Y006718D01*
X020107Y006669D01*
X020059Y006718D01*
X020010Y006669D01*
X019962Y006718D01*
X019962Y006863D01*
X020008Y007191D02*
X019911Y007191D01*
X019863Y007239D01*
X019863Y007336D01*
X019911Y007385D01*
X020008Y007385D01*
X020056Y007336D01*
X020056Y007288D01*
X019863Y007288D01*
X019763Y007385D02*
X019714Y007385D01*
X019617Y007288D01*
X019617Y007191D02*
X019617Y007385D01*
X019573Y007716D02*
X019621Y007764D01*
X019621Y008006D01*
X019722Y008006D02*
X019722Y007716D01*
X019722Y007812D02*
X019916Y008006D01*
X019771Y007861D02*
X019916Y007716D01*
X019573Y007716D02*
X019476Y007716D01*
X019428Y007764D01*
X019428Y008006D01*
X019326Y007958D02*
X019278Y008006D01*
X019133Y008006D01*
X019133Y007716D01*
X019133Y007812D02*
X019278Y007812D01*
X019326Y007861D01*
X019326Y007958D01*
X019230Y007812D02*
X019326Y007716D01*
X018935Y007716D02*
X018935Y008006D01*
X018838Y008006D02*
X019032Y008006D01*
X018737Y007958D02*
X018689Y008006D01*
X018592Y008006D01*
X018544Y007958D01*
X018544Y007909D01*
X018592Y007861D01*
X018689Y007861D01*
X018737Y007812D01*
X018737Y007764D01*
X018689Y007716D01*
X018592Y007716D01*
X018544Y007764D01*
X020158Y007385D02*
X020254Y007191D01*
X020351Y007385D01*
X020452Y007239D02*
X020501Y007239D01*
X020501Y007191D01*
X020452Y007191D01*
X020452Y007239D01*
X021195Y008006D02*
X021389Y008006D01*
X023203Y006863D02*
X023251Y006863D01*
X023300Y006815D01*
X023348Y006863D01*
X023396Y006815D01*
X023396Y006669D01*
X023300Y006669D02*
X023300Y006815D01*
X023203Y006863D02*
X023203Y006669D01*
X025609Y009969D02*
X025609Y010259D01*
X025705Y010162D01*
X025802Y010259D01*
X025802Y009969D01*
X025903Y010017D02*
X025952Y009969D01*
X026048Y009969D01*
X026097Y010017D01*
X026097Y010210D01*
X026048Y010259D01*
X025952Y010259D01*
X025903Y010210D01*
X025903Y010017D01*
X025951Y010409D02*
X026047Y010409D01*
X026096Y010458D01*
X026096Y010651D01*
X026047Y010700D01*
X025951Y010700D01*
X025902Y010651D01*
X025902Y010458D01*
X025951Y010409D01*
X025801Y010409D02*
X025704Y010506D01*
X025753Y010506D02*
X025608Y010506D01*
X025608Y010409D02*
X025608Y010700D01*
X025753Y010700D01*
X025801Y010651D01*
X025801Y010555D01*
X025753Y010506D01*
X025506Y010555D02*
X025313Y010555D01*
X025212Y010651D02*
X025163Y010700D01*
X025067Y010700D01*
X025018Y010651D01*
X025018Y010458D01*
X025067Y010409D01*
X025163Y010409D01*
X025212Y010458D01*
X025313Y010409D02*
X025313Y010700D01*
X025506Y010700D02*
X025506Y010409D01*
X026197Y010555D02*
X026390Y010555D01*
X025305Y011648D02*
X025305Y011841D01*
X025256Y011890D01*
X025160Y011890D01*
X025111Y011841D01*
X025111Y011793D01*
X025160Y011745D01*
X025305Y011745D01*
X025305Y011648D02*
X025256Y011599D01*
X025160Y011599D01*
X025111Y011648D01*
X025010Y011599D02*
X024913Y011696D01*
X024962Y011696D02*
X024817Y011696D01*
X024817Y011599D02*
X024817Y011890D01*
X024962Y011890D01*
X025010Y011841D01*
X025010Y011745D01*
X024962Y011696D01*
X025360Y012711D02*
X025483Y012711D01*
X025545Y012773D01*
X025545Y012896D01*
X025421Y012896D01*
X025298Y012773D02*
X025360Y012711D01*
X025298Y012773D02*
X025298Y013020D01*
X025360Y013082D01*
X025483Y013082D01*
X025545Y013020D01*
X025666Y013082D02*
X025913Y012711D01*
X025913Y013082D01*
X026035Y013082D02*
X026220Y013082D01*
X026281Y013020D01*
X026281Y012773D01*
X026220Y012711D01*
X026035Y012711D01*
X026035Y013082D01*
X025666Y013082D02*
X025666Y012711D01*
X023620Y012826D02*
X023620Y012579D01*
X023373Y012826D01*
X023311Y012826D01*
X023250Y012765D01*
X023250Y012641D01*
X023311Y012579D01*
X023250Y012458D02*
X023620Y012211D01*
X023620Y012090D02*
X023373Y012090D01*
X023250Y011966D01*
X023373Y011843D01*
X023620Y011843D01*
X023620Y011721D02*
X023250Y011721D01*
X023373Y011598D01*
X023250Y011475D01*
X023620Y011475D01*
X023435Y011843D02*
X023435Y012090D01*
X023250Y012211D02*
X023620Y012458D01*
X023558Y012948D02*
X023620Y013009D01*
X023620Y013133D01*
X023558Y013195D01*
X023497Y013195D01*
X023435Y013133D01*
X023435Y013071D01*
X023435Y013133D02*
X023373Y013195D01*
X023311Y013195D01*
X023250Y013133D01*
X023250Y013009D01*
X023311Y012948D01*
X023311Y013316D02*
X023250Y013378D01*
X023250Y013501D01*
X023311Y013563D01*
X023373Y013563D01*
X023620Y013316D01*
X023620Y013563D01*
X023510Y015191D02*
X023386Y015191D01*
X023325Y015252D01*
X023325Y015499D01*
X023386Y015561D01*
X023510Y015561D01*
X023572Y015499D01*
X023693Y015376D02*
X023878Y015376D01*
X023940Y015314D01*
X023940Y015252D01*
X023878Y015191D01*
X023755Y015191D01*
X023693Y015252D01*
X023693Y015376D01*
X023816Y015499D01*
X023940Y015561D01*
X023572Y015252D02*
X023510Y015191D01*
X023404Y016450D02*
X023651Y016450D01*
X023772Y016450D02*
X023772Y016820D01*
X024019Y016820D01*
X024141Y016820D02*
X024326Y016820D01*
X024387Y016759D01*
X024387Y016512D01*
X024326Y016450D01*
X024141Y016450D01*
X024141Y016820D01*
X023896Y016635D02*
X023772Y016635D01*
X023772Y016450D02*
X024019Y016450D01*
X024509Y016388D02*
X024756Y016388D01*
X024877Y016512D02*
X024939Y016450D01*
X025062Y016450D01*
X025124Y016512D01*
X025124Y016759D02*
X025062Y016820D01*
X024939Y016820D01*
X024877Y016759D01*
X024877Y016512D01*
X025245Y016820D02*
X025492Y016820D01*
X025614Y016820D02*
X025614Y016450D01*
X025614Y016573D02*
X025799Y016573D01*
X025861Y016635D01*
X025861Y016759D01*
X025799Y016820D01*
X025614Y016820D01*
X025369Y016820D02*
X025369Y016450D01*
X025737Y016573D02*
X025861Y016450D01*
X025982Y016450D02*
X026229Y016450D01*
X026350Y016450D02*
X026597Y016697D01*
X026597Y016759D01*
X026536Y016820D01*
X026412Y016820D01*
X026350Y016759D01*
X026350Y016450D02*
X026597Y016450D01*
X025982Y016450D02*
X025982Y016820D01*
X023980Y017962D02*
X023787Y017962D01*
X023980Y018155D01*
X023980Y018204D01*
X023932Y018252D01*
X023835Y018252D01*
X023787Y018204D01*
X023686Y018204D02*
X023637Y018252D01*
X023541Y018252D01*
X023492Y018204D01*
X023492Y018010D01*
X023541Y017962D01*
X023637Y017962D01*
X023686Y018010D01*
X023686Y018204D01*
X023589Y018059D02*
X023686Y017962D01*
X023837Y019048D02*
X024084Y019048D01*
X024205Y019048D02*
X024452Y019048D01*
X024574Y019048D02*
X024759Y019048D01*
X024820Y019110D01*
X024820Y019357D01*
X024759Y019419D01*
X024574Y019419D01*
X024574Y019048D01*
X024329Y019234D02*
X024205Y019234D01*
X024205Y019419D02*
X024205Y019048D01*
X023837Y019048D02*
X023837Y019419D01*
X023826Y019732D02*
X024020Y019732D01*
X023923Y019732D02*
X023923Y020023D01*
X023826Y019926D01*
X023725Y019974D02*
X023725Y019781D01*
X023677Y019732D01*
X023580Y019732D01*
X023532Y019781D01*
X023532Y019974D01*
X023580Y020023D01*
X023677Y020023D01*
X023725Y019974D01*
X023629Y019829D02*
X023725Y019732D01*
X024205Y019419D02*
X024452Y019419D01*
X024942Y018987D02*
X025189Y018987D01*
X025310Y019110D02*
X025372Y019048D01*
X025495Y019048D01*
X025557Y019110D01*
X025310Y019110D02*
X025310Y019357D01*
X025372Y019419D01*
X025495Y019419D01*
X025557Y019357D01*
X025679Y019419D02*
X025925Y019419D01*
X026047Y019419D02*
X026232Y019419D01*
X026294Y019357D01*
X026294Y019234D01*
X026232Y019172D01*
X026047Y019172D01*
X026170Y019172D02*
X026294Y019048D01*
X026415Y019048D02*
X026662Y019048D01*
X026415Y019048D02*
X026415Y019419D01*
X026047Y019419D02*
X026047Y019048D01*
X025802Y019048D02*
X025802Y019419D01*
X023404Y016820D02*
X023404Y016450D01*
X021568Y018371D02*
X021568Y018419D01*
X021761Y018613D01*
X021761Y018661D01*
X021568Y018661D01*
X021467Y018613D02*
X021467Y018516D01*
X021418Y018468D01*
X021273Y018468D01*
X021273Y018371D02*
X021273Y018661D01*
X021418Y018661D01*
X021467Y018613D01*
X021370Y018468D02*
X021467Y018371D01*
X021477Y019798D02*
X021380Y019895D01*
X021428Y019895D02*
X021283Y019895D01*
X021283Y019798D02*
X021283Y020088D01*
X021428Y020088D01*
X021477Y020040D01*
X021477Y019943D01*
X021428Y019895D01*
X021578Y019895D02*
X021578Y019847D01*
X021626Y019798D01*
X021723Y019798D01*
X021771Y019847D01*
X021771Y019895D01*
X021723Y019943D01*
X021626Y019943D01*
X021578Y019992D01*
X021578Y020040D01*
X021626Y020088D01*
X021723Y020088D01*
X021771Y020040D01*
X021771Y019992D01*
X021723Y019943D01*
X021626Y019943D02*
X021578Y019895D01*
X018385Y020294D02*
X018385Y020356D01*
X018324Y020418D01*
X018138Y020418D01*
X018138Y020294D01*
X018200Y020232D01*
X018324Y020232D01*
X018385Y020294D01*
X018262Y020541D02*
X018138Y020418D01*
X018017Y020418D02*
X017955Y020356D01*
X017770Y020356D01*
X017893Y020356D02*
X018017Y020232D01*
X018017Y020418D02*
X018017Y020541D01*
X017955Y020603D01*
X017770Y020603D01*
X017770Y020232D01*
X018262Y020541D02*
X018385Y020603D01*
X016398Y019992D02*
X016151Y019992D01*
X016275Y019992D02*
X016275Y020363D01*
X016151Y020239D01*
X016030Y020301D02*
X016030Y020054D01*
X015968Y019992D01*
X015783Y019992D01*
X015783Y020363D01*
X015968Y020363D01*
X016030Y020301D01*
X015662Y020363D02*
X015415Y020363D01*
X015415Y019992D01*
X015662Y019992D01*
X015538Y020178D02*
X015415Y020178D01*
X015293Y019992D02*
X015046Y019992D01*
X015046Y020363D01*
X009848Y013981D02*
X009663Y013796D01*
X009909Y013796D01*
X009848Y013611D02*
X009848Y013981D01*
X009541Y013920D02*
X009541Y013796D01*
X009479Y013734D01*
X009294Y013734D01*
X009294Y013611D02*
X009294Y013981D01*
X009479Y013981D01*
X009541Y013920D01*
X009418Y013734D02*
X009541Y013611D01*
X009479Y013106D02*
X009294Y013106D01*
X009294Y012736D01*
X009294Y012859D02*
X009479Y012859D01*
X009541Y012921D01*
X009541Y013045D01*
X009479Y013106D01*
X009663Y013045D02*
X009724Y013106D01*
X009848Y013106D01*
X009909Y013045D01*
X009909Y012983D01*
X009848Y012921D01*
X009909Y012859D01*
X009909Y012798D01*
X009848Y012736D01*
X009724Y012736D01*
X009663Y012798D01*
X009541Y012736D02*
X009418Y012859D01*
X009786Y012921D02*
X009848Y012921D01*
X009848Y010981D02*
X009724Y010981D01*
X009663Y010920D01*
X009541Y010920D02*
X009541Y010796D01*
X009479Y010734D01*
X009294Y010734D01*
X009294Y010611D02*
X009294Y010981D01*
X009479Y010981D01*
X009541Y010920D01*
X009418Y010734D02*
X009541Y010611D01*
X009663Y010611D02*
X009909Y010858D01*
X009909Y010920D01*
X009848Y010981D01*
X009909Y010611D02*
X009663Y010611D01*
X009786Y009731D02*
X009786Y009361D01*
X009663Y009361D02*
X009909Y009361D01*
X009663Y009608D02*
X009786Y009731D01*
X009541Y009670D02*
X009541Y009546D01*
X009479Y009484D01*
X009294Y009484D01*
X009294Y009361D02*
X009294Y009731D01*
X009479Y009731D01*
X009541Y009670D01*
X009418Y009484D02*
X009541Y009361D01*
D12*
X015965Y010493D03*
X015965Y010501D03*
X015847Y012162D03*
X015847Y012170D03*
X015862Y012178D03*
X015902Y012225D03*
X015902Y012233D03*
X015925Y012257D03*
X015941Y012265D03*
X015941Y012273D03*
X015965Y012304D03*
X015965Y012312D03*
X015980Y012320D03*
X015980Y012328D03*
X016004Y012343D03*
X016004Y012351D03*
X016043Y012399D03*
X016043Y012406D03*
X016059Y012414D03*
X016122Y012493D03*
X016138Y012501D03*
X016138Y012509D03*
D13*
X015965Y010517D03*
X015965Y010509D03*
D14*
X015965Y010524D03*
D15*
X015965Y010532D03*
X015965Y010540D03*
D16*
X015973Y010548D03*
X015973Y010556D03*
X014925Y011280D03*
X014925Y011288D03*
X014910Y011296D03*
X014910Y011304D03*
X017075Y013241D03*
X017036Y013304D03*
X017036Y013312D03*
X017020Y013320D03*
X017012Y013328D03*
X017012Y013336D03*
D17*
X017067Y013178D03*
X017067Y013170D03*
X015965Y010564D03*
D18*
X015969Y010572D03*
X015969Y010580D03*
X015102Y011178D03*
X015102Y011186D03*
X017055Y013091D03*
X017055Y013099D03*
D19*
X017039Y013036D03*
X017039Y013028D03*
X017150Y011934D03*
X017150Y011926D03*
X017150Y011918D03*
X017150Y011910D03*
X017150Y011902D03*
X017150Y011895D03*
X017150Y011887D03*
X016992Y011469D03*
X016976Y011461D03*
X016976Y011454D03*
X016961Y011430D03*
X015969Y010595D03*
X015969Y010587D03*
X014788Y012658D03*
X014788Y012666D03*
X014788Y012674D03*
X014788Y012682D03*
X014788Y012690D03*
X014788Y012698D03*
X014788Y012706D03*
X014788Y012713D03*
X014788Y012721D03*
X014945Y013131D03*
X014945Y013139D03*
X014953Y013162D03*
X014969Y013170D03*
X014969Y013178D03*
D20*
X015067Y013288D03*
X015067Y013296D03*
X014910Y011643D03*
X014910Y011635D03*
X015973Y010603D03*
X017154Y012123D03*
X017154Y012131D03*
X017154Y012139D03*
X017154Y012147D03*
X017154Y012154D03*
D21*
X017122Y012296D03*
X017122Y012304D03*
X017122Y012312D03*
X015965Y010619D03*
X015965Y010611D03*
X014917Y011674D03*
X014917Y011682D03*
X015154Y013367D03*
X015154Y013375D03*
D22*
X015217Y013406D03*
X015217Y013414D03*
X017004Y012863D03*
X017004Y012855D03*
X017083Y012430D03*
X017083Y012422D03*
X017083Y012414D03*
X015965Y010635D03*
X015965Y010627D03*
D23*
X015965Y010643D03*
X014941Y011792D03*
X014941Y011800D03*
X014878Y012139D03*
X016988Y012816D03*
X016988Y012824D03*
D24*
X016976Y012769D03*
X015969Y013958D03*
X015969Y013965D03*
X014953Y011839D03*
X014953Y011832D03*
X015969Y010658D03*
X015969Y010650D03*
D25*
X015973Y010666D03*
X015973Y010674D03*
X016957Y012698D03*
X016957Y012706D03*
X016957Y012713D03*
X016957Y012721D03*
D26*
X014996Y011973D03*
X014996Y011965D03*
X015965Y010682D03*
D27*
X015973Y010690D03*
X015973Y010698D03*
D28*
X015965Y010706D03*
X015965Y010713D03*
X015020Y012044D03*
X015020Y012052D03*
X016910Y012572D03*
X015965Y013910D03*
D29*
X015965Y013902D03*
X015965Y013895D03*
X015965Y010721D03*
D30*
X015969Y010729D03*
X015969Y010737D03*
D31*
X015965Y010745D03*
X015965Y010753D03*
D32*
X015969Y010761D03*
X015969Y013855D03*
X015969Y013863D03*
D33*
X015965Y010776D03*
X015965Y010769D03*
D34*
X015973Y010784D03*
X015973Y010792D03*
D35*
X015965Y010800D03*
D36*
X015973Y010808D03*
X015973Y010816D03*
D37*
X015965Y010824D03*
X015965Y010832D03*
D38*
X015969Y010839D03*
X015969Y013776D03*
X015969Y013784D03*
D39*
X015965Y010855D03*
X015965Y010847D03*
D40*
X015969Y010863D03*
X015969Y010871D03*
X015969Y013753D03*
D41*
X015965Y013745D03*
X015965Y013737D03*
X015965Y010879D03*
D42*
X015973Y010887D03*
X015973Y010895D03*
D43*
X015965Y010902D03*
X015965Y010910D03*
D44*
X015965Y010918D03*
X015965Y013698D03*
X015965Y013706D03*
D45*
X015969Y013690D03*
X015969Y013682D03*
X015969Y010934D03*
X015969Y010926D03*
D46*
X015965Y010942D03*
X015965Y010950D03*
X015965Y013674D03*
D47*
X015973Y010958D03*
D48*
X015973Y010965D03*
X015973Y010973D03*
D49*
X015965Y010981D03*
X015965Y010989D03*
X015965Y013619D03*
X015965Y013627D03*
D50*
X015969Y010997D03*
D51*
X015965Y011005D03*
X015965Y011013D03*
D52*
X015965Y011021D03*
X015965Y011028D03*
X015965Y013580D03*
X015965Y013587D03*
D53*
X015969Y013572D03*
X015969Y013564D03*
X015969Y011036D03*
D54*
X015965Y011044D03*
X015965Y011052D03*
X015965Y013556D03*
D55*
X015973Y011068D03*
X015973Y011060D03*
D56*
X015973Y011076D03*
D57*
X015973Y011084D03*
X015973Y011091D03*
D58*
X015965Y011099D03*
X015965Y011107D03*
X015965Y013517D03*
D59*
X015965Y013509D03*
X015965Y013501D03*
X015965Y011115D03*
D60*
X015969Y011123D03*
X015969Y011131D03*
X015969Y013485D03*
X015969Y013493D03*
D61*
X015965Y013477D03*
X015965Y011147D03*
X015965Y011139D03*
D62*
X015965Y011154D03*
X015965Y013446D03*
X015965Y013454D03*
D63*
X015973Y011170D03*
X015973Y011162D03*
D64*
X016662Y011178D03*
X016662Y011186D03*
D65*
X015059Y011194D03*
X014878Y011477D03*
X014878Y011485D03*
D66*
X014937Y011753D03*
X014937Y011761D03*
X014858Y012178D03*
X016693Y011194D03*
D67*
X015032Y011202D03*
X015032Y011210D03*
D68*
X014933Y011745D03*
X014847Y012202D03*
X014847Y012210D03*
X014847Y012217D03*
X016721Y011210D03*
X016721Y011202D03*
X017091Y012399D03*
X017091Y012406D03*
X017012Y012871D03*
X017012Y012879D03*
D69*
X015008Y011225D03*
X015008Y011217D03*
D70*
X014921Y011713D03*
X014921Y011721D03*
X015197Y013399D03*
X017008Y012902D03*
X017008Y012895D03*
X017102Y012375D03*
X017102Y012367D03*
X017102Y012359D03*
X016748Y011225D03*
X016748Y011217D03*
D71*
X014996Y011233D03*
X017067Y013186D03*
X017067Y013194D03*
D72*
X017016Y012918D03*
X017016Y012910D03*
X017110Y012351D03*
X017110Y012343D03*
X016764Y011233D03*
X014827Y012265D03*
X014827Y012273D03*
X015181Y013383D03*
X015181Y013391D03*
D73*
X016976Y013359D03*
X017071Y013217D03*
X017071Y013210D03*
X014969Y011249D03*
X014969Y011241D03*
X014953Y011257D03*
X014953Y011265D03*
X014866Y011399D03*
X014866Y011406D03*
D74*
X014811Y012304D03*
X014811Y012312D03*
X014811Y012320D03*
X014811Y012328D03*
X016780Y011249D03*
X016780Y011241D03*
X017016Y012926D03*
D75*
X017020Y012934D03*
X017020Y012942D03*
X017130Y012288D03*
X017130Y012280D03*
X017130Y012273D03*
X017130Y012265D03*
X016799Y011265D03*
X016799Y011257D03*
X014807Y012336D03*
X014807Y012343D03*
X014807Y012351D03*
X015146Y013359D03*
X015973Y013997D03*
X015973Y014005D03*
D76*
X014937Y011273D03*
D77*
X016819Y011273D03*
X017134Y012241D03*
X017134Y012249D03*
X017134Y012257D03*
X015126Y013343D03*
X015126Y013351D03*
D78*
X015087Y013320D03*
X014788Y012454D03*
X014788Y012446D03*
X014788Y012438D03*
X014788Y012430D03*
X014788Y012422D03*
X016843Y011304D03*
X016843Y011296D03*
X016835Y011288D03*
X016835Y011280D03*
X017150Y012162D03*
X017150Y012170D03*
X017150Y012178D03*
X017150Y012186D03*
X017150Y012194D03*
X017150Y012202D03*
X017150Y012210D03*
X017032Y012973D03*
X017032Y012981D03*
D79*
X017063Y013280D03*
X017047Y013288D03*
X017047Y013296D03*
X014898Y011312D03*
X014882Y011320D03*
X014882Y011328D03*
D80*
X014780Y012461D03*
X014780Y012469D03*
X014780Y012477D03*
X014780Y012485D03*
X015079Y013304D03*
X015079Y013312D03*
X016866Y011312D03*
D81*
X016870Y011320D03*
X016870Y011328D03*
X016886Y011336D03*
X016886Y011343D03*
X017162Y012107D03*
X017162Y012115D03*
X017028Y012989D03*
X017028Y012997D03*
X015965Y014013D03*
X015965Y014021D03*
X014784Y012493D03*
X014902Y011627D03*
X014902Y011619D03*
X014902Y011611D03*
D82*
X014870Y011343D03*
X014870Y011336D03*
X017075Y013249D03*
X017075Y013257D03*
X015973Y014068D03*
D83*
X017071Y013273D03*
X017071Y013265D03*
X014866Y011351D03*
D84*
X015047Y013280D03*
X016898Y011351D03*
D85*
X014862Y011359D03*
X014862Y011367D03*
D86*
X014902Y011595D03*
X014902Y011603D03*
X014996Y013210D03*
X014996Y013217D03*
X016910Y011367D03*
X016910Y011359D03*
X016925Y011375D03*
X016925Y011383D03*
X017162Y012021D03*
X017162Y012028D03*
X017162Y012036D03*
D87*
X017067Y013225D03*
X017067Y013233D03*
X016988Y013343D03*
X016988Y013351D03*
X014862Y011391D03*
X014862Y011383D03*
X014862Y011375D03*
D88*
X015008Y013225D03*
X015008Y013233D03*
X016937Y011391D03*
D89*
X016945Y011399D03*
X016945Y011406D03*
X016969Y011438D03*
X016969Y011446D03*
X014898Y011587D03*
X014780Y012595D03*
X014780Y012603D03*
X014780Y012611D03*
X014780Y012619D03*
X014780Y012627D03*
X014780Y012635D03*
X014780Y012643D03*
X014780Y012650D03*
X014976Y013186D03*
X014976Y013194D03*
D90*
X014870Y011422D03*
X014870Y011414D03*
X016957Y013367D03*
X016957Y013375D03*
D91*
X017036Y013021D03*
X017036Y013013D03*
X017154Y012013D03*
X017154Y012005D03*
X017154Y011997D03*
X017154Y011989D03*
X017154Y011981D03*
X017154Y011973D03*
X017154Y011965D03*
X017154Y011958D03*
X017154Y011950D03*
X017154Y011942D03*
X016957Y011422D03*
X016957Y011414D03*
X014988Y013202D03*
D92*
X015973Y014052D03*
X015973Y014060D03*
X014870Y011430D03*
D93*
X014870Y011438D03*
X014870Y011446D03*
X014870Y011454D03*
X014870Y011461D03*
X016917Y013399D03*
D94*
X014870Y011469D03*
D95*
X014791Y012729D03*
X014791Y012737D03*
X014791Y012745D03*
X014791Y012753D03*
X014791Y012761D03*
X014791Y012769D03*
X014831Y012895D03*
X014831Y012902D03*
X014870Y013005D03*
X014910Y013084D03*
X014949Y013147D03*
X014949Y013154D03*
X016996Y011485D03*
X016996Y011477D03*
X017036Y011548D03*
X017114Y011745D03*
X017114Y011753D03*
X017114Y011761D03*
D96*
X014878Y011501D03*
X014878Y011493D03*
X015965Y014036D03*
X015965Y014044D03*
D97*
X014937Y013123D03*
X014921Y013115D03*
X014921Y013107D03*
X014921Y013099D03*
X014921Y013091D03*
X014898Y013060D03*
X014898Y013052D03*
X014882Y013036D03*
X014882Y013028D03*
X014843Y012942D03*
X014843Y012934D03*
X014819Y012863D03*
X014819Y012855D03*
X014803Y012824D03*
X014803Y012816D03*
X014803Y012808D03*
X014803Y012800D03*
X014803Y012792D03*
X014803Y012784D03*
X014803Y012776D03*
X014898Y011580D03*
X014898Y011572D03*
X017008Y011509D03*
X017008Y011501D03*
X017008Y011493D03*
X017024Y011517D03*
X017024Y011524D03*
X017024Y011532D03*
X017024Y011540D03*
X017047Y011572D03*
X017047Y011580D03*
X017063Y011595D03*
X017063Y011603D03*
X017102Y011706D03*
X017126Y011784D03*
X017126Y011792D03*
X017126Y011800D03*
X017126Y011808D03*
X017126Y011816D03*
X017126Y011824D03*
X017142Y011832D03*
X017142Y011839D03*
X017142Y011847D03*
X017142Y011855D03*
X017142Y011863D03*
X017142Y011871D03*
X017142Y011879D03*
D98*
X014882Y011509D03*
D99*
X014882Y011517D03*
X014882Y011524D03*
X014882Y011532D03*
X014882Y011540D03*
X016827Y013438D03*
X017047Y013084D03*
D100*
X017051Y013076D03*
X017051Y013068D03*
X015973Y014028D03*
X014886Y011548D03*
D101*
X014890Y011556D03*
X014890Y011564D03*
X014811Y012832D03*
X014811Y012839D03*
X014811Y012847D03*
X014851Y012950D03*
X014851Y012958D03*
X014851Y012965D03*
X014890Y013044D03*
X017095Y011698D03*
X017095Y011690D03*
X017095Y011682D03*
X017095Y011674D03*
X017055Y011587D03*
D102*
X017043Y011564D03*
X017043Y011556D03*
X017067Y011611D03*
X017067Y011619D03*
X017067Y011627D03*
X017083Y011635D03*
X017083Y011643D03*
X017083Y011650D03*
X017083Y011658D03*
X017083Y011666D03*
X017106Y011713D03*
X017106Y011721D03*
X017106Y011729D03*
X017106Y011737D03*
X017122Y011769D03*
X017122Y011776D03*
X017043Y013044D03*
X017043Y013052D03*
X017043Y013060D03*
X014902Y013068D03*
X014902Y013076D03*
X014878Y013021D03*
X014878Y013013D03*
X014862Y012997D03*
X014862Y012989D03*
X014862Y012981D03*
X014862Y012973D03*
X014839Y012926D03*
X014839Y012918D03*
X014839Y012910D03*
X014823Y012887D03*
X014823Y012879D03*
X014823Y012871D03*
D103*
X014791Y012414D03*
X014791Y012406D03*
X014791Y012399D03*
X014791Y012391D03*
X014791Y012383D03*
X014910Y011658D03*
X014910Y011650D03*
X015106Y013328D03*
X015106Y013336D03*
D104*
X014799Y012375D03*
X014799Y012367D03*
X014799Y012359D03*
X014917Y011666D03*
D105*
X014921Y011690D03*
X014921Y011698D03*
X014921Y011706D03*
X014819Y012280D03*
X014819Y012288D03*
X014819Y012296D03*
D106*
X014929Y011737D03*
X014929Y011729D03*
X017095Y012383D03*
X017095Y012391D03*
D107*
X017071Y012454D03*
X016992Y012832D03*
X016992Y012839D03*
X015969Y013973D03*
X015969Y013981D03*
X014866Y012170D03*
X014866Y012162D03*
X014945Y011784D03*
X014945Y011776D03*
X014945Y011769D03*
D108*
X014949Y011808D03*
X014949Y011816D03*
X014894Y012107D03*
X014894Y012115D03*
X014886Y012123D03*
X014886Y012131D03*
X016980Y012792D03*
X016980Y012800D03*
X016980Y012808D03*
X017036Y012509D03*
X017036Y012501D03*
X017051Y012493D03*
D109*
X017028Y012517D03*
X017028Y012524D03*
X014902Y012099D03*
X014957Y011824D03*
D110*
X014961Y011847D03*
X014961Y011855D03*
X016969Y012753D03*
X016969Y012761D03*
D111*
X014969Y011879D03*
X014969Y011871D03*
X014969Y011863D03*
D112*
X014973Y011887D03*
X014973Y011895D03*
D113*
X014976Y011902D03*
D114*
X014984Y011910D03*
X014984Y011918D03*
X016953Y012690D03*
D115*
X014988Y011934D03*
X014988Y011926D03*
D116*
X014996Y011942D03*
X014996Y011950D03*
X014996Y011958D03*
X016949Y012674D03*
X016949Y012682D03*
X015965Y013934D03*
X015965Y013942D03*
D117*
X016929Y012643D03*
X016929Y012635D03*
X016929Y012627D03*
X016929Y012619D03*
X015000Y011981D03*
D118*
X015008Y011989D03*
X015008Y011997D03*
X016921Y012611D03*
X015969Y013918D03*
X015969Y013926D03*
D119*
X015016Y012013D03*
X015016Y012005D03*
D120*
X015012Y012021D03*
X015012Y012028D03*
X015012Y012036D03*
X016917Y012580D03*
X016917Y012587D03*
D121*
X017036Y013005D03*
X017154Y012099D03*
X017154Y012091D03*
X017154Y012084D03*
X017154Y012076D03*
X017154Y012068D03*
X017154Y012060D03*
X017154Y012052D03*
X017154Y012044D03*
X015043Y013265D03*
X015043Y013273D03*
X015028Y013257D03*
X015028Y013249D03*
X015012Y013241D03*
X014776Y012587D03*
X014776Y012580D03*
X014776Y012572D03*
X014776Y012564D03*
X014776Y012556D03*
X014776Y012548D03*
X014776Y012540D03*
X014776Y012532D03*
X014776Y012524D03*
X014776Y012517D03*
X014776Y012509D03*
X014776Y012501D03*
D122*
X015028Y012060D03*
D123*
X015032Y012068D03*
X015032Y012076D03*
X016898Y012532D03*
D124*
X015039Y012091D03*
X015039Y012084D03*
D125*
X015795Y012099D03*
X015835Y012147D03*
X015835Y012154D03*
X015914Y012241D03*
X015914Y012249D03*
X015992Y012336D03*
X016071Y012430D03*
X016101Y012402D03*
X016110Y012477D03*
X016110Y012485D03*
D126*
X016102Y012469D03*
X016102Y012461D03*
X016079Y012446D03*
X016079Y012438D03*
X016039Y012391D03*
X016039Y012383D03*
X016024Y012375D03*
X015961Y012296D03*
X015945Y012288D03*
X015945Y012280D03*
X015882Y012210D03*
X015882Y012202D03*
X015866Y012194D03*
X015866Y012186D03*
X015827Y012139D03*
X015803Y012115D03*
X015803Y012107D03*
X016142Y012517D03*
X016142Y012524D03*
D127*
X016091Y012454D03*
X016012Y012367D03*
X016012Y012359D03*
X015894Y012217D03*
X015815Y012131D03*
X015815Y012123D03*
D128*
X014870Y012147D03*
X014870Y012154D03*
D129*
X014851Y012186D03*
X014851Y012194D03*
D130*
X017142Y012217D03*
X017142Y012225D03*
X017142Y012233D03*
X017024Y012950D03*
X017024Y012958D03*
X017024Y012965D03*
D131*
X017004Y012887D03*
X015965Y013989D03*
X014839Y012233D03*
X014839Y012225D03*
D132*
X014831Y012241D03*
X014831Y012249D03*
X014831Y012257D03*
D133*
X017114Y012320D03*
X017114Y012328D03*
X017114Y012336D03*
D134*
X017075Y012438D03*
X017075Y012446D03*
X016996Y012847D03*
D135*
X017063Y012469D03*
X017063Y012461D03*
X015252Y013422D03*
X015252Y013430D03*
D136*
X017055Y012485D03*
X017055Y012477D03*
D137*
X016906Y012540D03*
X016906Y012548D03*
X016906Y012556D03*
X016906Y012564D03*
D138*
X016925Y012595D03*
X016925Y012603D03*
D139*
X016937Y012650D03*
D140*
X016941Y012658D03*
X016941Y012666D03*
D141*
X016965Y012729D03*
X015965Y013950D03*
D142*
X016965Y012745D03*
X016965Y012737D03*
D143*
X016984Y012776D03*
X016984Y012784D03*
X015291Y013438D03*
D144*
X017055Y013115D03*
X017055Y013107D03*
D145*
X017059Y013123D03*
X016862Y013422D03*
X016862Y013430D03*
D146*
X017055Y013139D03*
X017055Y013131D03*
D147*
X017063Y013147D03*
X017063Y013154D03*
X016890Y013406D03*
X016890Y013414D03*
D148*
X017063Y013162D03*
D149*
X017063Y013202D03*
D150*
X016937Y013383D03*
X016937Y013391D03*
D151*
X015973Y013461D03*
X015973Y013469D03*
D152*
X015969Y013524D03*
X015969Y013532D03*
D153*
X015965Y013540D03*
X015965Y013548D03*
D154*
X015973Y013595D03*
D155*
X015973Y013603D03*
X015973Y013611D03*
D156*
X015965Y013635D03*
D157*
X015969Y013643D03*
X015969Y013650D03*
D158*
X015965Y013658D03*
X015965Y013666D03*
D159*
X015969Y013713D03*
D160*
X015965Y013721D03*
X015965Y013729D03*
D161*
X015965Y013761D03*
X015965Y013769D03*
D162*
X015973Y013792D03*
D163*
X015969Y013800D03*
X015969Y013808D03*
D164*
X015973Y013816D03*
X015973Y013824D03*
D165*
X015969Y013832D03*
D166*
X015973Y013839D03*
X015973Y013847D03*
D167*
X015965Y013871D03*
D168*
X015965Y013879D03*
X015965Y013887D03*
D169*
X015965Y014076D03*
X015965Y014084D03*
D170*
X015973Y014091D03*
X015973Y014099D03*
D171*
X015969Y014107D03*
D172*
X015965Y014115D03*
X015965Y014123D03*
D173*
X020974Y013822D02*
X020974Y009982D01*
X020976Y009959D01*
X020981Y009936D01*
X020990Y009914D01*
X021003Y009894D01*
X021018Y009876D01*
X021036Y009861D01*
X021056Y009848D01*
X021078Y009839D01*
X021101Y009834D01*
X021124Y009832D01*
X023764Y009832D01*
X023787Y009834D01*
X023810Y009839D01*
X023832Y009848D01*
X023852Y009861D01*
X023870Y009876D01*
X023885Y009894D01*
X023898Y009914D01*
X023907Y009936D01*
X023912Y009959D01*
X023914Y009982D01*
X023914Y013822D01*
X023912Y013845D01*
X023907Y013868D01*
X023898Y013890D01*
X023885Y013910D01*
X023870Y013928D01*
X023852Y013943D01*
X023832Y013956D01*
X023810Y013965D01*
X023787Y013970D01*
X023764Y013972D01*
X022944Y013972D01*
X021944Y013972D01*
X021124Y013972D01*
X021101Y013970D01*
X021078Y013965D01*
X021056Y013956D01*
X021036Y013943D01*
X021018Y013928D01*
X021003Y013910D01*
X020990Y013890D01*
X020981Y013868D01*
X020976Y013845D01*
X020974Y013822D01*
X021944Y013972D02*
X021946Y013928D01*
X021952Y013885D01*
X021961Y013843D01*
X021974Y013801D01*
X021991Y013761D01*
X022011Y013722D01*
X022034Y013685D01*
X022061Y013651D01*
X022090Y013618D01*
X022123Y013589D01*
X022157Y013562D01*
X022194Y013539D01*
X022233Y013519D01*
X022273Y013502D01*
X022315Y013489D01*
X022357Y013480D01*
X022400Y013474D01*
X022444Y013472D01*
X022488Y013474D01*
X022531Y013480D01*
X022573Y013489D01*
X022615Y013502D01*
X022655Y013519D01*
X022694Y013539D01*
X022731Y013562D01*
X022765Y013589D01*
X022798Y013618D01*
X022827Y013651D01*
X022854Y013685D01*
X022877Y013722D01*
X022897Y013761D01*
X022914Y013801D01*
X022927Y013843D01*
X022936Y013885D01*
X022942Y013928D01*
X022944Y013972D01*
X026528Y013788D02*
X027478Y013788D01*
X027478Y014438D01*
X027478Y015138D02*
X027478Y016438D01*
X027478Y017138D02*
X027478Y017788D01*
X030178Y017788D01*
X030178Y021788D01*
X030078Y021788D01*
X030078Y013788D01*
X027478Y013788D01*
X027464Y013571D02*
X030064Y013571D01*
X030144Y013571D01*
X030144Y009641D01*
X030064Y009641D01*
X027464Y009641D01*
X026524Y009641D01*
X026524Y013571D01*
X027464Y013571D01*
X027464Y012941D01*
X027464Y012241D02*
X027464Y010971D01*
X027464Y010271D02*
X027464Y009641D01*
X029344Y010621D02*
X029346Y010649D01*
X029352Y010676D01*
X029361Y010702D01*
X029374Y010727D01*
X029391Y010750D01*
X029410Y010770D01*
X029432Y010787D01*
X029456Y010801D01*
X029482Y010811D01*
X029509Y010818D01*
X029537Y010821D01*
X029565Y010820D01*
X029592Y010815D01*
X029619Y010806D01*
X029644Y010794D01*
X029667Y010779D01*
X029688Y010760D01*
X029706Y010739D01*
X029721Y010715D01*
X029732Y010689D01*
X029740Y010663D01*
X029744Y010635D01*
X029744Y010607D01*
X029740Y010579D01*
X029732Y010553D01*
X029721Y010527D01*
X029706Y010503D01*
X029688Y010482D01*
X029667Y010463D01*
X029644Y010448D01*
X029619Y010436D01*
X029592Y010427D01*
X029565Y010422D01*
X029537Y010421D01*
X029509Y010424D01*
X029482Y010431D01*
X029456Y010441D01*
X029432Y010455D01*
X029410Y010472D01*
X029391Y010492D01*
X029374Y010515D01*
X029361Y010540D01*
X029352Y010566D01*
X029346Y010593D01*
X029344Y010621D01*
X030064Y009641D02*
X030064Y013571D01*
X030078Y013788D02*
X030178Y013788D01*
X030178Y017788D01*
X029348Y016788D02*
X029350Y016816D01*
X029356Y016843D01*
X029365Y016869D01*
X029378Y016894D01*
X029395Y016917D01*
X029414Y016937D01*
X029436Y016954D01*
X029460Y016968D01*
X029486Y016978D01*
X029513Y016985D01*
X029541Y016988D01*
X029569Y016987D01*
X029596Y016982D01*
X029623Y016973D01*
X029648Y016961D01*
X029671Y016946D01*
X029692Y016927D01*
X029710Y016906D01*
X029725Y016882D01*
X029736Y016856D01*
X029744Y016830D01*
X029748Y016802D01*
X029748Y016774D01*
X029744Y016746D01*
X029736Y016720D01*
X029725Y016694D01*
X029710Y016670D01*
X029692Y016649D01*
X029671Y016630D01*
X029648Y016615D01*
X029623Y016603D01*
X029596Y016594D01*
X029569Y016589D01*
X029541Y016588D01*
X029513Y016591D01*
X029486Y016598D01*
X029460Y016608D01*
X029436Y016622D01*
X029414Y016639D01*
X029395Y016659D01*
X029378Y016682D01*
X029365Y016707D01*
X029356Y016733D01*
X029350Y016760D01*
X029348Y016788D01*
X027478Y017788D02*
X027478Y018438D01*
X027478Y019138D02*
X027478Y020438D01*
X027478Y021138D02*
X027478Y021788D01*
X030078Y021788D01*
X029348Y020788D02*
X029350Y020816D01*
X029356Y020843D01*
X029365Y020869D01*
X029378Y020894D01*
X029395Y020917D01*
X029414Y020937D01*
X029436Y020954D01*
X029460Y020968D01*
X029486Y020978D01*
X029513Y020985D01*
X029541Y020988D01*
X029569Y020987D01*
X029596Y020982D01*
X029623Y020973D01*
X029648Y020961D01*
X029671Y020946D01*
X029692Y020927D01*
X029710Y020906D01*
X029725Y020882D01*
X029736Y020856D01*
X029744Y020830D01*
X029748Y020802D01*
X029748Y020774D01*
X029744Y020746D01*
X029736Y020720D01*
X029725Y020694D01*
X029710Y020670D01*
X029692Y020649D01*
X029671Y020630D01*
X029648Y020615D01*
X029623Y020603D01*
X029596Y020594D01*
X029569Y020589D01*
X029541Y020588D01*
X029513Y020591D01*
X029486Y020598D01*
X029460Y020608D01*
X029436Y020622D01*
X029414Y020639D01*
X029395Y020659D01*
X029378Y020682D01*
X029365Y020707D01*
X029356Y020733D01*
X029350Y020760D01*
X029348Y020788D01*
X027478Y021788D02*
X026528Y021788D01*
X026528Y013788D01*
X029348Y014788D02*
X029350Y014816D01*
X029356Y014843D01*
X029365Y014869D01*
X029378Y014894D01*
X029395Y014917D01*
X029414Y014937D01*
X029436Y014954D01*
X029460Y014968D01*
X029486Y014978D01*
X029513Y014985D01*
X029541Y014988D01*
X029569Y014987D01*
X029596Y014982D01*
X029623Y014973D01*
X029648Y014961D01*
X029671Y014946D01*
X029692Y014927D01*
X029710Y014906D01*
X029725Y014882D01*
X029736Y014856D01*
X029744Y014830D01*
X029748Y014802D01*
X029748Y014774D01*
X029744Y014746D01*
X029736Y014720D01*
X029725Y014694D01*
X029710Y014670D01*
X029692Y014649D01*
X029671Y014630D01*
X029648Y014615D01*
X029623Y014603D01*
X029596Y014594D01*
X029569Y014589D01*
X029541Y014588D01*
X029513Y014591D01*
X029486Y014598D01*
X029460Y014608D01*
X029436Y014622D01*
X029414Y014639D01*
X029395Y014659D01*
X029378Y014682D01*
X029365Y014707D01*
X029356Y014733D01*
X029350Y014760D01*
X029348Y014788D01*
X029344Y012591D02*
X029346Y012619D01*
X029352Y012646D01*
X029361Y012672D01*
X029374Y012697D01*
X029391Y012720D01*
X029410Y012740D01*
X029432Y012757D01*
X029456Y012771D01*
X029482Y012781D01*
X029509Y012788D01*
X029537Y012791D01*
X029565Y012790D01*
X029592Y012785D01*
X029619Y012776D01*
X029644Y012764D01*
X029667Y012749D01*
X029688Y012730D01*
X029706Y012709D01*
X029721Y012685D01*
X029732Y012659D01*
X029740Y012633D01*
X029744Y012605D01*
X029744Y012577D01*
X029740Y012549D01*
X029732Y012523D01*
X029721Y012497D01*
X029706Y012473D01*
X029688Y012452D01*
X029667Y012433D01*
X029644Y012418D01*
X029619Y012406D01*
X029592Y012397D01*
X029565Y012392D01*
X029537Y012391D01*
X029509Y012394D01*
X029482Y012401D01*
X029456Y012411D01*
X029432Y012425D01*
X029410Y012442D01*
X029391Y012462D01*
X029374Y012485D01*
X029361Y012510D01*
X029352Y012536D01*
X029346Y012563D01*
X029344Y012591D01*
X029348Y018788D02*
X029350Y018816D01*
X029356Y018843D01*
X029365Y018869D01*
X029378Y018894D01*
X029395Y018917D01*
X029414Y018937D01*
X029436Y018954D01*
X029460Y018968D01*
X029486Y018978D01*
X029513Y018985D01*
X029541Y018988D01*
X029569Y018987D01*
X029596Y018982D01*
X029623Y018973D01*
X029648Y018961D01*
X029671Y018946D01*
X029692Y018927D01*
X029710Y018906D01*
X029725Y018882D01*
X029736Y018856D01*
X029744Y018830D01*
X029748Y018802D01*
X029748Y018774D01*
X029744Y018746D01*
X029736Y018720D01*
X029725Y018694D01*
X029710Y018670D01*
X029692Y018649D01*
X029671Y018630D01*
X029648Y018615D01*
X029623Y018603D01*
X029596Y018594D01*
X029569Y018589D01*
X029541Y018588D01*
X029513Y018591D01*
X029486Y018598D01*
X029460Y018608D01*
X029436Y018622D01*
X029414Y018639D01*
X029395Y018659D01*
X029378Y018682D01*
X029365Y018707D01*
X029356Y018733D01*
X029350Y018760D01*
X029348Y018788D01*
X011646Y007210D02*
X011646Y004706D01*
X009823Y004706D02*
X009823Y005119D01*
X009823Y005530D01*
X009823Y007210D01*
X009823Y005531D02*
X009850Y005529D01*
X009876Y005524D01*
X009902Y005515D01*
X009926Y005503D01*
X009948Y005488D01*
X009969Y005471D01*
X009986Y005450D01*
X010001Y005428D01*
X010013Y005404D01*
X010022Y005378D01*
X010027Y005352D01*
X010029Y005325D01*
X010027Y005298D01*
X010022Y005272D01*
X010013Y005246D01*
X010001Y005222D01*
X009986Y005200D01*
X009969Y005179D01*
X009948Y005162D01*
X009926Y005147D01*
X009902Y005135D01*
X009876Y005126D01*
X009850Y005121D01*
X009823Y005119D01*
D174*
X024726Y005666D02*
X024726Y006316D01*
X024923Y006316D02*
X024923Y005666D01*
X024726Y005666D01*
X024923Y005666D02*
X025514Y005666D01*
X025514Y008316D01*
X024923Y008166D02*
X024923Y008816D01*
X024726Y008816D01*
X024726Y008166D01*
X026695Y008265D02*
X026695Y008501D01*
X027089Y008501D01*
X027482Y008501D02*
X027876Y008501D01*
X028270Y008501D02*
X028664Y008501D01*
X029057Y008501D02*
X029451Y008501D01*
X029845Y008501D02*
X030238Y008501D01*
X030238Y005981D01*
X029845Y005981D01*
X030238Y005981D02*
X030238Y005469D01*
X025514Y005469D01*
X025514Y005666D01*
X028860Y005666D01*
X028860Y005469D01*
X028860Y005666D02*
X028860Y009013D01*
X030238Y009013D02*
X030238Y008501D01*
X030238Y009013D02*
X027014Y009013D01*
X026695Y007871D02*
X026695Y007635D01*
X026695Y006847D01*
X026695Y006611D01*
X026695Y006217D02*
X026695Y005981D01*
X027089Y005981D01*
X027482Y005981D02*
X027876Y005981D01*
X028270Y005981D02*
X028664Y005981D01*
X029057Y005981D02*
X029451Y005981D01*
X029451Y006847D02*
X029490Y006849D01*
X029528Y006855D01*
X029565Y006864D01*
X029602Y006877D01*
X029637Y006894D01*
X029670Y006913D01*
X029701Y006936D01*
X029730Y006962D01*
X029756Y006991D01*
X029779Y007022D01*
X029798Y007055D01*
X029815Y007090D01*
X029828Y007127D01*
X029837Y007164D01*
X029843Y007202D01*
X029845Y007241D01*
X029843Y007280D01*
X029837Y007318D01*
X029828Y007355D01*
X029815Y007392D01*
X029798Y007427D01*
X029779Y007460D01*
X029756Y007491D01*
X029730Y007520D01*
X029701Y007546D01*
X029670Y007569D01*
X029637Y007588D01*
X029602Y007605D01*
X029565Y007618D01*
X029528Y007627D01*
X029490Y007633D01*
X029451Y007635D01*
D175*
X023724Y017473D02*
X023724Y017788D01*
X023487Y017788D01*
X022857Y017788D02*
X022621Y017788D01*
X022621Y017473D01*
X022611Y019176D02*
X022611Y019491D01*
X022848Y019491D01*
X023477Y019491D02*
X023714Y019491D01*
X023714Y019176D01*
X016848Y019715D02*
X016666Y019715D01*
X016759Y019593D01*
X016666Y019715D02*
X016485Y019715D01*
X016580Y019593D02*
X016656Y019709D01*
X015282Y019330D02*
X015282Y015451D01*
X015283Y015451D02*
X015284Y015430D01*
X015282Y015409D01*
X015277Y015389D01*
X015269Y015370D01*
X015258Y015353D01*
X015245Y015337D01*
X015229Y015324D01*
X015211Y015313D01*
X015192Y015305D01*
X015172Y015300D01*
X015171Y015301D02*
X014776Y015301D01*
X014776Y015321D02*
X014774Y015351D01*
X014769Y015381D01*
X014760Y015410D01*
X014747Y015437D01*
X014732Y015463D01*
X014713Y015487D01*
X014692Y015508D01*
X014668Y015527D01*
X014642Y015542D01*
X014615Y015555D01*
X014586Y015564D01*
X014556Y015569D01*
X014526Y015571D01*
X014496Y015569D01*
X014466Y015564D01*
X014437Y015555D01*
X014410Y015542D01*
X014384Y015527D01*
X014360Y015508D01*
X014339Y015487D01*
X014320Y015463D01*
X014305Y015437D01*
X014292Y015410D01*
X014283Y015381D01*
X014278Y015351D01*
X014276Y015321D01*
X014276Y015301D02*
X013944Y015301D01*
X013939Y015301D02*
X013914Y015300D01*
X013890Y015302D01*
X013866Y015308D01*
X013844Y015317D01*
X013823Y015330D01*
X013804Y015345D01*
X013787Y015363D01*
X013773Y015383D01*
X013762Y015404D01*
X013754Y015427D01*
X013749Y015451D01*
X013750Y015451D02*
X013750Y019291D01*
X013752Y019314D01*
X013757Y019337D01*
X013766Y019359D01*
X013779Y019379D01*
X013794Y019397D01*
X013812Y019412D01*
X013832Y019425D01*
X013854Y019434D01*
X013877Y019439D01*
X013900Y019441D01*
X015132Y019441D01*
X015132Y019442D02*
X015153Y019443D01*
X015174Y019441D01*
X015194Y019436D01*
X015213Y019428D01*
X015230Y019417D01*
X015246Y019404D01*
X015259Y019388D01*
X015270Y019370D01*
X015278Y019351D01*
X015283Y019331D01*
D176*
X021114Y013952D02*
X021114Y009842D01*
D177*
X020949Y010152D03*
X020949Y010652D03*
X020949Y011152D03*
X020949Y011652D03*
X020949Y012152D03*
X020949Y012652D03*
X020949Y013152D03*
X020949Y013652D03*
X023939Y013652D03*
X023939Y013152D03*
X023939Y012652D03*
X023939Y012152D03*
X023939Y011652D03*
X023939Y011152D03*
X023939Y010652D03*
X023939Y010152D03*
D178*
X023014Y012024D02*
X023014Y012174D01*
X023014Y012099D02*
X022564Y012099D01*
X022564Y012024D02*
X022564Y012174D01*
X022639Y012330D02*
X022939Y012330D01*
X023014Y012405D01*
X023014Y012556D01*
X022939Y012631D01*
X023014Y012791D02*
X023014Y013091D01*
X023014Y012941D02*
X022564Y012941D01*
X022714Y012791D01*
X022639Y012631D02*
X022564Y012556D01*
X022564Y012405D01*
X022639Y012330D01*
X028949Y013106D02*
X029099Y012956D01*
X028949Y013106D02*
X029399Y013106D01*
X029399Y012956D02*
X029399Y013256D01*
X029399Y011306D02*
X029399Y011006D01*
X029099Y011306D01*
X029024Y011306D01*
X028949Y011231D01*
X028949Y011081D01*
X029024Y011006D01*
M02*
