G75*
G70*
%OFA0B0*%
%FSLAX24Y24*%
%IPPOS*%
%LPD*%
%AMOC8*
5,1,8,0,0,1.08239X$1,22.5*
%
%ADD10C,0.1340*%
%ADD11OC8,0.0635*%
%ADD12C,0.0940*%
%ADD13C,0.1360*%
%ADD14C,0.0698*%
%ADD15C,0.0674*%
%ADD16C,0.0790*%
%ADD17C,0.1261*%
D10*
X003141Y001216D03*
X028952Y003058D03*
X029015Y022776D03*
X010141Y026121D03*
D11*
X011301Y022410D03*
X012301Y022410D03*
X013301Y022410D03*
X014301Y022410D03*
X015301Y022410D03*
X016301Y022410D03*
X017301Y022410D03*
X018301Y022410D03*
X020051Y022410D03*
X021051Y022410D03*
X022051Y022410D03*
X023051Y022410D03*
X024051Y022410D03*
X025051Y022410D03*
X026051Y022410D03*
X027051Y022410D03*
X027051Y003410D03*
X026051Y003410D03*
X025051Y003410D03*
X024051Y003410D03*
X023051Y003410D03*
X022051Y003410D03*
X020051Y003410D03*
X019051Y003410D03*
X018051Y003410D03*
X017051Y003410D03*
X016051Y003410D03*
X015051Y003410D03*
D12*
X024825Y006811D02*
X024825Y007671D01*
X025576Y009131D02*
X026436Y009131D01*
X027187Y007671D02*
X027187Y006811D01*
D13*
X004141Y004371D03*
X004141Y025371D03*
D14*
X002342Y026469D03*
X008239Y020371D03*
X008239Y014871D03*
X008239Y009371D03*
X002342Y003273D03*
D15*
X006641Y005371D03*
X006641Y006371D03*
X006641Y007371D03*
X006641Y008371D03*
X007641Y007871D03*
X007641Y006871D03*
X007641Y005871D03*
X007641Y004871D03*
X007641Y010371D03*
X007641Y011371D03*
X007641Y012371D03*
X007641Y013371D03*
X006641Y013871D03*
X006641Y012871D03*
X006641Y011871D03*
X006641Y010871D03*
X007641Y015871D03*
X007641Y016871D03*
X007641Y017871D03*
X007641Y018871D03*
X006641Y019371D03*
X006641Y018371D03*
X006641Y017371D03*
X006641Y016371D03*
X007641Y021371D03*
X007641Y022371D03*
X007641Y023371D03*
X007641Y024371D03*
X006641Y024871D03*
X006641Y023871D03*
X006641Y022871D03*
X006641Y021871D03*
D16*
X027823Y020788D02*
X028533Y020788D01*
X028533Y018788D02*
X027823Y018788D01*
X027823Y016788D02*
X028533Y016788D01*
X028533Y014788D02*
X027823Y014788D01*
X027819Y012591D02*
X028529Y012591D01*
X028529Y010623D02*
X027819Y010623D01*
D17*
X008241Y009373D03*
X008241Y014865D03*
X008241Y020357D03*
X002346Y026469D03*
X002346Y003271D03*
M02*
